<mxfile host="app.diagrams.net" agent="Mozilla/5.0 (Windows NT 10.0; Win64; x64) AppleWebKit/537.36 (KHTML, like Gecko) Chrome/134.0.0.0 Safari/537.36" version="26.1.1">
  <diagram name="Page-1" id="YmG4qpN2U-T78wsGZMtT">
    <mxGraphModel dx="1434" dy="772" grid="1" gridSize="10" guides="1" tooltips="1" connect="1" arrows="1" fold="1" page="1" pageScale="1" pageWidth="850" pageHeight="1100" math="0" shadow="0">
      <root>
        <mxCell id="0" />
        <mxCell id="1" parent="0" />
        <mxCell id="aSY7YGyr1cNNzH9c-0jM-1" style="rounded=0;orthogonalLoop=1;jettySize=auto;html=1;exitX=1;exitY=0.5;exitDx=0;exitDy=0;entryX=0;entryY=0.5;entryDx=0;entryDy=0;strokeWidth=3;endArrow=none;startFill=0;edgeStyle=orthogonalEdgeStyle;" edge="1" parent="1" source="aSY7YGyr1cNNzH9c-0jM-2" target="aSY7YGyr1cNNzH9c-0jM-5">
          <mxGeometry relative="1" as="geometry" />
        </mxCell>
        <mxCell id="aSY7YGyr1cNNzH9c-0jM-2" value="&lt;font data-font-src=&quot;https://fonts.googleapis.com/css?family=Montserrat&quot; face=&quot;Montserrat&quot;&gt;CentOS 8&lt;/font&gt;" style="rounded=1;whiteSpace=wrap;html=1;fillColor=#e1d5e7;strokeColor=#9673a6;fontStyle=1;labelPosition=center;verticalLabelPosition=bottom;align=center;verticalAlign=top;" vertex="1" parent="1">
          <mxGeometry x="20" y="40" width="120" height="80" as="geometry" />
        </mxCell>
        <mxCell id="aSY7YGyr1cNNzH9c-0jM-3" style="rounded=0;orthogonalLoop=1;jettySize=auto;html=1;exitX=1;exitY=0.5;exitDx=0;exitDy=0;strokeWidth=3;endArrow=none;startFill=0;entryX=0;entryY=0.5;entryDx=0;entryDy=0;edgeStyle=orthogonalEdgeStyle;" edge="1" parent="1" source="aSY7YGyr1cNNzH9c-0jM-4" target="aSY7YGyr1cNNzH9c-0jM-5">
          <mxGeometry relative="1" as="geometry">
            <mxPoint x="360" y="440" as="targetPoint" />
          </mxGeometry>
        </mxCell>
        <mxCell id="aSY7YGyr1cNNzH9c-0jM-4" value="&lt;font data-font-src=&quot;https://fonts.googleapis.com/css?family=Montserrat&quot; face=&quot;Montserrat&quot;&gt;CentOS Stream 8&lt;/font&gt;" style="rounded=1;whiteSpace=wrap;html=1;fillColor=#e1d5e7;strokeColor=#9673a6;fontStyle=1;labelPosition=center;verticalLabelPosition=bottom;align=center;verticalAlign=top;" vertex="1" parent="1">
          <mxGeometry x="20" y="160" width="120" height="80" as="geometry" />
        </mxCell>
        <mxCell id="aSY7YGyr1cNNzH9c-0jM-5" value="&lt;font face=&quot;Montserrat&quot;&gt;AlmaLinux 8&lt;/font&gt;" style="rounded=1;whiteSpace=wrap;html=1;fillColor=#dae8fc;strokeColor=#6c8ebf;fontStyle=1;labelPosition=center;verticalLabelPosition=bottom;align=center;verticalAlign=top;" vertex="1" parent="1">
          <mxGeometry x="240" y="400" width="120" height="80" as="geometry" />
        </mxCell>
        <mxCell id="aSY7YGyr1cNNzH9c-0jM-6" style="rounded=0;orthogonalLoop=1;jettySize=auto;html=1;exitX=1;exitY=0.5;exitDx=0;exitDy=0;entryX=0;entryY=0.5;entryDx=0;entryDy=0;endArrow=none;startFill=0;strokeWidth=3;" edge="1" parent="1" source="aSY7YGyr1cNNzH9c-0jM-7" target="aSY7YGyr1cNNzH9c-0jM-5">
          <mxGeometry relative="1" as="geometry" />
        </mxCell>
        <mxCell id="aSY7YGyr1cNNzH9c-0jM-7" value="&lt;font face=&quot;Montserrat&quot;&gt;Oracle Linux 8&lt;/font&gt;" style="rounded=1;whiteSpace=wrap;html=1;fillColor=#ffe6cc;strokeColor=#d79b00;fontStyle=1;labelPosition=center;verticalLabelPosition=bottom;align=center;verticalAlign=top;" vertex="1" parent="1">
          <mxGeometry x="20" y="400" width="120" height="80" as="geometry" />
        </mxCell>
        <mxCell id="aSY7YGyr1cNNzH9c-0jM-44" style="edgeStyle=orthogonalEdgeStyle;rounded=0;orthogonalLoop=1;jettySize=auto;html=1;exitX=1;exitY=0.5;exitDx=0;exitDy=0;strokeWidth=3;entryX=0;entryY=0.5;entryDx=0;entryDy=0;" edge="1" parent="1" source="aSY7YGyr1cNNzH9c-0jM-9" target="aSY7YGyr1cNNzH9c-0jM-5">
          <mxGeometry relative="1" as="geometry">
            <mxPoint x="190" y="440" as="targetPoint" />
          </mxGeometry>
        </mxCell>
        <mxCell id="aSY7YGyr1cNNzH9c-0jM-9" value="&lt;font data-font-src=&quot;https://fonts.googleapis.com/css?family=Montserrat&quot; face=&quot;Montserrat&quot;&gt;Rocky Linux 8&lt;/font&gt;" style="rounded=1;whiteSpace=wrap;html=1;fillColor=#d5e8d4;strokeColor=#82b366;fontStyle=1;labelPosition=center;verticalLabelPosition=bottom;align=center;verticalAlign=top;" vertex="1" parent="1">
          <mxGeometry x="20" y="640" width="120" height="80" as="geometry" />
        </mxCell>
        <mxCell id="aSY7YGyr1cNNzH9c-0jM-10" value="" style="shape=image;aspect=fixed;image=data:image/svg+xml,PD94bWwgdmVyc2lvbj0iMS4wIiBlbmNvZGluZz0iVVRGLTgiIHN0YW5kYWxvbmU9Im5vIj8+CjwhLS0gQ3JlYXRlZCB3aXRoIElua3NjYXBlIChodHRwOi8vd3d3Lmlua3NjYXBlLm9yZy8pIC0tPgoKPHN2ZwogICB3aWR0aD0iMTYwIgogICBoZWlnaHQ9IjE2MCIKICAgdmlld0JveD0iMCAwIDQyLjMzMzMzNCA0Mi4zMzMzMzEiCiAgIHZlcnNpb249IjEuMSIKICAgaWQ9InN2ZzUiCiAgIHNvZGlwb2RpOmRvY25hbWU9ImNlbnRvcy1zeW1ib2wuc3ZnIgogICBpbmtzY2FwZTp2ZXJzaW9uPSIxLjIgKGRjMmFlZGFmMDMsIDIwMjItMDUtMTUpIgogICBpbmtzY2FwZTpleHBvcnQtZmlsZW5hbWU9Ii9ob21lL2FyZWd1ZXJhL1Byb2plY3RzL0NlbnRPUy9JZGVudGl0eS9CcmFuZHMvU3ltYm9scy9jZW50b3Mtc3ltYm9sLnBuZyIKICAgaW5rc2NhcGU6ZXhwb3J0LXhkcGk9Ijk2IgogICBpbmtzY2FwZTpleHBvcnQteWRwaT0iOTYiCiAgIHhtbG5zOmlua3NjYXBlPSJodHRwOi8vd3d3Lmlua3NjYXBlLm9yZy9uYW1lc3BhY2VzL2lua3NjYXBlIgogICB4bWxuczpzb2RpcG9kaT0iaHR0cDovL3NvZGlwb2RpLnNvdXJjZWZvcmdlLm5ldC9EVEQvc29kaXBvZGktMC5kdGQiCiAgIHhtbG5zPSJodHRwOi8vd3d3LnczLm9yZy8yMDAwL3N2ZyIKICAgeG1sbnM6c3ZnPSJodHRwOi8vd3d3LnczLm9yZy8yMDAwL3N2ZyIKICAgeG1sbnM6cmRmPSJodHRwOi8vd3d3LnczLm9yZy8xOTk5LzAyLzIyLXJkZi1zeW50YXgtbnMjIgogICB4bWxuczpjYz0iaHR0cDovL2NyZWF0aXZlY29tbW9ucy5vcmcvbnMjIj4KICA8c29kaXBvZGk6bmFtZWR2aWV3CiAgICAgaWQ9Im5hbWVkdmlldzEyNjQiCiAgICAgcGFnZWNvbG9yPSIjZmZmZmZmIgogICAgIGJvcmRlcmNvbG9yPSIjNjY2NjY2IgogICAgIGJvcmRlcm9wYWNpdHk9IjEuMCIKICAgICBpbmtzY2FwZTpwYWdlc2hhZG93PSIyIgogICAgIGlua3NjYXBlOnBhZ2VvcGFjaXR5PSIwLjAiCiAgICAgaW5rc2NhcGU6cGFnZWNoZWNrZXJib2FyZD0iMCIKICAgICBzaG93Z3JpZD0iZmFsc2UiCiAgICAgZml0LW1hcmdpbi10b3A9IjAiCiAgICAgZml0LW1hcmdpbi1sZWZ0PSIwIgogICAgIGZpdC1tYXJnaW4tcmlnaHQ9IjAiCiAgICAgZml0LW1hcmdpbi1ib3R0b209IjAiCiAgICAgaW5rc2NhcGU6em9vbT0iNy4xNjI1IgogICAgIGlua3NjYXBlOmN4PSI4MC4xMzk2MTYiCiAgICAgaW5rc2NhcGU6Y3k9IjgwIgogICAgIGlua3NjYXBlOndpbmRvdy13aWR0aD0iMzQ0MCIKICAgICBpbmtzY2FwZTp3aW5kb3ctaGVpZ2h0PSIxMzcxIgogICAgIGlua3NjYXBlOndpbmRvdy14PSIwIgogICAgIGlua3NjYXBlOndpbmRvdy15PSIwIgogICAgIGlua3NjYXBlOndpbmRvdy1tYXhpbWl6ZWQ9IjEiCiAgICAgaW5rc2NhcGU6Y3VycmVudC1sYXllcj0ic3ZnNSIKICAgICBpbmtzY2FwZTpzaG93cGFnZXNoYWRvdz0idHJ1ZSIKICAgICBzaG93Ym9yZGVyPSJ0cnVlIgogICAgIGlua3NjYXBlOmRlc2tjb2xvcj0iI2QxZDFkMSI+CiAgICA8aW5rc2NhcGU6Z3JpZAogICAgICAgdHlwZT0ieHlncmlkIgogICAgICAgaWQ9ImdyaWQ5MTgiCiAgICAgICBzcGFjaW5neD0iMi42NDU4MzMzIgogICAgICAgc3BhY2luZ3k9IjIuNjQ1ODMzMyIKICAgICAgIG9yaWdpbng9Ii01LjI5MTY3MjYiCiAgICAgICBvcmlnaW55PSIzOS42ODc0OTQiIC8+CiAgPC9zb2RpcG9kaTpuYW1lZHZpZXc+CiAgPGRlZnMKICAgICBpZD0iZGVmczIiIC8+CiAgPG1ldGFkYXRhCiAgICAgaWQ9Im1ldGFkYXRhOTQ4Ij4KICAgIDxyZGY6UkRGPgogICAgICA8Y2M6V29yawogICAgICAgICByZGY6YWJvdXQ9IiI+CiAgICAgICAgPGNjOmxpY2Vuc2UKICAgICAgICAgICByZGY6cmVzb3VyY2U9Imh0dHA6Ly9jcmVhdGl2ZWNvbW1vbnMub3JnL2xpY2Vuc2VzL2J5LXNhLzQuMC8iIC8+CiAgICAgIDwvY2M6V29yaz4KICAgICAgPGNjOkxpY2Vuc2UKICAgICAgICAgcmRmOmFib3V0PSJodHRwOi8vY3JlYXRpdmVjb21tb25zLm9yZy9saWNlbnNlcy9ieS1zYS80LjAvIj4KICAgICAgICA8Y2M6cGVybWl0cwogICAgICAgICAgIHJkZjpyZXNvdXJjZT0iaHR0cDovL2NyZWF0aXZlY29tbW9ucy5vcmcvbnMjUmVwcm9kdWN0aW9uIiAvPgogICAgICAgIDxjYzpwZXJtaXRzCiAgICAgICAgICAgcmRmOnJlc291cmNlPSJodHRwOi8vY3JlYXRpdmVjb21tb25zLm9yZy9ucyNEaXN0cmlidXRpb24iIC8+CiAgICAgICAgPGNjOnJlcXVpcmVzCiAgICAgICAgICAgcmRmOnJlc291cmNlPSJodHRwOi8vY3JlYXRpdmVjb21tb25zLm9yZy9ucyNOb3RpY2UiIC8+CiAgICAgICAgPGNjOnJlcXVpcmVzCiAgICAgICAgICAgcmRmOnJlc291cmNlPSJodHRwOi8vY3JlYXRpdmVjb21tb25zLm9yZy9ucyNBdHRyaWJ1dGlvbiIgLz4KICAgICAgICA8Y2M6cGVybWl0cwogICAgICAgICAgIHJkZjpyZXNvdXJjZT0iaHR0cDovL2NyZWF0aXZlY29tbW9ucy5vcmcvbnMjRGVyaXZhdGl2ZVdvcmtzIiAvPgogICAgICAgIDxjYzpyZXF1aXJlcwogICAgICAgICAgIHJkZjpyZXNvdXJjZT0iaHR0cDovL2NyZWF0aXZlY29tbW9ucy5vcmcvbnMjU2hhcmVBbGlrZSIgLz4KICAgICAgPC9jYzpMaWNlbnNlPgogICAgPC9yZGY6UkRGPgogIDwvbWV0YWRhdGE+CiAgPGcKICAgICBpZD0iZzkwMiIKICAgICB0cmFuc2Zvcm09Im1hdHJpeCgxLjA1MjkwOTEsMCwwLDEuMDUyODg2NywtMzg3LjQ5MjEsMjY1Ljk4NDkzKSI+CiAgICA8ZWxsaXBzZQogICAgICAgc3R5bGU9ImZpbGw6I2ExNGY4YztmaWxsLW9wYWNpdHk6MTtzdHJva2U6bm9uZTtzdHJva2Utd2lkdGg6MS4zMjI5MjtzdHJva2UtbGluZWNhcDpyb3VuZDtzdHJva2UtbWl0ZXJsaW1pdDo0O3N0cm9rZS1kYXNoYXJyYXk6bm9uZTtzdHJva2Utb3BhY2l0eToxO3BhaW50LW9yZGVyOmZpbGwgbWFya2VycyBzdHJva2U7c3RvcC1jb2xvcjojMDAwMDAwIgogICAgICAgaWQ9ImVsbGlwc2U4OTQiCiAgICAgICBjeD0iNDM1LjA3OTM4IgogICAgICAgY3k9Ii0xMjQuMTQ0MjgiCiAgICAgICBpbmtzY2FwZTpleHBvcnQtZmlsZW5hbWU9Ii9ob21lL2FyZWd1ZXJhL1BpY3R1cmVzL2NlbnRvcy1zeW1ib2wtdjEwLnBuZyIKICAgICAgIGlua3NjYXBlOmV4cG9ydC14ZHBpPSIxMy4wNiIKICAgICAgIGlua3NjYXBlOmV4cG9ydC15ZHBpPSIxMy4wNiIKICAgICAgIHJ4PSIyMC4xMDMwMDEiCiAgICAgICByeT0iMjAuMTAzNDkzIgogICAgICAgdHJhbnNmb3JtPSJyb3RhdGUoLTE1KSIgLz4KICAgIDxnCiAgICAgICBpZD0iZzkwNyIKICAgICAgIHRyYW5zZm9ybT0ibWF0cml4KDEuMTUwMDAwMSwwLDAsMS4xNTAwMDAxLC01My43NzIyNzksMzkuMzI0NTY2KSI+CiAgICAgIDxwYXRoCiAgICAgICAgIGlkPSJwYXRoODk2IgogICAgICAgICBzdHlsZT0iZmlsbDojZmZmZmZmO2ZpbGwtb3BhY2l0eToxO3N0cm9rZS13aWR0aDo3LjkzNzQ2O3N0cm9rZS1saW5lY2FwOnJvdW5kO3BhaW50LW9yZGVyOmZpbGwgbWFya2VycyBzdHJva2U7c3RvcC1jb2xvcjojMDAwMDAwIgogICAgICAgICBkPSJtIDM4NC4yNTcxNywtMjQ5LjYxNjU5IC0zLjg3NDkzLDMuODc0OTQgLTUuNDc5MjUsLTQuNWUtNCAtNC41ZS00LDUuNDc5NzQgLTMuODc0NTQsMy44NzQ5NCAzLjg3NDU0LDMuODc0NTQgMmUtNCw1LjQ3OTg5IDUuNDc5NSwtMmUtNCAzLjg3NDkzLDMuODc0OTMgMy44NzQ1NCwtMy44NzQ5MyA1LjQ3OTk0LC0yLjVlLTQgLTIuNWUtNCwtNS40Nzk0NCAzLjg3NDk0LC0zLjg3NDU0IC0zLjg3NTMyLC0zLjg3NDU2IC01LjQ3OTQ5LC01LjQ3OTQ5IHogbSAxLjE3NjA3LDMuODc0NTQgdiA0LjE4MDQ1IGwgLTEuMTc2MDcsMS4xNzYwOCAtMS4xNzYwNywtMS4xNzYwOCB2IC00LjE4MDA1IHogbSAtNi45NTkyOCwxLjkwODI3IDIuOTU1OTksMi45NTYzOSA0LjRlLTQsMS42NjI2OSAtMS42NjM1OSw0LjVlLTQgLTIuOTU1OTksLTIuOTU2MzkgeiBtIC0zLjU3MTQyLDYuMjcwMjggaCA0LjE4MDQ1IGwgMS4xNzYwOCwxLjE3NjA4IC0xLjE3NjA4LDEuMTc2MDcgaCAtNC4xODA0NSB6IG0gMTQuNDM0NDQsMCBoIDQuMTgwNDUgdiAyLjM1MjE1IGggLTQuMTgwNDUgbCAtMS4xNzYwOCwtMS4xNzYwNyB6IG0gLTkuNTAzNDEsMy45MzY1MSAxLjY2MzE2LDFlLTUgdiAxLjY2MzE0IGwgLTIuOTU1OTksMi45NTYgLTEuNjYzMTUsLTEuNjYzMTYgeiBtIDcuMTg0MjksLTIuM2UtNCAxLjY2MjksMi40ZS00IDIuOTU1OTksMi45NTU5OSAtMS42NjMxNCwxLjY2MzE0IC0yLjk1NTk5LC0yLjk1NTk5IHogbSAtMi43NjA2OSwxLjE0MzUzIDEuMTc2MDcsMS4xNzYwNyB2IDQuMTgwNDYgaCAtMi4zNTIxNCB2IC00LjE4MDQ2IHoiCiAgICAgICAgIHNvZGlwb2RpOm5vZGV0eXBlcz0iY2NjY2NjY2NjY2NjY2NjY2NjY2NjY2NjY2NjY2NjY2NjY2NjY2NjY2NjY2NjY2NjY2NjY2NjY2NjYyIgLz4KICAgICAgPHBhdGgKICAgICAgICAgaWQ9InBhdGg4OTgiCiAgICAgICAgIHN0eWxlPSJmaWxsOiNlZmE3MjQ7ZmlsbC1vcGFjaXR5OjE7c3Ryb2tlLXdpZHRoOjguNTkyMTI7c3Ryb2tlLWxpbmVjYXA6cm91bmQ7cGFpbnQtb3JkZXI6ZmlsbCBtYXJrZXJzIHN0cm9rZTtzdG9wLWNvbG9yOiMwMDAwMDAiCiAgICAgICAgIGQ9Im0gMzg1LjQzMzI0LC0yMzkuMDg5ODMgLTEuMTc2MDcsMS4wMzkyNiAtMS4xNzYwNywtMS4wMzk2MSB2IDEuNTI2NjggaCAtMS41MjY0OSBsIDEuMDM5NDEsMS4xNzYwNyAtMS4wMzk2NCwxLjE3NjA4IGggMS41MjY3MiB2IDEuNTI2NCBsIDEuMTc2MDcsLTEuMDM5MzQgMS4xNzYwNywxLjAzOTQ3IHYgLTEuNTI2NTMgaCAxLjUyNjI4IGwgLTEuMDM5MjEsLTEuMTc2MDQgMS4wMzk2LC0xLjE3NjExIGggLTEuNTI2NjcgeiIKICAgICAgICAgaW5rc2NhcGU6ZXhwb3J0LWZpbGVuYW1lPSIvaG9tZS9hcmVndWVyYS9QaWN0dXJlcy9jZW50b3Mtc3ltYm9sLTQ4MjM4MC12My5wbmciCiAgICAgICAgIGlua3NjYXBlOmV4cG9ydC14ZHBpPSIxNC4zNSIKICAgICAgICAgaW5rc2NhcGU6ZXhwb3J0LXlkcGk9IjE0LjM1IgogICAgICAgICBzb2RpcG9kaTpub2RldHlwZXM9ImNjY2NjY2NjY2NjY2NjY2NjIiAvPgogICAgICA8cGF0aAogICAgICAgICBpZD0icGF0aDkwMCIKICAgICAgICAgc3R5bGU9ImZpbGw6I2VmYTcyNDtmaWxsLW9wYWNpdHk6MTtzdHJva2Utd2lkdGg6Ni4xNDIzMTtzdHJva2UtbGluZWNhcDpyb3VuZDtwYWludC1vcmRlcjpmaWxsIG1hcmtlcnMgc3Ryb2tlO3N0b3AtY29sb3I6IzAwMDAwMCIKICAgICAgICAgZD0ibSAzODguMTM0ODYsLTI0NS43MzgxNCAxLjkwNDkzLDEuOTA0OTMgLTIuOTU1OTksMi45NTU5OSA3ZS01LDEuNjYzMSAxLjY2MzA5LDVlLTUgMi45NTU5OCwtMi45NTU5OCAxLjkxMTUzLDEuOTExNTMgLTAuMDAzLC01LjQ4MzA5IHoiCiAgICAgICAgIGlua3NjYXBlOmV4cG9ydC1maWxlbmFtZT0iL2hvbWUvYXJlZ3VlcmEvUGljdHVyZXMvY2VudG9zLXN5bWJvbC12MTAucG5nIgogICAgICAgICBpbmtzY2FwZTpleHBvcnQteGRwaT0iMTMuMDYiCiAgICAgICAgIGlua3NjYXBlOmV4cG9ydC15ZHBpPSIxMy4wNiIKICAgICAgICAgc29kaXBvZGk6bm9kZXR5cGVzPSJjY2NjY2NjY2MiIC8+CiAgICA8L2c+CiAgPC9nPgo8L3N2Zz4K;" vertex="1" parent="1">
          <mxGeometry x="55" y="175" width="50" height="50" as="geometry" />
        </mxCell>
        <mxCell id="aSY7YGyr1cNNzH9c-0jM-11" value="" style="shape=image;aspect=fixed;image=data:image/svg+xml,PHN2ZyB4bWxucz0iaHR0cDovL3d3dy53My5vcmcvMjAwMC9zdmciIGlkPSJMYXllcl8xIiB4PSIwIiB5PSIwIiB2ZXJzaW9uPSIxLjEiIHhtbDpzcGFjZT0icHJlc2VydmUiIHZpZXdCb3g9IjAgMCA2MS4wMjgyNTkgNTkuNzMxMjc3Ij4KICA8ZGVmcy8+CiAgPHN0eWxlIGlkPSJzdHlsZTIiIHR5cGU9InRleHQvY3NzIj4KICAgIC5zdDF7ZmlsbDojODZkYTJmfS5zdDJ7ZmlsbDojMjRjMmZmfS5zdDN7ZmlsbDojZmZjYjEyfS5zdDR7ZmlsbDojMDA2OWRhfS5zdDV7ZmlsbDojZmY0NjQ5fQogIDwvc3R5bGU+CiAgPHBhdGggaWQ9InBhdGgyMiIgZD0iTTU2LjExMzgyIDMzLjczMTI3OGMyLjYtLjIgNC43IDEuNSA0LjkgNC4xLjIgMi43LTEuNyA0LjktNC4zIDUuMS0yLjUuMi00LjctMS43LTQuOS00LjItLjItMi43IDEuNi00LjcgNC4zLTV6IiBjbGFzcz0ic3QxIi8+CiAgPHBhdGggaWQ9InBhdGgyNCIgZD0iTTI0LjUxMzgyIDU1LjAzMTI3OGMwLTIuNiAyLTQuNiA0LjQtNC42IDIuNCAwIDQuNyAyLjIgNC43IDQuNyAwIDIuNC0yIDQuNS00LjMgNC42LTIuOSAwLTQuOC0xLjgtNC44LTQuN3oiIGNsYXNzPSJzdDIiLz4KICA8cGF0aCBpZD0icGF0aDI2IiBkPSJNMzEuNjEzODIgMjUuODMxMjc4Yy0uNC4yLS42LS4xLS43LS40LTMuNy02LjktMi42LTE1LjYwMDAwMDQgMy45LTIwLjgwMDAwMDQgMS43LTEuNCA0LjktMS43IDYuMy0uMy42LjUuNyAxLjEuOCAxLjguMiAxLjUuNSAzIDEuNSA0LjIwMDAwMDQgMS4xIDEuMyAyLjUgMS44IDQuMSAxLjcgMS40IDAgMi44LS4yIDMuNyAxLjQuNS45LjMgNC40LS41IDUuMS0uNC4zLS43LjEtMSAwLTIuMy0uOS00LjctLjktNy4xLS41LS44LjEtMS4yLS4xLTEuMi0xLS4xLTEuNS0uNC0yLjktMS4yLTQuMi0xLjUtMi43LTQuMy0yLjgtNi4xLS4zLTEuNSAyLTEuOSA0LjQtMi4zIDYuOC0uNCAyLjEtLjMgNC4zLS4yIDYuNSAwIDAtLjEgMCAwIDB6IiBjbGFzcz0ic3QzIi8+CiAgPHBhdGggaWQ9InBhdGgyOCIgZD0iTTM0LjExMzgyIDI3LjMzMTI3OGMtLjItLjMtLjEtLjYuMi0uOCA1LjctNS4yIDE0LjItNi4yIDIwLjgtMS4xIDEuNyAxLjQgMi44IDQuMyAxLjkgNi0uNC43LS45IDEtMS41IDEuMi0xLjQuNi0yLjcgMS4yLTMuNiAyLjUtLjkgMS4zLTEuMSAyLjgtLjcgNC40LjMgMS4zLjggMi43LS41IDMuOS0uNy43LTQuMSAxLjMtNSAuNy0uNC0uMy0uMy0uNi0uMi0xIC4zLTIuNS0uMy00LjgtMS4yLTctLjMtLjgtLjItMS4yLjYtMS40IDEuNC0uNCAyLjctMS4xIDMuNy0yLjEgMi4yLTIuMSAxLjctNC44LTEuMi02LTIuMy0xLTQuNy0uOC03LS42LTIuMi4xLTQuMy43LTYuMyAxLjN6IiBjbGFzcz0ic3QxIi8+CiAgPHBhdGggaWQ9InBhdGgzMCIgZD0iTTMyLjgxMzgyIDI5LjkzMTI3OGMuMy0uMy41LS4yLjggMCA2LjYgNCAxMCAxMS45IDcgMTkuNi0uOCAyLTMuNCA0LTUuMyAzLjUtLjgtLjItMS4yLS42LTEuNi0xLjEtLjktMS4yLTEuOS0yLjMtMy40LTIuOC0xLjYtLjUtMy0uMi00LjQuNi0xLjIuNy0yLjQgMS42LTMuOS43LS45LS41LTIuNC0zLjYtMi4xLTQuNi4yLS40LjYtLjQgMS0uNCAyLjUtLjQgNC41LTEuNiA2LjQtMy4yLjYtLjUgMS4xLS41IDEuNi4yLjggMS4yIDEuOCAyLjIgMy4xIDIuOSAyLjYgMS41IDUuMS4yIDUuNC0yLjguMy0yLjUtLjYtNC43LTEuNC02LjktLjktMi0yLTMuOS0zLjItNS43eiIgY2xhc3M9InN0MiIvPgogIDxwYXRoIGlkPSJwYXRoMzIiIGQ9Ik0yOS42MTM4MiAzMC41MzEyNzhjLS40IDItMS4zIDMuOS0yLjUgNS42LTMuNiA1LjQtOC44IDcuNi0xNS4yIDctMi4yOTk5OTk3LS4yLTQuMTk5OTk5Ny0yLjEtNC4zOTk5OTk3LTQtLjEtLjguMS0xLjQuNi0yIC43LS45IDEuMy0xLjcgMS42LTIuOC41OTk5OTk3LTIuMi0uMi00LTEuOC01LjYtMi4yLTIuMi0xLjktNC4yLjctNS44LjMtLjIuNy0uNCAxLjEtLjYuNTk5OTk5Ny0uMyAxLjA5OTk5OTctLjMgMS4yOTk5OTk3LjQuOSAyLjMgMi43IDQgNC43IDUuNC43LjYuNyAxIC4xIDEuNy0xLjIgMS4zLTEuOSAyLjktMiA0LjctLjIgMi4yIDEuMSAzLjYgMy4zIDMuNiAxLjQgMCAyLjctLjUgMy45LTEuMSAzLjEtMS42IDUuNS0zLjkgNy44LTYuMy4zLS4xLjQtLjMuOC0uMnoiIGNsYXNzPSJzdDQiLz4KICA8cGF0aCBpZD0icGF0aDM0IiBkPSJNMTMuMjEzODIgOS41MzEyNzc2Yy4yIDAgLjcuMSAxLjIuMiAzLjcuNzAwMDAwNCA2LS42IDcuMi00LjEuOC0yLjMgMi41LTMgNC43LTEuOC4xIDAgLjEuMS4yLjEgMi4zIDEuMyAyLjMgMS41LjkgMy41LTEuMiAxLjYtMS44IDMuNDAwMDAwNC0yLjEgNS4zMDAwMDA0LS4yIDEuMS0uNiAxLjMtMS42LjktMS42LS42LTMuMy0uNi01IDAtMS45LjYtMi43IDIuMy0yLjEgNC4yLjggMi41IDMgMy42IDQuOSA0LjkgMS45IDEuMyA0LjEgMiA2LjIgMi45LjMuMS44LjEuNy42LS4xLjMtLjUuMy0uOS4zLTQuNS4yLTguOC0uNS0xMi4zLTMuNS0zLjMtMi43LTUuNjk5OTk5Ny02LTUuMjk5OTk5Ny0xMC42LjI5OTk5OTctMS41IDEuMzk5OTk5Ny0yLjYwMDAwMDQgMy4yOTk5OTk3LTIuOTAwMDAwNHoiIGNsYXNzPSJzdDUiLz4KICA8cGF0aCBpZD0icGF0aDM2IiBkPSJNNS4wMTM4MjAzIDM3LjYzMTI3OGMtMi40LjMtNC44MDAwMDAwMy0xLjctNS4wMDAwMDAwMy00LjItLjItMi40IDEuODAwMDAwMDMtNC44IDQuMTAwMDAwMDMtNSAyLjYtLjMgNSAxLjUgNS4yIDMuOS4xIDIuMy0xLjQgNS4xLTQuMyA1LjN6IiBjbGFzcz0ic3Q0Ii8+CiAgPHBhdGggaWQ9InBhdGgzOCIgZD0iTTQ3LjAxMzgyIDIuMDMxMjc3NmMyLjUtLjIgNC45IDEuOCA1LjEgNC4zLjIgMi40LTEuOCA0LjcwMDAwMDQtNC4yIDQuOTAwMDAwNC0yLjYuMi00LjktMS43MDAwMDA0LTUuMS00LjIwMDAwMDQtLjItMi41IDEuNi00LjggNC4yLTV6IiBjbGFzcz0ic3QzIi8+CiAgPHBhdGggaWQ9InBhdGg0MCIgZD0iTTIwLjkxMzgyIDMuOTMxMjc3NmMuMyAyLjYtMS41IDQuOC00LjIgNS4yLTIuMy4zLTQuNy0xLjYtNS0zLjgtLjMtMi45IDEuMy00Ljk5OTk5OTk2IDQtNS4yOTk5OTk5NiAyLjUtLjMgNC45IDEuNTk5OTk5OTYgNS4yIDMuODk5OTk5OTZ6IiBjbGFzcz0ic3Q1Ii8+Cjwvc3ZnPgo=;" vertex="1" parent="1">
          <mxGeometry x="274" y="415" width="51" height="50" as="geometry" />
        </mxCell>
        <mxCell id="aSY7YGyr1cNNzH9c-0jM-12" value="" style="shape=image;aspect=fixed;image=data:image/svg+xml,PHN2ZyB3aWR0aD0iNDA5NiIgaGVpZ2h0PSI0MDk2IiB2aWV3Qm94PSIwIDAgMTkyIDE5MiIgZmlsbD0ibm9uZSIgeG1sbnM9Imh0dHA6Ly93d3cudzMub3JnLzIwMDAvc3ZnIj4KPHBhdGggZmlsbC1ydWxlPSJldmVub2RkIiBjbGlwLXJ1bGU9ImV2ZW5vZGQiIGQ9Ik0xODYuNjU4IDEyNy42NThDMTkwLjExOSAxMTcuNzQ2IDE5MiAxMDcuMDkzIDE5MiA5NkMxOTIgNDIuOTgwNyAxNDkuMDE5IDAgOTYgMEM0Mi45ODA3IDAgMCA0Mi45ODA3IDAgOTZDMCAxMjIuMjM0IDEwLjUyMyAxNDYuMDExIDI3LjU3ODMgMTYzLjMzOEwxMjQuOTU4IDY1Ljk1ODRMMTQ5IDkwTDE4Ni42NTggMTI3LjY1OFpNMTY5LjEyMiAxNTguMjA1TDEyNC45NTggMTE0LjA0Mkw1NS43OTc4IDE4My4yMDJDNjguMDI2OSAxODguODQ5IDgxLjY0NTUgMTkyIDk2IDE5MkMxMjUuMjg4IDE5MiAxNTEuNTE0IDE3OC44ODQgMTY5LjEyMiAxNTguMjA1WiIgZmlsbD0iIzEwQjk4MSIvPgo8L3N2Zz4K;" vertex="1" parent="1">
          <mxGeometry x="54" y="655" width="50" height="50" as="geometry" />
        </mxCell>
        <mxCell id="aSY7YGyr1cNNzH9c-0jM-13" value="" style="shape=image;aspect=fixed;image=data:image/svg+xml,PD94bWwgdmVyc2lvbj0iMS4wIiBlbmNvZGluZz0iVVRGLTgiIHN0YW5kYWxvbmU9Im5vIj8+CjxzdmcKICAgdmlld0JveD0iMCAwIDIzMSA3OCIKICAgcHJlc2VydmVBc3BlY3RSYXRpbz0ieE1pbllNaWQiCiAgIHZlcnNpb249IjEuMSIKICAgaWQ9InN2ZzQiCiAgIHhtbDpzcGFjZT0icHJlc2VydmUiCiAgIHdpZHRoPSIyMzEiCiAgIGhlaWdodD0iNzgiCiAgIHhtbG5zPSJodHRwOi8vd3d3LnczLm9yZy8yMDAwL3N2ZyIKICAgeG1sbnM6c3ZnPSJodHRwOi8vd3d3LnczLm9yZy8yMDAwL3N2ZyI+PGRlZnMKICAgICBpZD0iZGVmczgiPjxyZWN0CiAgICAgICB4PSItMTM4LjI0NjQxIgogICAgICAgeT0iODEuNTY3MjM4IgogICAgICAgd2lkdGg9IjM4Mi4zNjc0IgogICAgICAgaGVpZ2h0PSIyNDAuMjExNTYiCiAgICAgICBpZD0icmVjdDQ5NSIgLz48cmVjdAogICAgICAgeD0iLTE3LjYxMjYyMyIKICAgICAgIHk9IjEwNC4zNTg5OCIKICAgICAgIHdpZHRoPSIxNzEuMDUyMzgiCiAgICAgICBoZWlnaHQ9IjE5Ny4zMTQ0NCIKICAgICAgIGlkPSJyZWN0MjkxIiAvPjwvZGVmcz48ZwogICAgIGlkPSJnMTQwNyIKICAgICB0cmFuc2Zvcm09InRyYW5zbGF0ZSgwLjM0NzcyNzE0LDAuMTE4MjU1NykiPjxwYXRoCiAgICAgICBkPSJtIDk5LjU5LDE5LjUyIGggMTUuMjQgTCAxMDYuNzgsNi41MiA5MS45OCwzMCBoIC02LjczIGwgMTgsLTI4LjE3IGEgNC4yOSw0LjI5IDAgMCAxIDcsLTAuMDUgTCAxMjguMywzMCBoIC02LjczIGwgLTMuMTcsLTUuMjUgaCAtMTUuNDIgbCAtMy4zNiwtNS4yMyBtIDY5LjkzLDUuMjMgViAwLjI4IGggLTUuNzIgdiAyNi44OCBhIDIuNzYsMi43NiAwIDAgMCAwLjg1LDIgMi44OSwyLjg5IDAgMCAwIDIuMDgsMC44NyBoIDI2IGwgMy4zOSwtNS4yNSBoIC0yNi42MyBtIC05NC41NCwtNC40IGEgMTAuMDUsMTAuMDUgMCAwIDAgMCwtMjAuMSBoIC0yNSBWIDMwIGggNS43MSBWIDUuNTQgaCAxOC45NCBhIDQuODEsNC44MSAwIDAgMSAwLDkuNjIgSCA1OC41MiBMIDc1LjU4LDMwIGggOC4yOSBMIDcyLjQxLDIwLjM4IGggMi41NyBNIDE0Ljg2LDMwIGggMTcuMjcgYSAxNC44NiwxNC44NiAwIDAgMCAwLC0yOS43MSBIIDE0Ljg2IGEgMTQuODYsMTQuODYgMCAxIDAgMCwyOS43MSBtIDE2Ljg4LC01LjIzIGggLTE2LjUgYSA5LjYyLDkuNjIgMCAwIDEgMCwtMTkuMjMgaCAxNi41IGEgOS42Miw5LjYyIDAgMSAxIDAsMTkuMjMgTSAxNDAuMjMsMzAgaCAxNy42MyBsIDMuMzQsLTUuMjMgaCAtMjAuNTggYSA5LjYyLDkuNjIgMCAxIDEgMCwtMTkuMjMgaCAxNi43NSBsIDMuMzgsLTUuMjUgaCAtMjAuNTIgYSAxNC44NiwxNC44NiAwIDEgMCAwLDI5LjcxIG0gNjkuODcsLTUuMjMgYSA5LjYyLDkuNjIgMCAwIDEgLTkuMjYsLTcgaCAyNC40MiBsIDMuMzYsLTUuMjQgaCAtMjcuNzggYSA5LjYxLDkuNjEgMCAwIDEgOS4yNiwtNyBoIDE2Ljc2IGwgMy4zNSwtNS4yNSBoIC0yMC41IGEgMTQuODYsMTQuODYgMCAwIDAgMCwyOS43MSBoIDE3LjYzIGwgMy4zNSwtNS4yMyBoIC0yMC42IgogICAgICAgc3R5bGU9ImZpbGw6I2M3NDYzNCIKICAgICAgIGlkPSJwYXRoMiIgLz48cGF0aAogICAgICAgaWQ9InJlY3Q3NDkiCiAgICAgICBzdHlsZT0iZmlsbDojYzc0NjM0O2ZpbGwtb3BhY2l0eToxO3N0cm9rZS13aWR0aDo1LjI1MTk7c3Ryb2tlLWxpbmVjYXA6c3F1YXJlO3BhaW50LW9yZGVyOnN0cm9rZSBmaWxsIG1hcmtlcnMiCiAgICAgICBkPSJtIDI1LjM5MTUxNyw0Ny45MzA4NzEgaCA0Ljk4MDg2MyB2IDMuODMwMDI1IGggLTQuOTgwODYzIHogbSA2MS41MDA4LDE4LjU1NzA2MSAtNy4yNCwtMTAuMjQwMDAyIGggNC45NiBsIDQuNjQsNy4wODAwMDIgaCAwLjI0IGwgNC43NiwtNy4wODAwMDIgaCA0LjcyIGwgLTcuMjgsMTAuMTYwMDAyIDcuNjQsMTAuODggaCAtNC45NiBsIC01LjA4LC03LjcyIGggLTAuMjQgbCAtNS4xMiw3LjcyIGggLTQuNzIgeiBtIC0yMS41OTk5OTgsMTEuMjggcSAtNi42OCwwIC02LjY4LC03LjI0IFYgNTYuMjQ3OTMgaCA0LjEyIHYgMTMuNzYwMDAyIHEgMCwyLjM2IDEuMDQsMy4zMiAxLjA4LDAuOTIgMy4xMiwwLjkyIDEuNCwwIDIuNiwtMC42OCAxLjIsLTAuNzIgMS44OCwtMiAwLjcyLC0xLjI4IDAuNzIsLTIuOTYgViA1Ni4yNDc5MyBoIDQuMTIgdiAyMS4wNDAwMDIgaCAtMy4zMiBsIC0wLjQsLTIuOCBoIC0wLjI4IHEgLTEuMTYsMS42IC0yLjkyLDIuNDQgLTEuNzYsMC44NCAtNCwwLjg0IHogTSAzNS44MTIzMiw1Ni4yNDc5MyBoIDMuMzIwMDAxIGwgMC40LDIuODAwMDAyIGggMC4yOCBxIDEuMTIsLTEuNjAwMDAyIDIuODgsLTIuNDQwMDAyIDEuOCwtMC44NCA0LjA0LC0wLjg0IDYuNjgsMCA2LjY4LDcuMjQwMDAyIHYgMTQuMjggaCAtNC4xMiB2IC0xMy43NiBxIDAsLTIuMzYgLTEuMDgsLTMuMjggLTEuMDQsLTAuOTYgLTMuMDgsLTAuOTYgLTEuNCwwIC0yLjYsMC43MiAtMS4yLDAuNjggLTEuOTIsMS45NiAtMC42OCwxLjI4IC0wLjY4LDIuOTYgdiAxMi4zNiBIIDM1LjgxMjMyIFogTSAzLjYxMjM5LDQ3LjkzMDg3MSBoIDQuNDQgdiAyNS41MTcwNjEgaCAxNC4yOCB2IDMuODQgaCAtMTguNzIgeiBNIDI2LjI1Njc2OCw1OS40NjM5NSBWIDc3LjI4NzkzMiBIIDMwLjM3MjM4IFYgNTYuMjc1NDY0IGggLTYuMzg3NjEyIHYgMS44MjU2ODEgeiIgLz48L2c+PC9zdmc+Cg==;" vertex="1" parent="1">
          <mxGeometry x="35.57999999999999" y="425" width="88.85" height="30" as="geometry" />
        </mxCell>
        <mxCell id="aSY7YGyr1cNNzH9c-0jM-14" value="" style="shape=image;aspect=fixed;image=data:image/svg+xml,PHN2ZyBpZD0iTGF5ZXJfMSIgZGF0YS1uYW1lPSJMYXllciAxIiB4bWxucz0iaHR0cDovL3d3dy53My5vcmcvMjAwMC9zdmciIHZpZXdCb3g9IjAgMCAxNzAuMjcgMTcwLjI4Ij48ZGVmcz48c3R5bGU+LmNscy0xLC5jbHMtNntmaWxsOiM5MzIyNzk7fS5jbHMtMiwuY2xzLTd7ZmlsbDojZWZhNzI0O30uY2xzLTMsLmNscy04e2ZpbGw6IzI2MjU3Nzt9LmNscy00LC5jbHMtNXtmaWxsOiM5Y2NkMmE7fS5jbHMtNSwuY2xzLTYsLmNscy03LC5jbHMtOCwuY2xzLTl7c3Ryb2tlOiNmZmY7c3Ryb2tlLXdpZHRoOjMuNTRweDt9LmNscy05e2ZpbGw6bm9uZTt9PC9zdHlsZT48L2RlZnM+PHRpdGxlPmNlbnRvczwvdGl0bGU+PGcgaWQ9ImxheWVyMSI+PGcgaWQ9Imc1MTg5Ij48ZyBpZD0iZzM2NjQiPjxnIGlkPSJnMTI4MDIiPjxnIGlkPSJnMTI4MDQiPjxnIGlkPSJnMTI4MDYiPjxwYXRoIGlkPSJwYXRoMTI4MDgiIGNsYXNzPSJjbHMtMSIgZD0iTTY5LjE4LDc3LjEybDYuMTcsNi4xMy02LjE3LDYuMTNIMjUuNzV2MjAuNDRMLS43Myw4My4yNSwyNS43NSw1Ny4xM3YyMFoiIHRyYW5zZm9ybT0idHJhbnNsYXRlKDIuNSAxLjc3KSIvPjwvZz48L2c+PC9nPjxnIGlkPSJnMTI3NjgiPjxnIGlkPSJnMTI3NzAiPjxnIGlkPSJnMTI3NzIiPjxwYXRoIGlkPSJwYXRoMTI3NzQiIGNsYXNzPSJjbHMtMiIgZD0iTTg4Ljg0LDY5LjkxbC02LjEzLDYuMTctNi4xMy02LjE3VjI2LjQ4SDU2LjE0TDgyLjcxLDBsMjYuMTIsMjYuNDhoLTIwWiIgdHJhbnNmb3JtPSJ0cmFuc2xhdGUoMi41IDEuNzcpIi8+PC9nPjwvZz48L2c+PGcgaWQ9ImcxMjc4MCI+PGcgaWQ9ImcxMjc4MiI+PHBhdGggaWQ9InBhdGgxMjc4NCIgY2xhc3M9ImNscy0zIiBkPSJNOTYsODkuNTdsLTYuMTctNi4xM0w5Niw3Ny4zMWg0My40M1Y1Ni44N0wxNjYsODMuNDRsLTI2LjQ4LDI2LjEydi0yMFoiIHRyYW5zZm9ybT0idHJhbnNsYXRlKDIuNSAxLjc3KSIvPjwvZz48L2c+PGcgaWQ9ImcxMjc5MCI+PGcgaWQ9ImcxMjc5MiI+PGcgaWQ9ImcxMjc5NCI+PHBhdGggaWQ9InBhdGgxMjc5NiIgY2xhc3M9ImNscy00IiBkPSJNNzYuMzksOTYuNzhsNi4xMy02LjE3LDYuMTMsNi4xN3Y0My40M2gyMC40NEw4Mi41MiwxNjYuNjksNTYuNCwxNDAuMjFoMjBaIiB0cmFuc2Zvcm09InRyYW5zbGF0ZSgyLjUgMS43NykiLz48L2c+PC9nPjwvZz48ZyBpZD0iZzEyNzQyIj48cGF0aCBpZD0icmVjdDEyNzQ0IiBjbGFzcz0iY2xzLTUiIGQ9Ik0yNC4yLDI0LjkzSDc3Vjc3LjY5SDI0LjJaIiB0cmFuc2Zvcm09InRyYW5zbGF0ZSgyLjUgMS43NykiLz48cGF0aCBpZD0icmVjdDEyNzQ2IiBjbGFzcz0iY2xzLTYiIGQ9Ik04OC4yNywyNC45M0gxNDFWNzcuNjlIODguMjdaIiB0cmFuc2Zvcm09InRyYW5zbGF0ZSgyLjUgMS43NykiLz48cGF0aCBpZD0icmVjdDEyNzQ4IiBjbGFzcz0iY2xzLTciIGQ9Ik04OC4yNyw4OUgxNDF2NTIuNzZIODguMjdaIiB0cmFuc2Zvcm09InRyYW5zbGF0ZSgyLjUgMS43NykiLz48cGF0aCBpZD0icmVjdDEyNzUwIiBjbGFzcz0iY2xzLTgiIGQ9Ik0yNC4yLDg5SDc3djUyLjc2SDI0LjJaIiB0cmFuc2Zvcm09InRyYW5zbGF0ZSgyLjUgMS43NykiLz48L2c+PHBhdGggaWQ9InJlY3QxMjc2MCIgY2xhc3M9ImNscy05IiBkPSJNMCw4My4zNCwzNy4yNyw0Niw3NC42Miw4My4zNCwzNy4yNywxMjAuNjZaIiB0cmFuc2Zvcm09InRyYW5zbGF0ZSgyLjUgMS43NykiLz48cGF0aCBpZD0icmVjdDEyNzYyIiBjbGFzcz0iY2xzLTkiIGQ9Ik00NS4yNywzOCw4Mi42MS43MywxMTkuOTIsMzgsODIuNjEsNzUuMzVaIiB0cmFuc2Zvcm09InRyYW5zbGF0ZSgyLjUgMS43NykiLz48cGF0aCBpZD0icmVjdDEyNzY0IiBjbGFzcz0iY2xzLTkiIGQ9Ik05MC42MSw4My4zNCwxMjcuOTIsNDZsMzcuMzUsMzcuMzRMMTI4LDEyMC42NVoiIHRyYW5zZm9ybT0idHJhbnNsYXRlKDIuNSAxLjc3KSIvPjxwYXRoIGlkPSJyZWN0MTI3NjYiIGNsYXNzPSJjbHMtOSIgZD0iTTQ1LjI3LDEyOC42NSw4Mi42MSw5MS4zNGwzNy4zMSwzNy4zMUw4Mi42MSwxNjZaIiB0cmFuc2Zvcm09InRyYW5zbGF0ZSgyLjUgMS43NykiLz48L2c+PC9nPjwvZz48L3N2Zz4=;" vertex="1" parent="1">
          <mxGeometry x="55" y="55" width="50" height="50" as="geometry" />
        </mxCell>
        <mxCell id="aSY7YGyr1cNNzH9c-0jM-15" style="rounded=0;orthogonalLoop=1;jettySize=auto;html=1;exitX=1;exitY=0.5;exitDx=0;exitDy=0;entryX=0;entryY=0.5;entryDx=0;entryDy=0;endArrow=none;startFill=0;strokeWidth=3;edgeStyle=orthogonalEdgeStyle;" edge="1" parent="1" source="aSY7YGyr1cNNzH9c-0jM-16" target="aSY7YGyr1cNNzH9c-0jM-5">
          <mxGeometry relative="1" as="geometry" />
        </mxCell>
        <mxCell id="aSY7YGyr1cNNzH9c-0jM-16" value="&lt;font data-font-src=&quot;https://fonts.googleapis.com/css?family=Montserrat&quot; face=&quot;Montserrat&quot;&gt;Miracle Linux 8&lt;/font&gt;" style="rounded=1;whiteSpace=wrap;html=1;fillColor=#ECECEC;strokeColor=#999999;fontStyle=1;labelPosition=center;verticalLabelPosition=bottom;align=center;verticalAlign=top;" vertex="1" parent="1">
          <mxGeometry x="20" y="280" width="120" height="80" as="geometry" />
        </mxCell>
        <mxCell id="aSY7YGyr1cNNzH9c-0jM-17" value="" style="shape=image;verticalLabelPosition=bottom;labelBackgroundColor=default;verticalAlign=top;aspect=fixed;imageAspect=0;image=data:image/png,iVBORw0KGgoAAAANSUhEUgAAA9cAAAKxCAMAAABuc6/oAAABg2lDQ1BJQ0MgcHJvZmlsZQAAKJF9kT1Iw0AcxV9TpVIqDmaQIpihOtlFRRxLFYtgobQVWnUwufQLmrQkKS6OgmvBwY/FqoOLs64OroIg+AHiLjgpukiJ/0sKLWI8OO7Hu3uPu3eA0KoyzeyLAZpuGelEXMrlV6XAK/wIQsQYwjIz68nMYhae4+sePr7eRXmW97k/x6BaMBngk4hjrG5YxBvEs5tWnfM+scjKskp8Tjxp0AWJH7muuPzGueSwwDNFI5ueJxaJpVIPKz3MyoZGPEMcUTWd8oWcyyrnLc5atcE69+QvDBX0lQzXaY4igSUkkYIEBQ1UUIWFKK06KSbStB/38Icdf4pcCrkqYORYQA0aZMcP/ge/uzWL01NuUigO9L/Y9sc4ENgF2k3b/j627fYJ4H8GrvSuv9YC5j5Jb3a1yBEwtA1cXHc1ZQ+43AFGnuqyITuSn6ZQLALvZ/RNeWD4Fgiuub119nH6AGSpq+Ub4OAQmChR9rrHuwd6e/v3TKe/H6EXcrlaVNe4AAADAFBMVEX///8NqlkSrF2S2bRjyJRUw4q0s7NRTk7x+vXB6dW86NHq6uqq4cXa8uU7u3kYrmFLwISsq6swLC31/PjW8OOko6MksmmMiopHv4Hy8vKVk5Pu7e2cmpsqtG3R0NEsKCmEgoPN7d1/0qgGqFQkHh7l5eX4+Pjs+PJ8enq25c1ZxY1BvX3e8+g+OjuN17Ftamt1cnMIqFYApVI1uHTm9u6J1q50zqD6/fzJ7NplYmL4/fpVUlNxzZ5gXV4dsGQxt3JcWVra2dojICFdxpBFQkLW1dVMSUogsWZ90qb6+vre3t5py5my5MrCwcE0MTLh9Or09PSm4MK9vL0utnApJCUEplSG1ayj38Cg3r729vbKycq5uLjOzc2B06jw8PDF69hvzZye3bx60KTS7+BAPT6Y27nGxcXk9u0Ep1Lr+PGa3LrP7t+45s44uXdvbW54dXY4NDVXVFUCplAmIiNIRUaw48ltzJvT0tKHhYVoZWbj4uICplKXlZaV2reE1KsrJiiC1KoAplB/fX2c3LsDp1Rgx5Jsy5qu4sd30KKvra6PjY5PwocjHyDh4OAmIyN80qefnZ0ApU9STk+3tbbk9ewAplLS0NElIiN2z6J80aYrKClZV1gvLC1+0aYApVBqy5nAvr8Ap1GpqKi7uruRj5AkICEuKisApVFiX2AiHyCJiIhnypfDwsJ5d3inpaYkISJKR0gAp1NmyZZxb286NzhCP0AyLy8iHh8mICIjHx8kHyAkHiAjHx4lHyEAplEkIB/i4eEkICD8+/wjHh4lICEiHx/8/PwjHh8AplMlHx/8+/v9/v79/f0Ap1L+//78/v3+/v4mICD29fXp9/Dn9+8BplH0+/fu+fPj9ewBpVChn6AsKCf8/PsBplN80aUmHyCZl5jL7dsBpVHo5+cCp1HIx8fR0dGxsLAlISDMy8vc3Nzg398lISLU09PY19jPzs5qaGm9u7wmIiF/0qfFxMTv7+8IqVdkYGGb3Luz5czk5OS05czJyMiCgIDQ0M9raGg1NA8+AAAAAXRSTlMAQObYZgAAAAlwSFlzAAALEwAACxMBAJqcGAAAAAd0SU1FB+kDChQpJy/hW3IAACAASURBVHja7J1Jdhw5skVrTdihLwEDTHEORhhjAz7mhHsq3GtOpUgGGaGsRmLS7P+qUkMFQyLNrXvNv/6VkZGRkZGRkZGRkZGRkZGRkZGRkZGRkZGRkZGRkZGRkZGRkZGRkZGRkZGRkZGRkZGRkZGRkZGRkZGRkZGRkZGRkZGRkZGRkZGRkZGRkZGRkZGRkZGRkZGRkZGRkZGRkZGRkZGRkZGRkZGRkZGRkZGRkZGRkZGRkZGRkZGRkZGRkZGRkZGRkZGRkZGRkZGRkZGRkZGRkZGRkZGRkZGRkZGRkZGRkZGRkZGRkZGRkZGRkZGRkZGRkZGRkZGRkZGRkZGRkZGRkZGRkZGRkZGRkZGRkZGRkZGRkZGRkZGRkZGRkZGRkZGRkZGRkZGRkZGRkZGRkZGRkZGRkZGRkZGRkZGRkZGRkZGRkZGRkZGRkZGRkZGRkZGRkZGRkZGRkZGRkZGRkZGRkZGRkZGRkZGRkZGRkZGRkZGRkZGRkfHnR+9nz3+FjIx/ThznPI422pH/FBkZ/5BCfZ5HOVo5jpIFOyPjHxHjaO2oY9Rj1ZZ5nZHxT2jAy5jjKOXo7ZiZ1xkZ/4Co/ej7P2t34IdpnXmdkfHV4xxjd+H7P/Xo82iz1czrjIyvHc9HafU4xpit7+Tu/dxlO/9ZMjK+cvRWSmm04btcH6sd7cj5OiPja2f1sWt1nfs/fc6yE5vhuozM64yMrxtH3anMsmztin0cs/c5do5nH56R8ZV78FFpwI9axtoN+NypvY4ysw/PyPi61br1Msc4Osnd29xz9i7dO8NX5nVGxpedrYk6556xuXD1MdYs69wTd+Z1RsYXrdZM1juhy1HbmrsHb70d46i9550rI+PLpvXYdfnYPfdBTo/WGLMbo/bIep2R8WWr9U7m3muvo81RduHeP6Jq95F7s4yMrxhcqm3BjzLayS68tT1p17F/dLSZeZ2R8QWr9Wh1Z+9Rp9etNlYZgFOGGJWVfXhGxtcLavLY9RrQKHSPvsCdnX2nO0vylnuzjIwvOFuX3tmZ9WOWY5ftATZ8rrqj7ZjJ08zI+GoxEDDbjfi0797NeJnuxjtDdjPhs15nZHyt6JKsvVZDtR4cr3fF3r8468mM3ROXkpHx5brwsTN7lMEgPceiaLc2pGnWPXS3daReSkbGVyvXfbfdvUrwGG7E6xit7B+Q6R3RlJb364yMLxXTsox4wvG0G3EIH7s+18YOjb3ZmLt2pw5SRsZXirL2JE1Jrg2IWUN/9BgszJixj53Ua9TEpWRkfKnY+cwgzeHa/nu12USK75m6jf2TVtoxR+7DMzK+Tig76r3aBF+17ub7aVaImiR4B1E6asm8zsj4OtHFhc9Sy87kXmcXJN7ZlK09d3PYLkddK/M6I+PLxDFmA1IGyeNwoD7XnrOP06wedRdqpu28c2VkfJ14rmMBG0V7dFdlSnUDPsqwvcv4GuOYBSJ27sMzMr5MzFHHbrhbb4ge7Z581+6xsxsYKVIp4sTdimcfnpHxReIEddJq2RX7aKzOdlte0RXeDXgVl4L33rF/nvjwjIw/oRI/8kEet0hnmB11+SMBKrtA71589+ZHaYNjdv27eT3yS5GR8V+rxOcjH1Qha9W5y/RuxE3voHQdtbA0O449fM+Kwtnf5n30M78YGRn/nXgsDQ8FCuvRWytQMdfqtuFj5/gk3cnxsVv1+bf9PjAFyi9HRsZ/IcrRHqmSKCnMWlFPEDx6uDObs7Wzn+a7ainIGP7t+brtsX3mVyQj4z8v1nsgfqRed7rv3W7vRD762eb+2bmzuAU2HPmj2Ry8YWL/vbw+d19/tPySZGT8p7GTcT3U+zaW4QgqdNiZQMJxs++N4Zr+WW7XETu0v8f7YM2ObUh+UTIy/sNq3epj6LBzsiSrHX+9gpDCnqXFgs9+pfsetNv+CFhefw+XAkiVUT2X4hkZ/1FAt+z9kZG2FxBlrfTBBK0xVz1rWccCKc5gjEVA22363FN4/1uPmL6Al2cnnpHxH/Xg5Vxcnh/qkduupIfc6/GE217fv1Q8d9VztgIbe/9kPSGFNP/OfL2fL1zBax2Z2BkZfztOmVh7Wn7kY5mdO0LhMyia+xcAmS2EhXeDDmlzcP4KRsjfyGtWbn4SXiy/OBkZf7NagyVhm/1IG672EZiT3YcXb9jiUBA+QmbYnFxqhxd8P/5GH34CVevuzlpNeEpGxt8Kdb6PPS8/koPXonuCHx0erw+A4SVSHRnDPWAzdp9tHaWOX89rjmVcymZhXM8rdkbG30trJuvS60Paoef+UIBkJWTMdmmdx7Roj7HLNujSNY8RFy/O2b9erqn/INCrNto1v0IZGb8cHK36aI7Kj9RrdBMORYUFkwJHKYFGaUDOSGnq+NzJ7nrtl98QHQEN/tI6ZOSInZHx69V6Hj1QJMdjbThOe0vVcCo1q7GDUr0H7Z2JPaDjmoD0Puf4dd3Cvrv8Uw+gfuzP0I+8Ymdk/FrMUDECOrbGQ1QujbdaHxNfD7bgFbmU3YJjlgsmxV024zcJ/zd8cvsu9Wu/xOhlCUw9smBnZPxaDjEqTy0x13wkr2nD1S8bunrMEwP7Tr3e+b4EkR4H3lx7Okaa9Jf9PsJoQOe+oxdZ3SNXZxkZv5BDuOXpt7Nr7NND/S4lmAU4GTx6SCt0YGeU59U8gSFcOGM2/nXfPSSVFtxt2/n9CrXONO/LyHg4EB4UR0InXo+HKJrHKjCt6bX7HMWmmzv1uX+HrhsZcZbYwlJgZfdffU9lt/ks4ka53IGgheWInZHxYLWGo6G24G6ud5l9CBs+d4NcTObuWryx+I6LVw2oeJuIhw9a9QHm/NfeVEPEFKFTsGuoIHLBzhE7I+PRyujGmYtz33na1kNcrhmaZuTwrLt0H2OVtmi6Ay9uehegpn3wCPhVfbP9omzVR8DYFDnVhTdH7IyMR+KkyM5dWG3Gd3U9j4fymkJdPD91dRPYja3jmq8Hd20xaKW5G5+/uDfjhZ5dltXrjF12a99LSX+BjIwHGmoEgamKLXrd/hDnwzV3nRy6gKeNgQQS5XXsIjvbrtzkNV3AxIaPkv1r+TiFpoJ5mYu8ZiHew6IzR+yMjHsJyvi6e+/L1/Zo86G8OSGInIqZDFHgO8PZjo3J1D1KH6XtXxVqhmxh+8U71+mmbMbLA0A/zt1R1MIjIvM6I+NOWpfollldt1AGfoh7fcKenMWMO8SgVCWGJ8W5Clk5Lh2kwtC9M/KX5uu5u+4lsHz/Bxypa7Ry1nLMmbuzjIxP03rhyCF1o8G8LggZPXTm4p58xDZc373algQNRBD6tQ8/EEwxweF2/Upe795+T+6ldvDq9AW1+Mhhhq/7neZXLiPj4/SRtgG4pO+M7n0qJ/YQ2myK/N7DrjLh7YCq+ZLQR3QBaxQEFyjoNuq/9Lxpgl14Jpz7oTEm9ru6ade+G4LkYmdkfNxMj071owHfHXUvO/taeWh+HTjjQvo4rumabpzlNYZc7rlq1HNt7V22/0peVwyAxp7MRy+BDD9ORJU4fU1W7PnFy8j4IK0r2+9dDfeQjLKJ96Sdnc/3/+jOWmAoq9kn037vNETZjEZ5v+qFD8dic7WlktGv+Gme3r/jiDb03B1rdbCo+wESTJL88mVk3AqabmTIKNlB4aDg9odccwJYRoLtaqz66HVn9r8rYDTqbPWK3ScO2b+CN0OWfAXxc7/+fktiz6oCDqQ1P80vYEbGjRH2GobXEUpkuwknvedDsiSATmtpglBQOWrzNMsbNXxqqTkHO7UWjJC6K/rj9XoP+t6uj8XzQnnyhRPQ7sr3Kz5NVuU5Ymdk3MjMWEKh5Q/UE79LkOH8+JGHQmXdbSGdGlzvGboqrUAXTm2tXYsfmCRzsCT/BSrWflsM+vvFh6wxYah0+PQHffGpVx67MjJudLrQJymvsCxXw4ZeHuRjEsMiWJq4U/4LOdIRPntkeqOwctlefapLOvcg/gt6pPQOR4utm6i1uV+dlb2tOXDStV8+d2cZGW9m6wmnctblomtcS7Njofb9kMQw5dQ04xLFxQu82oE6KYzswetR/3tUcgWWHs5ran5kNa+ILFOJUb5TvUOThSdJduIZGa9iJ8kC2S3zkYUZeinDX3morrZTmAijr5QPxA+geOyWe3EsG4LEA2o6Q4K4/UJeg1kfJUhhiCHShXPl2o8jRcqnWJgUWcjIeNWFt3GWEA+tOy2Xuy22Z5TJh0QLrc6SrnkS7Hw+ngpLN4Br4EdUFgaT1kLrbCf6w3uzo577ebH/SAm33Xk8BSXlRV1hf94CNzs78YyMn9NaJHiFOa32ET1zV0i0PSZauNo1/u5puiOfwJTe1hJPovpKmWMIFA9R0v3/j+b1fuFzjnAWcJ7mutVtCeIZxDZOSkgW7IyMH3GSysUSvUfh8XIVxnEHhcBHkmWI/T6QIuUKXmvszLrA1BXAUSZ322XxpbWUh99eEFHmUkvRFL5efzhb72fJhFgKRC6/mhkZkTcmMqekp4qIAtMqCifnDNecB3IlVEstzhMLLvkiU6InFy19ucjBmI3bydL9Yb2UbnXHDoCO4NwPnt3mlyEspcY6oNbS7QVyd5aREWkNAhRUeL3647nWzqH9q2zNWHPff40psOwao4V3ln4A+NTPnpPXCPMe/4t5e5RH+/BTp91SNQuJVx9IDj8DctkTtwjVWlYrAwpZfkEzMi7CtesteVacrCswb+VI5F0+Uq/Jaq09aogJD0v3HowxwR4eu44X/4/dT9M0P5zXMkChaJLRxb3ZUVRhcXbgZ/H02Em/zoSnZGRQantlxaXiAeP0CAceSmygSh/Ja9HaJNlCtx8BJEmUu4IyBRfuzCdCC+R8Leb+o/tw0lndQ9r56oTNU4L/xxCM+xnaLKtqyrs/ML+mGd8+mkSKIcYDmCYSpLudPSVPiyB75M6MvQfO1rTuoS68nxWXyZ6aKzUcblffj5DRwb+UB/Hh3TfxorXyQ7b45YdVIRYGhwNU2myj5Yid8d0DcZMjiFhdsnR05V3Dao1z5iP78N1vW53nKa6sHNOGXOsPoNsv4iba3V/cjwf519BIOlVZby94Hrvyo5zm8l6FpbDwtGwrPpxf1ozvHSeWs3EU3oXaFKfDpbquIwAmD3lfY+oRq2+A20fwumadbrrgcO/HxGhlkHba6JKDj9Vr7+qNEWH/kTOMeGm6PcK1vv8Ccy4+Z5llCYEZeezK+N5NOAZaq9eC/i/jNdtv8xwE9k4UVL8f4V9zSF7HVfiFcYtH4Xo2raqhgxQ8DZ2wW3mM9/Fsy60E+QKt3ryfFTfjrgPUV+zkNsJN7vNTUTzjWwdYkSmJYifl6pd/hijPqrwgRbE+Nl/3WKWT2U3WCEAwL84xpPtKrMMhbAIXOx/KPjbnz8NVmYv21Z8P1ccdHzAOofqzcg9tFqWYerbiGd+4C6e4tZO2G6FP7TNHD7CZpy+QpQ+BM48o887SO7944aH7fPdgTS0da3avXdCw4X88PZTX2IZc+7JjSQvz6XOsc4RAg9KKPXb42ujSO2TBzvi+ab0Tpj7vlhjmFYyNMLv0ItxVLYhO+gGoB7LhoSxog9yYd9vpPbsrbgapS7k0VmAIDR6P6ZuRr7UEYLSw11NfqZephBrGIt0N3Vx4atdzsRHYH5KJnfFNo3Bsnpd8aKgiTO5bc+dgzNhjp2B7SBKQ4Xx/cC27164hSxiA8wrtipfT1ycUzqB1ASx9JK/Zrbcq9hyOGPN162zri4O62uFtlHgczYuGBsI0Ezvje4arahkfvZxN30x/uuzO8Y1fe+ZuazyED2/gQ4CMjMCTBn/kLOLPDob4c65FocWKBw3Ch+ZrIWr7+cMIXcCUxztklwapm7Vet68AZ7r278wQO35o25eR8Y8L2mGHVIZo5uEZrC4n68G1qi/uwuORDBnq9fdo48lAOnI1j3b9Hs7xfh5Nfo4p0fuhc1SM+XEJr/EimH21S3ul4vU1NBxqU52zVsv+KQev/BJnfL+QPAlXGgEzBld62mOSkuFnqxB4V+zswbra3EQPLuJtTpyqa2y5EEM6Ytjm6cG6nJ76gbw+V6gJ+7hAAHG6/G7U/xU7d36uzvCu04DcGuj2iUdffpEzvmEXXmVf9NhAtT1Zkx44coUWyWXCw1z7QAJWBcgUH2N8hiW95+lOIz41oV+2zsPCu3sDDXUfyGtcOFmsc+VShQV986K5X1zTeB6V1oWHc0SDIDqCfJIjdsa368Ixra+CMz0F78l3V0ZOXTjPgwZtsYXqvZcH/D6Q+1/zPOFgV2r2ywH8ILF3m/xs4g/z0D32Q3wSzUMut5DDh82Blfa0v+CnJ03AMpnnuGZu+ON8jpJA8Yxv1oXPQZaUJjFzlm4SF8RRglYhXYoU3334I/5cYE+Bi1T1zMC19NOOe6iA5K+2ARZs7qQ/C/659/N6LjGptBH7De+c7osdmjdtTcTUVaT8+4twWMC+7N+YLO7SFzvjm3Xh4XGpD1eX7ujqzP/U2E5duoV1PcR8jCsTWTU1AdJNq4soqVrwFK9nK8p3dx12P68t0VMsWQicnrWdx9N+jaGQOOV59xUTS5Ef/O7dikwx5T1FFjK+VZxRkav2G1PJXjx2FCG7ZIJPj11rd8ztEW2hI7pr1m2lYHrNlXmWFaKF5+IIdUrVxFdT/bMH9uF8vOrE3MVEwgGMc0c/7MSpyv4FAsIKPrXEQ8AZP0fsjO8U9rCgPAJ1HVwNNRAG5Al1geFKy6jeFfuBBiDm2joBf1doVtfmmnNXU1+BXRp78Bpbr0fwZprZu7efu2+fAVV16J8jTLXrtPveVXyqZ3ju+X6IRA/H+xyxM77ReH15Ue/vewfijq6+moLkwzOUZ8ZhnD/gST+yuEY0Ic5OvHYV5cmGPAQbDolXsUgLYgZQknsv2kMWDR74fsEY3oeOn/TYyBWKRj8UJUcamV4/poBDZsjIY1fG94m+dn0jZwFrNX11mrJhOlcXcaWLwzUXIwjVD7xkLQp4awIgW7JdTJAx6zwFhY+rkvaAnt+v10oeHfEIuvbhXb6mv/C8m/CqqtLVcfTw4hsSvl84o9mJZ3ybvFa432bbXRdbJv3n1+WwVcjD+nSEmmF5wKHrnAy06PRrimsT3tUuBnBmIjdn9ViYs167rzO8P2738y2qci2R1WMIEm8DVaWnPcOXALMfHYHDMAvgpk3X4JMmv94Z3yNAglHaZgnvDVbep9zl1UZgNF0+LRWI2Ig/0AJcZBGF+2kEXJJVlVPsvVlm6d514dkeWGrh1DML7+84o/6OkxY8VBrOqjnv7IFoK47ftvqKJbGg33+B2XPEzvgmazMgWzNYXC659gxdjjDFbdd+/MliucqujvMBFw34XGj193DBs713w0WxPUcPmZT6ojq4S/i4uw9HhHBnJzf2Q9NeHg4jkGtnmXFZ65oE7WfSOuK+Ve0ZWi/95A+NI0fsjG/Shx92zN1UkTcdGkaFlIZJrdQQs/ZOI2jPD6SG7lj07CzEVx28SlzM9uTd4/Y0AvoZNp338eHd8qzEqE6dPG7mFC8+ppRrgKMM2W0AQS/FDf/oNVxA6DjAvmXBzvge9RpGVAU22ovqIjAo2i6tuxY2hb9txcvFdd7xSA+geEnMwUzYRYvrQwFgV9RD5QNgJDXa83t5raLpsGuXvT2VQXLRztuT6cXzydf3iAYNlHFghe9ICVvdmomd8S3yWvPJ3j35VhDg5AV2HasFcGRZdnf/zAasPKRcaB6pZKbvnpoKlWZgp9Y6AosyBIGZhbs/vpPXs6tBqEMQD50uppTqje/HtZ0rSi3wQb5l5BKnci/SVuaey0eadmV8j4gD8lSo3661esmuAdu8dAtclc91lcK7r3kWxE3Hi16/idwucCdyhXvs7aqTqhgslfNeXk/EVlQsWwggOT0MZ4fp0esZUmnXVoTcZuruVaXy5qluyg+VhZpf84xvkdcNbbMiKWrh4zOFlVq4d4IOMZt9nlWaVHngCtxRJBphfblCVbhhmAc03E+Ds4+bNJ8iD+ghctQ69eg7eKFL6qj6UHo+wibggqgIB+eR4RyvG99EQAXeiE+EBIpnfIM+PBgaLSw4jqBO04WPXZ9pYdmXcWOKTOQj7r7mmJdb5twvI5ak0jDHFQoVBDN+mPromxx39+FQzYbr+aWmKeDw1TxjI5HmZvwM36HjUoXwgdGmEFnEX9qV8jWtAjL++dG6BOYZuT3qxd6CU+E+ik1XCW6lGbrG/cWZKLNouqf6KyPQnSO2WvIzQJuzpoNyOe/5fkkkkWKNdmGs4+RfCg/nrV6f8HryFPKcD7lQMOWCl4pBa3nFzvjHx85T98yQpBbaYUzCeGrOJ/KcCbWv1hc5gn7YfKRgU+eXELMpToRk2sUU0hVSLL0H+ZPxPTgid+5cZ+9Sv/b7aAFEkVk6rkfFElBKQ9Gt/UJXu+a8tB4BZiX3AbchtZZf9ox/drBJUltoKjG8s5GdVqmiO7vUD63o9w+XR6qHLK900Amb63Z59q2hZOg4rgVa2HbVErX2Xl7vZ88IeaMGOqZL2m5aX8dijCXAKL3O4nU8DIRqaBvP2YqwOY3+em7EM75BXg/4lBpQTtTIqrNqa8skqBZFwCoqiqlU+oC0At03Yoig1kZwumiaKf5nq3FJbiJJWHH1u7yPEGAjc8WgUrEZnC+BxFHCIFATH19vCGFF71wBpvDn1WKTkSO/6hn/+BiCOVAxOV1VjyBWus06du2u2GH3a+O8wvTqgXqNyYde8wNW5lwKjo3QGJ4qmpFvcEDRXbiHS9FewNeKs5weXf2INV+j8463XFVUCZTNERW6hU+foDMfBPklz/gOBZvbENyqUYv3IGHhQ+ECwB6zXlRNAV/dSnhXu/DkiWAX7quDIuFWvTT+aAC43ZgF9xqZ76N8/nISw630xfMYLzsvaokKKQ7qDhVrKeYUsmxYgxZFGS8Dz+zBM75HvbbkcUAKw2h232F+TaXWhmec6BhVmRWVbLybHPTgZcUC6xIT3y/VVpOPxbPjJS0X0/f+6ad57TxtWnKuWkoshV7xUhZpYAmgNIQ4l1pGeP0JSykrjECrM3Z+wTO+RSD014JSSattTYRLuefXpjqCuv0nat1IDQax8u6rujJjIsZsIAQWwIs1fKkFdQpB48khZLV+jjdzme6k71x+PGnQRfk32+eIHv240Cn683lqK3qXxFqeZ0xW64zvkte2sTS2Q0+rSI61Ky7kTYoc9+2Q6/YYxm/ffdUGTOQIYQWNr1VFjHU6I/U5AjvOfI0/wOc7dhJXNyGwJc4LTRVxj9/I/nsA27+1vHJfIqjsBWSH0BKgBrMSQprxbfL60BEHZDiyItPcm7vZDRl+rHCmyuEKk2nYtTvguwN2l5hZ1CuZ+vUMy3MHBgorurOqmx6pRp2f1uvneSp5HHct1I04dbUT0zCbc6/uXK9HuHXStyu4oJtuxQJwF/GSTXjGt4npubeyMkMFEM9LTCt1wKHmdpfJPRSS6lwm/t1+9gR+ag9sipHAO4PNzEslhUXajIsXONbP8jrsgEKkaUC0Dt2VZSvP/FzBvK6w/kL89JrFvZdPZQ1pPbIJz/g+oS286oF7YJ19rOn2eWlB38rueJX/Xk2UmFjS3dLefVUPyo7QzNazB0XjiR0d1jtwrzpu1nwgF6vP8vr0nHUpJikufHrkGg7sx/FiAwDMlI3cLtO0AJzrdqov1+ctV2YZ36wP14BLBX9g2/3KHwXDjhArWh61dy0vwbW4ryfEMWuATel9t97zgpCgXlTZTx8z9IbraMH9/CyvSVYKdqTvqpfNUD/DZnfqFKSVwQQ0Lr6torxQ9OOrHNCPnK0zvlMMMGY9uFw62QXeeqi4DWAMtNYl6YnZhqIj92UGOYkx8rbwl2d3DV8aJTU8bGc/FWKR0g3n67MXrMzGPGRChfSwG1cGEd6lPQQ0j7ZKD0/t/YMB6L2rj2zLntU643vV610yRwFiWemMz9AkiXqtK0fB6+4o/bL6kV953/Vj981qF9u4x9PCPmA/OZ5YvCmD8NRVLNXv8rOeXnWysAbsskVJ2XqCmrmOdByzJuZd5WUjsN8jLr9zhNNffqEzvlW0evlmHcH8mCP09GtAuDALWBdx02N2oDHv6n3vD5ur7+6eYloio/vx7Ph7Um4HAgnnBO6GN0j/dFafJwswRBqKlBHfyzlrl9ZdXxSF25LFxY7dmXyBCgfhlozrjG9XsPseg5dOuDvF+qj9SuJBnzvCWlrV7yn1yxo87xdsGRmjzbOgGLqghMXJWdw4XLHrCcFW6zM+11RC4UVvdOmpSVfuSH0ETNy12ghvA8FyqqdpzLd/OzfhGd8uFo7Rl68laK6TixG6ZmWEAP/Q4hZuxYizlNvpu3k9FFRiz1WVHt0J+QyO5Nxdv7iwaO7H7q7Bk93b7HFVj8YBGFyM2xfGbCwPdbiAooCGIovbuCqU/BHF84yMf1wjfsKvCkvprpMdZy/tNfmlpdVHKR6n9MKZhUXavWQ5ZVYWZuzmzdtl+NQAO1zuS0grDHddn/T1rOsXx/U9KuP4+QIg278EBB1vj3E9KC77kIkL3y7VxcKds3XGN4w+osrh03WVObNxSPaQzKXmCcrBFZx3CyT5vbzmkjWDOCJae6EhCEJVlqWI7j156zo/PuNpnv182iP1KgLCr/3bZdgnI4wlGTrEiJkt4ak6ftEk7Im75IEr4zvG2fT2YMht5LY2ALs77o7cq7uH3qWRjTlDcTTAd20/VP6nbw8mSVMb2KO1Eguu5YSvgl5ZvXz23AkiGa9SWPEFqUxR4YmWMBPCDHcxAKN4A9Jc0JaPkWmd8S1jhho3A7RXol0XS8BGhujN83BjpbCRSoGhUHAXIz5Cr9vm3fMWOG0ALmOtgHAjZVQFf45P8lqES1A660B0HHGHYbmWNX5Jn+5pngZjdxkrNFUm8ojpZZ/xniPrRQAAIABJREFUXaNcxrWsrR1Tq1rbXYV9qCDruGzuIVG1ixxy31GL2tp0Bqqlyw6b+nYJHNdEy46AzvwzzbSyGK15L801ekBPkSSXw33C7tDAHhRbUDZ77Nkf2AJkZPxjCzYcxks13HVTCIWxrD7CnXKMEAxuKomJ/Gh3RT1P2J3d/wx87xA72I1Al5elXApt9YKgzYLts7UZE3hcr2qPuVl22cFm3Vl/+rDZFV3kub7XoGhGVuuM77s4sxgzByshviKvKX2qlGCGLTyl25TrzAdZ654s6f4TrLFHUDunBGxO2h3PXeWRZqlhd3l88mJdK6/QXJFzgvAhtVqLrjDRHkUJpHYZbM8aq/E0AMj41nlN8ml2jYLgVHf7KBKazSf4Hhy19y+uVkJ9ZOfpvWLoEblgf92UGbRSj3h+jHZ6Axs26u2ThpmHyjnCLDuALBTlGgKLaj3gKtIUK5YYGjJJdAopPJrxncO2G+glfK5in63WmcXU5TVZpAI/k24fmGLet6I/28sC/JLybwE5Q44M8giPiPAOAOT24VNncK3GytfT1kCK7bw8/Viza3fdXbsjnhY1O8Cm+ZXN+NYD9lKpAKIGi61iLxujq4bxyp3Bz9w1vPew9OF/72zET3XMonE/gv9xIFQ2zqEaYgfUBmvTo9TH7TyQliKk5dJrGYqT2qAv38cRTtee2gcmmuipZFpnfPNGHHMu8jbgmiZ1PR1gmakXOuI1+CG7cV6KFLDBugdN0SF3v/R5iBrxpqURPVwssakHvM0+1ic6wzNUkCfDelGFpQZHvPnUkYtdQyUcbcSFmV/3IfBr/wiJSsv4knF8MmAH84nN0+pIiAHbbJ6vFf+G5KzFHUjxZqZXmZZ3PiOjcFvacOm7UbXK1c5v6A7U5GooCf7xs6Gj69DrD0eg4zqhuxWQKN5/eHT/RQT5NTzKfqzl7jzjK8b52Xf1ECGuZ4Zaw/rD910cn0MOYcx2htRJme0SObor2wuixQOUC2rOZrVPCu5u6HEOWsgMt/AA6R8O6RypS/NBMC65oxZa5kDY5WvtVzzDSwzVJTr++WurcHQRk/WV8RXL9Sfftmp7A8wMuLZKZgI8djqd6C08xXFrSdNcx1Ms2u7VROkXzZRGxL+hlTIuk9zgfAQtm599WK+PGSdzBJjm8bzce4NP2bO+NtvQSZ/CkEv+it72v5ajPCD2Eyj35xlfbzn2idYgA671ORROqNjCuA6AnyPW4lO8B1Udjx9BoHdB4m66qsJHPiyG87BrrUYhDiNrhvYP6/VcU0I40znwVdgohYs1mkr4kBzlWM9zsFznuuU2vLRf+qdhlz4RTMrvkoyvltaf4j6lV4MU8QxsWT5mcK1lZSME3hcS++W4JAeD3HynvUUGWFP7GQpq6qMBEtdEE5KlGy98/T6s1xdNhAvXbim4bekjcLgFYKMuG/t4kRYurOF/rVhrC7L2e8pOPOOrTddzfN6IarfTgG4J54pF1ElKVnvvXjyGHVFxPUL3eytxj9/NA3hQuPaTg+u3UoP7pZ/00kNd7eO9mW72L6M1vC18SbC8DfEEWNjIPdASoPrCQ+mXUOEA30ogXnY/kd8oGV9rvP7Uzj18LYNnreJ2p+tlzA7zukkzzgyrKWU/6Xm7VK07SaMQ0aDQH6BGp5cvZAfZtvcawJXdPX+05wpTgSkapbtQd9JHPAmoq765M9QTaOlLZUT4lbJ7jjAZYtMO9i2/UzK+UrnGLufj39a9Fu0wdtRNVubRyv6WX7IdKYs0z8GEhj419cc6zjuKgGy9S5gJlOPCpYARA5IqBLSiUrbn+Y/y+myhpITyysAgpCg2LmtTTMraxX66xx+7o+Cz9F/JzXk59Y6TQ9rsmdcZXynAh3xWxpASJJkhOO/k4TzVu5hxOc6765U5LUSbkh7g7FLu+NGfMfay/0Y6tI8acoIKJBWEyllpn0iTfpTXSgeLS2HSliq6nzV7yN4jv85bdRZEEZFtqsqT/koPHrTUrgoDriQrR+yMr1SuufR+9h2+E+VEaRt6dEfwbHe0u0lGKDgqGo3wOBUNRmefM7ET8+dpREFu9bLs2w+HbpLuDnyUEmZd1GykHD5am7Ufy7u12wQeD3+9XhV2ViV3z+oQXn4BPgowBj3kwJSPs0kBze+WjC8zXePA8+nxh7Y7CBaK7pO9Q7c8mlQ1By86xZzyp1bY5t7rervFvVNaIW/vaXY/Qc5pZ64ueV/Nk9mH8zWjNcb0pVOeTWVwMZC5w6hg7TqrcT2KiHU+XnAlnTY6fd0+RdLOlDnM+DKhVMn8dMmFMW5cqL14sRwjs4u9bXGyHi6opFRYQy9o552SqDk1/+k9wOfiw6qLrubnbKg2fPAy4E4uXGgM5qqDI2rGuk3/axApPD2YFO6ruPzUwygKo9hDD6Td/lRIruX3S8YXKddUtPqp+Y6w6omJ5qLTJePoT4WDDQwswZJyZ+6HEJADVYQ2no470K7Ycvk6A/FBZRAXLvUTMtYMotf8QN/skCqCjdBOwn5a4Oslw3KEgIp+2tfPfgULijOfUk/6kTlakNznkdpJGV8kBE3fOTZThVUfC+A1WzIm4Ar7o12kCgokFl4M4EoljLsoLfTI5nHCEUNTkHOXNgPH1Bezviic9A/Gax41R7z9GgU//Eh41BxRvTuYOJ4Z53wYZ0YDwYz/QmCrF4/UZUImdsaXKNdrZ+Aa9/Ia/VFFSM8xaMt3FZyKKUjBYgnNqfh0ZMaPVoGVfkcPCRR5BXPGU6KW6mU8Si0l0habTrh/MF6XFprmYMzQPNZmiCeMZVpeWPjdu457NCPd008N74WnsuivkFEp4LPnUjzjK5TrsLhunyoXeYAauxZLaa7tnKJSWBHjzAG9QnUTJmPt7tYiIQFy3vnkl5Y/rfvTETW2qQdeNcEElvL0wcPBZTjGmGgoKFp4aI/bg4HN/sxmukvmfjit4YlM7ubsAOspeoazHW6isyVQPONLbM1IH5Fk/U4jTr0qJegTTUQp3jkCS0VtclCaKCSJKlno+XN+Gp834kfIE3VP0PUy8VM1bU/Jc4Zv5+23FvDOeba6QgJxv4FWVUMeAGQmTptAxOvq9eH+Wc9NMG5izlnglfD/DWWXs2ZiZ/z50c+omKN+fumqlw3HESKhVV+fGr4dIkwBaapRRg4V71ODXnp9+lQZwxW29+b5l9+u8M8WrvbtI9/dLrjTJV44CaBYXOViln5JPbQAipX1aDKeGgwIlHVn5p2NRYKGu7b8MxM740+PGhxm782fJjaOHqI96uVH2dUWMm36DLd4NRKIhUHm7shxAfm0YM/ubQw7P6WV2tzjftf5SyutjhbSbbzZGXJq4W+tKaC8zilppEH+UCZthijig7nofqAjqjTavBp6tSRYvce962gpspDxp5dr+l1uxqt/7hjbj/VETSyek3ZlXC7H3SW5Ku+IBh9rTvdMtNVs0sbnh/F/2T5frxR2tjw2oH0E7pzGvs9yu4WQHbLge/ImcC2oc3WP2nFu18EXvZTyYFoLtSkKPZWuzQDVmmlDrRXgqPgBZcHO+LPjUJH/CPmiTz9yDQ/LsJyjc4/9sAaatqjL7rlfKv1xceIB8OkC+SxREW2bqZQ0D6DMdKtWxKh9wPvo4bQLkGz36+euqFPL3V3eSzkBiLMDH7GUe/gpt+u+Iqc8VPzHYSMIRWwn9gCLaouQlM2MPzyvOwrCKBKMzy84R3ThQ2qHq2iVRCRHFjAqihiwwF5+kJa3LsKeP50D1EPpWAEwrTNct9WFsJUZDrzj9io7HiWwQ0Yr9Mpd478TDfMLvxbvcWfjQ43z1HaslqB8roVK6uQIz4PMlSAqyAFwyyt2xp/cho9d6p7i6jvv8ItnkLD1zQjnWa9eKPz6y2v1/hR0CzpiVlrTVP9UaURLjgLmE87mUNIYm4F1ET+6g/rt99NZZrkc8NwmqGx/PGC3673yhMH1+qGNmRBYn1h97ZFgl/097DNRM1IAVSlVjSZH+GzFM/7gco0bZR9lTK1wPm0vTzHYKAMPlVHa2S5N8bKrIiTLFg3suppXVUvq+HwcjUG8hze1HgO039cSeq6mkvDNvJQrKjQFU3s4IEs+plM9DGxJJbbiD/1TrHFyHavcqFVP7jqFrurW/bIFEv0+sDHKVjzjj43GmqooVKKY0J021fOWHzhCoKRXBMPaGi/SYhfG5fDwBGSEofxTUHWt0QgsXp3rdwtHnxaJjpvuB3uz2NkBTZN3IvYMFHt4kbg4EP3WHlELP9md70fWouE+QrsFGKt/hRqtOPQwYaW8bMvvnow/tQ1Xq0wNTxZGxz19E8S+uz7Yi1MUrAtacWGaMqkkhNCUU+2Ys58V/euftgx8yH7JpyoQRJKXqcovs0FrN/O6B7saUFqIkmLSE4JMvMTq19QwH5IVdg/YmPAlavMWWmg5iXJpLMkVcBuUc0nZeezK+FPzWkWwnYMnA+1Ors83Z31qPKvi56CUUe7rSU53lQvQAFVvmBqM2igEDnrW47NC2YOh6X9dGt9x5QpvrVafys3nwehh0hcCTOzYsBoRMHMIbwUUfpRHhuthe3F5cErQLHXNMdz1j7K6Yi5BePE07hEtv4Ey/sioYbM14VP7v5+furzn7rZUUnK9HHIQAN8TunIi6whDHk14VB/U82736h+jzngodDw6BXQrRg601UG2KS9+3NRLIbfIXZwEzDP/vB4+6qyMS7PlkTlY/+0zNJKlooCBpRsPydR+nDyjWgzcPrc8zmViZ/ypec0IuXpcZY87nKepR3VRwIxeWw3epmcHtKcwusVr45BmGSi2Zof7qU8Q8JHZd3nEDYAnRjmV+pfjBTD11rsCBxPgt/4E6RttE95J0ya3u79TRvSBtqW9YEZrX97ie0g2UJrLGm4FGdTROFuh7cZbHfkdlPEHBsq7FCVlS6qAzDsT9skfaW6zuEftjCutL+VHfTbQc/vjNUL4rD/T4J6faXm65KqhDHwJGYWJCA8EEup2Xh/SrJio9ztZLgBlaWglAFsDNYSHNEQDc+eejQSuTtnsygCWg4IHBFeP86xlPDsc9ECyp1VAxh+Z19bo8uQ9qvBdfOcua5/aFSdtXTXSaQIdoc1fd7UtgV/bGVaQJhZDptbhJ+u44FmDGtNtl5W2zn3Xmvw274OPGQFv61XrMN5C1zG74mTQYI+u+234BFOuq4FtA9vBwj7cIWP/ZfuMFf2sl+3g4bwRBLL8Jsr446KV/mJQH351uxH9vASdx+VcOxtTMMCUEpyRFsDRIEuC8upxx56x/KqfvPChKycPA5t5hdJAnlW9OsilfvutHAqZkMl2C0qkHEoeVqW/6x3M+5XWomcUXwn3sTnDCSCW4SEnw18FyyGn8PYcmBdEiPO7KOOPq9fCLGyBLUlyl+/8kRBNWTWqaQgDHmJLTht0yV2rBiqbXtYj2H4M1E8K9hwOw/a+Ts0qIfAretTeys74/IP/29XWwZo9+DPVVzYKl64HpI9mrOv824+4v8OyDqVVe4GFHuli/Ah1Jn5n/6oX7qPmd1HGH9eGz1ajLl3G7xpbfz6LdkS+r0JPSRYpRnkLu63j6qiDGcKlqajQ+9li+vRqFMcx8aOU6ekTQU5Yu1UV+TQ1jlOduxsrvSXAzJot8nPdR3uGWHIXlMLakKPAbsPXYndQmw8wFFPmZcmr7xhDC4C6Y840vM/40+L023/1OV0Fx9H4Xok7XpDXHQ3TQ2QWNjkrvHEPBVBURZrx+uqquG/+5DUZiimwUbObUFUya2K7129t6RFAWy82nLyHqdBapXnHA5Aj831EivzOZyRZOFYzT4sR78o7sMmDC97AqwfvDeRKyKbrMNJrmvtk/HF5bfMdimUhjk35HZ8ng5OmF6ydTePUDbOFAd8LhUqbWxklmE23EXXuk5WcSdnVKWmqKlArZw20CUolt+o1HgI8BnaF5n8Y0fdUfoKdu5KwrvuDyJ6lK4WXJ5EXARRWRwjAhIpMvfaALMFdFrCs869YWogv53dSxp/Vh/fdI1/sp455Xj0x5LljbwsJm41w5PBOr9ARP8K16+zq8peO0KiVs7Y4P31MK+khpUR+CsumHy5j7SaXTdo6buFIu4qhRymxIwtw96CCz1pYqJ+7EblbrSuv7lPHOzgPCcE3ozFSu09n8b1OkXkuzmCmqMeyu/CKK28W7Iw/Kro+kSMA3s7ZizS9w2p0dt7ZMFEVAbn5ozOndioyfARPYnfCq+hSK0CkrPZhfuGu0dYqTaUSy2Kvll7G7Vu6Cu0ywEXDZc/ifbj04pZdS73ewb3n2hyxCceZL9SUXBbwFpaPDbQXQ9TMi9oYIR0RNRzhpaaPaH4rZfxh9Rp4SdcHR7BVW6bUndXZal1sNt2rzwUdu3Yexupr58lqkB6HYA82bUVhow+xX0zFyByu4I/Awa4zSJcsvG89aYTAjqjwbLwCReqbqYBAycg7f/0ekFH1x4u+BrIyVVysS/4Jr+8D5LIvAu6uYRBNicqlHrTzeynjz0nrcmVR11wWRrVqgec9LIeyKa7DaX5hVhYZYYyoTa2R4guLE7EFH7NIblwfT/o9ym9InDQaYVJqDPDYt/pwTb1KDWIGzfGSOhJme2Vi43enW/HqTW4qZSw89LrdsRt7inP8ZQzULjK243YZx2U42Hgc9dQxzPiDYoyLneR1SV6jyXrXyGoXtqiLtUJ0YrXVmUVxz+kXvbHHyynBgP/diP3c+VHnENhuBvb1g80lOASRgxt7sz19z7g9VXZYbK4DGAOgpSDVcu90PdVJhH3J9ZyjGX8jnMp4UIhQEXqCqsJxtqChqOrSXAKGpV+dOvnmd1PGHzNeqxxOFo5WuiO2M/EeLO8V7KUCGbklVG16BnoS4q0X1nO9YKBU7d2GC0wT+f3hM8bplrNwSCx5hPa9sSMvN9ZmKDy0yxeX7ZUY9QC/MRHMO7lWVEvUvGvxUv5bNG0OhK72EeLFgX7Zr9ujt5Go1nxfYOO4dfXZE0+a8cf04buqrR+k54sj2SPB7hXsikhow1oPjhOaJg2iZbvE80e51sWxk0OJAHXP40MxApHpl6BZyJlPkzrm9xunpPPqLSBTenKC6ynkcwSw+94ZnuHAHryLzpnKkC6ImSqEN49/tPXYl3HWLniYHPiJDtFwrPfszbtGQvn9lPGH1GsEsYunLsbGddXXQEreyYp6xrGXa/PSsQt6JjunKN9coU668KZIAa06Wy0kvj8YsAOeNlvBpD4cQOjnkQfd7/L9mx9euen4V1zIl48mPcNcdH3+d4fbQaluAY6PwbrG3Z19nGtwMa09WJzR4guUjV1dkM9D3WV/8hyxM/6Qet0m1989O+5ihaHlCBzoxCH2vNeJc6TuhSuTO+SAkZBZY2G8sWSHQLkC9VGPMMf52FRE48xLPtQyXKaGYJ6Y2q16rX4DddMbsp9bnJhKDnfevxt3cttt4RqYB7hoiPN5UXu5hifXfhSt/Q8y6yWWptxSZPwBTVXDTpAA+R2V8SfEsyr40CgR1ofWUEod57PuPHduN+MS8h2rKGQ6QkcBG+uK/EDRqb4WwC7AVqZoU7PwAy/rXsO7rwlWR4iIFnfw3m7tzQCjrxh/d2MAiDXoVzsPJ359n5ZrxGGKG26sAafTMj1HDeUkkxelU+7YDBc7q4PTFRtC71tcyoMz1vpsD+qyZGT8zyMWQFap4ndplUA9XRG3O534GZpD0K1buFSzWlaz0MeCAgWolexaep7Kg/bQJbq9z+rh7NGeNOQ8Qidt9RAru5Gl6htIL42BfNfNc6mUyqj/+VNJt24RZpAwd70XcfYUssXBBb9QsTHduwpfyDQMirMwOoZw/gFGnPbkb+e3VMYfEGeAIdHVrTaTgjjREdg1aN1jFgvLZj699sSIDRZw5mT2uJDiI4bk6m7O69FOiPP2UOChWGXup34GqWsqErz//32Py33JJTYgcWy59/9Oaz1yK5+mWJdcUlZ4Y4sbkyfSvPa1YwbLlMV8XeEcUp1SQMrgJ+gYfmhQJktlhj/CzBE74w+IERVnf0NOhIwEUs1VZD2As/58YDxx1JtH4ESvK1mIAxVbcARFlhpoItDKYFfup7z9xNhJJVLTd3FZf2GwVd0438jrH1Zguz7HDpzN3+nl+dNn0qVA2McKPGioG/YeA4CfeLH+G0qnaPC123HNPiV8DHYHpLjr8xbMEylfOWJn/AF7M9X0p+4YB3wN/fcmzjnnfamzf6F40OPkfQTYLE69ITewjicO2uyWtfTrUV1dPN1s8QPtpWwKWLPdIK84ZLdbb4UUs0iyXxPJbQVtYQlYP/9rz36WcfGp6VCCfT7I1lCEIpNVEB8hQC5+x2t5lR1Ta1zfaBP4Gf7A+/GTNpsZf8J8zUpIDoelFw6VbS07K3bYdwib/2rBrMYxr8uVpGXtVZn+gHPs4luAcs2iwY9ID+r4uPmYcLfWAoh6XsNsSI69r7/u4ScPpcIELlqE9XzY645Pp4+QevGla6iawRRx9y4jbQWEtUj3PEXKSUepgTVjlzZfhJbKUZ7o0AXLtZqdeMbvDi5IfLMqQxCCohKL1QpUpK/c6+M7Ovzha6s4mLqe01U2wvplvKCtj9hShU7YuD3+1mfqXxWYst+GqK9ok+f7PtxdAKoH+P3p1nuc1PBYzn02XOvJq/bxKMe8FFCGQqqBNA+oWxF+tmqYEkWTDrvF43h9Qu4htnbVi9uQZFpzKZ7xu6OE3pA5zV1H4zzBF5docDnuEqKgeLAcButZ7eQRKljCPS4lJJ4YQ/2UGuAxx9pbeR3gD5CoPCS08bjwnet9Xl8yRz0USSc78eW7oYP+7Fmkc0C/aGByry37Xq6O1btGCSijznAuKfWyC1g19Igp7C3MgjoaEEPPbG99rZfn/MbK+L15jfR3D1KiOvj1LHCk0P2BkcXe9x46hS7ZE5BLJqhbq7te9ybMBCzGZKjaMJRiwLWu3aqockVjSqdmUidBjbNve49LORU4VPJAqmSHg3HZXX5SM7sPDJ4UapTvZ1lYkqB9ikHolJDZuc6ZwxclOx4Aobvqmo0duFh0Zu+pPAU8r1ZnuvFl/O56vROyksg/zlEiJYVNdzFi98AW6pgy/16G1c9SJZbCSKEqfsRN26q4wkmXD7jF/3gBZGusWwR9c/lCvuQ9lkXo6Kocxo9yzcTh8/GpUvKLhGod9tkerNoqfk5xLfPkR4E8O3Xia0HAxgfE7Z8kTmu5tJTqZkHqmrizVEXK+L1xTPJmjhqyn4jo7qlRdEkNkd/Z7hG73Jgpb1ZXX1O7rFUu65Am0DNESoWqoOsde63Vb6y2ygxxFNFcq8V+PWb2/v7Ns6nqNM6lXUJkuw3YafmZeomvT1vvC/PkWVMdpNGnvX+g1dyglcvuQA5K46h/0k8Uxnk2dXP/mb7/0iT+yyWA95AeIBm/eXEGvArkVdQZe8owdya/2/4eZf11J7Fdp/ttT912+GSQPi1rTMBxq/K8PSLZoT3fKmuspT1Jk3dgvutllHlDP9wSGZTO2BBAHW1zfurhfca6XJd6V22F+Z0hXc8fOgO9rmsorqj0wgqcy9vq0dUEQ6aqJsF13W3EccxLT507XlbsjN+9OKuea3fvCgJ6KkVUy1Tg/wjBhDuJzcQ6LnRHFPmJIEERglmUWKhh1cUngwXpAfiWiNqJBL/qBnTzPVZu1Pj9Qu8+rSu64yJdjBehg+MzNCfSxXqDDFWX/HM4k0zQLO1CuZRjPjvXl5hEjiPIadMxuoZwKqCWEGId7RRR6khTfRCmKlLGbw0RU/E9GrOlyl1q/jV3XGPdlhZ7lWD28KOHpuduTPnTU3QphrraBSheKgdTQZRBebyBPz+hSoESqU1IytAUUz/a/r7X2POvEM94t8HcEKf90Tu1nQhWZZht+9RxUVZfcGZHSKXwSb1uC0Gv9vsjrILYeo9almoOcbxTt7QP5RrVU85OPOO39uHCoNtO34I6IKeuGnDo4GuyDCr3vksvnHTQJS7A2SVnhK+1DwhY2nCxdwM+L6O8ncPvHzRz9+9HiXVbsLgjdd7hwwF00g5LI4uF9RFA8eOz4VpsGKrmKp8O6Rtk6X56zR6K5cvjWjysILAo+XRBVvvxohUVGHgxKkzlmokNXpeWPXUMM35rvdazpoZBfQ0KU73aUa/Y003vPfGuaOG1/kCpYBYBG1y8Wj8x1wkaNSvoI4oeq6lblKsp3EsGNcnKGspx//2SudtCn82nRHhcSqT8RCP5BMvenjnitTADKcGnHsPCfNkHKcZ2uEZbhyLDYyKwHhqNVfkJ3uEYPna60/9xmf4F6wTxlvzuyvhdQTE8Y98DBTvkAcYa7I6oqOr8nHxj33k+wIUIC+l2qY50QeHTdbKqKi18M/hlFYxQ3x/ve3qP5sovAGYr8yJVt/K+ZecYNRyNXc01pA/6hwrl/5oBbJ01NEV3Kj/XH2gZ94UNkYWFxNNOWevwfhKUBVw+lmsqo1+3O0GzXUzK8QQXW5W08AvLETvjt+a1yyeq9WyXxO+xrruXuW4Pzbfq56/DfakprVB7YEQOMJqlt0tUqGpu51KMcRRXDu/aN3JPG/ux+mVSq28YjcT7yt6im79sqF29r/4hV4XBOEzDmnrkwFT3sL3bDBrtFS9yiTiNmLYvOjkybUUjhOZvs/0vgTcNuna7dng1Jmw13WYW7IzfFT1G4jmFh6mmbf41p1B+wP6KYnZ3xAYrdiGvoIS14quWpq0d9yB5XJ2OF53uNiVCvb9edX85GnaFf12rj3dIda9QHuhQUIwBl3ydHw/XjMtDOoev7TZ9CpFznz0K/JR5WYCEzb3I9hBg8AFXHB+QTbpwZ6UWgXRxxvNxANsV2mgmdsZvipOheCruw7fn/IGfYnq85MgCKX7vu5TL8XEZXZMETslnSCC2S+qPPdTlzeEEP2/QL9U3O8WwFE9tIj7qe+2kk03f0lnT376tAAAgAElEQVRsjxBKnM265+GPOoszTEl4I8/dQ7XFGTq4DG9QbbpouzfkVOd7FY9Wg4IdI0a9jmsKtIQSUgiwVzVWgozuXzyX4hm/Ka8r/tVnd++rOIhlaMzRS30ZIv3BGvevXQ7X47LahJk5RZ/bl9NYH+oBvjhiL1P27ff+CM+OsCGpT93d2XFDsKBdxjpVcJpbcQfnDzeE6CGjJtwRfAq/T6dhLQwW+jD8xVe7zLvprtd1xlJU5gixF/5Ke55Qx0WKzAk+bT/JSjuuC9pwM5h6Zxm/K6LXDeZhe0FcxDnHzlJK47gUAe+8lsByKyys63C+cq3dIW7svDhFj1xkKTQIutSot5M6V6JQP1kV6x/s6sv7jh3R0KuE2g70sCEYHzXhyEXQtYdykkZipcfZ+ww1iSEsB2GFcMFeNaRgbPAv0htyKowVy9GA/PaTho8ApX//2ryOhEcyQDJ+T3CdfW6Mpn6Lz7hmHyEsNEV+I//fls3nvR1cC95ywEbRB/JxwIpM0rUUE4br0Ue/3ILe402wzZHxWEqlyZaNfQN1OlwL1Biz1QctuPV+8ObwE2TeKOy5sAla7hFC1ZjnQmfvV12/9Rc0u/et4TKOG/d0t/iist6rJzAfhAiutB9k8eVNoPjvkd9iGb8j6umWiG5XtiJDtZecfmkRBolRwOS93dnJgL48Ce0PXqCqo61vw4VVTKiLbVoX/tFC0uBNP3+SX6ry76G/KqPIk+JtH77iNgUmjtaeLJ0f3q7D72twjNLhMyaF5mYQpuaq56rXI6l6sbvG6VPMmTd9GGY1ONaC6K7lQ1FVbbfj6KNJUZnxsPCmkCN2xm8p2KrvlaGH7YhuUvb0EK/B4GpRY+tc7rnORtfNbh2oxktCjCh+2uoqwXLVdbVW3h+whp+uvThramjNKPw2r1Uwqc8vwFCz8iMEqVzyFl6BNOz9J3jcaMol8v/jZaMntLQXzgOXJVC3+QgHAMRaF8IM9PHNwr5/3sSq+RM2+HK+ONvn91jGb1icFWupjq+HWC89JlUIIENrTJZMnruCtvsiC5HD+0PtbmO5xeq7qPQJDp1jtKQrFs6U2P5mH9aFZHf4GNyDsfhq7xbnJe5h6LEtO4xQZPigKyk8vC7xiKqG6gIid5QyJI5x6tqBBQFIkyNMy/zHiHXBoLmecwBBbQXrAz613JH9cc8+0JBwQvMRpAxM0ICw5fdYxv8/NNx7mWJLi9nYKIqPtPCoWnGnqvfI2CEo2mpUfp8TkigW3+o8L3oTtOHCrF+Pk+Pda7SrqLLaKuE4/9b/ejcET/WFbcW4vJAs/ODhpYNIg3jaWw/73XDUlQqKwvBqO3Ev2yGq7ckkbpcN+TNO02e4gYz9Gs+zT/VWuJVV/BBqaLdgbGTTco5mW5DHrozfEFAXlC9oZxOfgW9dL+OCVkq21L/KLJ/3jl3/EtZCXUaugWuPyC6mdsw319D8I+5Stbhram9Pzn1Gvi5p4eaUi703n6iFiU+FcNlAepaPnDpPU24idNLDrBOhp37Gy44lj1oJiRVw0uCF6QdUQzwZ5ZTWlE9rXQlmbwRiVKoL9R9XhTFIc0RXxMxkvc74HSEPkk4Tkb52iZpApoBISb8My0nF71ZUMbqX2N58cJ6lyuNmF9RG3LUXy7jzsEEN4lcLxYXXAzYFf9fEVYKEUtsTi7O39VpPWzkpPUTG+0dNL0TubmfQdNdWYU3ITI+NQKgcjXAyIPWf6lyrOpRcth+hnVDriR8JG7/Z4mA3YuWIXuHuTsKtKMDvwGvy+yvjN+V1uRCVxdTgvDwvkc5+ER93bp2qmKE6dt7pK2eVWXExJELUn2zhJow93ZBHQkYsUWk8QF7TPyasUd2sNdHmeiUZ/H23Dsd78eQY03J7O63RLlrDziEqLo8caeYAQPcTCDefkGySnvJygVOn1c483u7oodI6WDXqiB1c7OMFVEf/7nOR/cFMTErG72zEw+NSY5t2CfkoXkjetXB+R7GzSnbihnMPd8bquHj6AezhMbgGeMSjkpwv6nYLtw2Wxu3NW1JQzEtSF8pCY/w2r+PWDGMcx/l2ztteA/C+nCiq+6+leKmtwjou4vaLXIKwGScAfXmiWkM72T/nare6z4Z+XK7bFnh2BMVK75HwooKP/MbK+L15LQ1KQU2gF+oYtcuz3Xm0KXQyVuyG6wMUELkdMWxyHK/PbJ5puZmD+UQTSZSQ6y5dVaJXLxkfHmjuw7tZ3Q+IN304Bp0Ng52nSl4h7XAbk4KsIS2ErpfBMw87eljS/SXNw1fkGolpMbqyb5dtwH4748XDtwQqhZ19QWG1KUxc/NsGHS4rdcafMGBfEAvwGRNARUCk49hbRWfy69buMNy8X7HVM20tLOanOBUhIPpqHPU69Ko1tNT/fvVggDoy0VfhdPQUsNP39RpICmJqeNr3PQ+3j7z8auzJ1FdhARafn+teDysRZ+LKMcxlHo32uATbwNlo5eG5u2jLe4Rm4W4i1gjwqieAqbxyLsoy/oy8dn0UZgCF9ng4ZK9urXVfzqbr8Kg9gq1V71RsMKQM1ZBGlnNwUeefFbatuUZ5TLNVCtZrR2z9dsPxLtAjvMbbrHUbXV8cepmL2+20Hpd1yYz/AXCiffVS06XRR5CPCJojvhZgFVZh8eFhPaRt2JJiwhRxCR4i0hDI23aRPRKFkvGHxImmfhEXtkL+qPYViyQWTayWYBmPS7+gnRAg7r2mqXEJcTcZHH0Wb9ptobnfQ9WQzrxwMX596vLE5EZetudAL+FtH958b47o/Ajdl5t5DS4MnYTLd0eQ2hGAcDXKl9pNLXTOQno0VmOTq96LYBsgVbsZkz5WD4MtgrBbRV7amZfqjD8o1N6UmIF++CizHD/8JoWOg7TaFXdhNBfT9t1r19mDB8UMCy07PG6WKBVQmJdtdj3bxWl+ZRIwQzOwUer180MY7V1eH1cHbEHt9eZ04PFqmny72l41WsWE0sIHt8Yqoa4+SowH0QJI2wDqVoCwrDa45PtkkgQSj6j6Ql+puSnL+MMiDDbUU4BCgQp+0SUyxuQZkmXtx3Y8IF73u/vxsmHHadb11KXw25TeF24SwA+G2p+fFPyGwI86V2+B6HzXh4P/Woqdqi96kxOJha57c6WC5yVeXusTlJSucFE5wgBMEmbRxYiHV1V+DYPcXb7PMNlc4a3nO66jtRfq2pHok4w/sBGPWw+jr4cl1MVI7RfrKjvVRa5DUR4qGt2nFs9LF+gIKyzh4dEFyKpivg5ShZmxe/Txqtq3mF/Dd35n7nrrp3kpCzuBwzGd4+abkGntbn7yzFqu7VR7mMHywAqQX+DU1/THFCS39rOmzycH7aUnyECl1AN1t/F2sd/bUz1zqM74E2NEwwlYGrDGCjSYlxw9n4uaAlITn0NtTO/Mu4nd4+yD3DAr6/NSETo6d6lCJQ3JBn/pFahksnRfx4ueEOfkt202t3RkjFp51vj2VsW0iQ7SlnP2EbtuXt2bVHFDV+i5YyGuBpJOP916vC7bsuFuzBGixTWrqJXc7wLmMzJ+V9gt74rEFQfeNGfeOqU9WZZkclpxZwvzXHHk99ZEPhlaHIvrvCCqVt9SbMYpd/O87Gfbz629xOogaxxXo/tmvhawPsVrhpNuv/kO7BKKOt+yrOM54XJwRjPBZ7i8sDEukJeFSFKdZ4DTx8UVpaDP2K31Z/VVj3Wm1XXGHxvH0yFPyfI8jqddXcvcmYJsqEho0ZPkY1Rx0JtttrszNocjkm9KGrmkhoe1+eWKPYf528FurZ/eUXEWNqNHC2fP/iZly3HOFs7Xpd1UFz6BszRm7CCZ031jqsWAoYxLWQ14C7pm1m0W52oR1yB+hBeh/y5a4TakEmMbzj9X7r8z/uio2tmcfL8XCM1DHiNpqN/tAK4ZuGcPS/NpyaAu91rxKh8rFtaRKFXNhvaixqvgJzOtdfGvPAGOvuh8TxiYrM1nf5vXTXDcEXX/1jOGCV55ceWKGlxpbUm8tYEbW/C7q3u3McJRlFlk9QCF01/EpStEHtipD8/uKkfkVJ3xx2/Odt6UGmqF5Pjp+aaBBxlBbKAZD+zzCkldsuSu3uaMuXWSzXNP1QUlhTNMbfX4k9KpNuhrSqP4UZy85Gz18Y7PdaoKjDYTvtVHuVE7L2lgZUvIVjfzHqjOejG/R6gz7ca7KnR+reKm8BkOfCM4rJ6/VmgIFzQUe47VGX/+gB36mW0hHtIvnV8v2mEzCY+DyiWnK2QJqgDOe1ujoGMOpYejUO9XPWfAP2Rie9Gu1/Wo/1zpTSc63+iH39BNzmClAFxHyPvGMnyEVn8bQUEhcZdCCGqHh8DZBZWNSQN4/O4MLj/wC+DebRs8ck//lxV9NuAZX2PCDrMOatgwxTqekHx3lzGe9ui5YtBl3ySqExSaovp34BgtuBOKN9QgdPEpPDbx6zKZhXMhlfTX7ayH/wYLsf0WChrB5c07ngzYKi7OdSvTjujB0TsS7w4KxR4E67FxSZSDfAk8TpWLFUj0S9y/Kh8jtLxdlGpYL9mAZ3yRmPAdVl9cjjqCodNtkv6vXa/KsIs+QnPz6sSFmtypXTgMaE95hFO1y+eJ8goGAgdE5kCrxpLsxxsKv0sEVVBO5D+v89ru4dz9N/uvemPY5XM2x/QQPDn330u82AgDURsOddPI/+laUP+hFiTsgWxLvOOTPj3+DmciwDO+UsGm8F32r0LBlCpY18A5QkHMtpWmtpTF2Tnm13uTZrM4AtvS6kf7upe8HhAnQjsN1f6/eu1n1Q0KcM8wrz3e4FLOsCbRf3feMvkIRy1X76zv0DNp6gTr8DHX8RyqqS00xIW3udzD46N6aI/nVx+hIzPONLXO+Gp5jR/m8tzrqcfzk8Lcwkviequmf59dLNYRVyu4nXefGQqPrFiWra6Xhxv4KI8iXlZoG7S/uugWmBYW3yFp/roct0B9R9fwvohKQfPpNORjhos2jxUVCy3hVaiZhjuHGzIQKaDOjuIDiNMX/yS7cks9ybE64+tN2JcYEJtnduI1Flr0qmMUJuBVNfW5qIzRm+tNd3crHvexHpg1QV/BjuSRgcx2Cxuh9tOpiwdJwMtXL3FIft0FHJeUEbla3ldr+/TgUyt3BEa0BO/yMvbCKNeFIS9VdOwIvodzdPWH2P1dPOwkdmR8wThH1+Odc/EzSXixlrh1UcxtZQPfrctts1W18tZ7AioQtwCEXGJgwKzLkCgmDFwMSK/41v11hj5VXeshxYD/3Rs7aaos5M9jtlsklDOwcsupYmkKdlE0gn2KXyY6xVoF7KQes78kMKyzeE9V/bUuVyzH6oyvGAiS9fZMtpTwni8FLaC6vEaNtRRBGEfcvSIF6lL5f/Tz3oiNqlBwoCd2A67AER0V3rVgMjNdH3/BvMO6btoqg0Jd7e0+PM7qCjCc79O6XdriNtwczBeXcEBn18KAi3XAbMSKTxViVFY8QKaxDhj4eQqqybk646sW7OAdB8byol8H9Rq97DNM7dDyC8vMGqqDYdBz1xw7dPsRGobwUYPIXILDGcyOdsYj40WxASxZUVFBWPY7fFdUeDmW4/3WrIchtY4hoT8+y5iSNVRE8GzNJb5cNO6CKBuNiKyXfoR1XpemnSvwjC+9OvO+zC7LVdQ48a1C4H8hG9QxlSTbJEfA1pTYNM6qIME9S74ijOXFE8sDl6uzUQRmL0V6wXS+DOst/HH5tPsDIZy8ztw+xLbcZJZ181PWSCBOQvLEpWAvSidyjZ/aE3j9ClshkCcqFl/WYGHtl98aGV85r11JI4A/JG61KykEY3lLdteEhAFFu4Xi3/FMWqKzfyexuYij7rdLaVcMEYXgoaY4WiQ0wWVB6Hx5OwXIiEwruZFvdJCCkEW6lvdtONTKMo4Q+L4EjvXxBGyz2IsxTT8rkLq84Im2uejhoT28n2E+ufIbI+OrF+zhN3o3YbWEjHo4Ma7Sl45jleJ9DrYiNMv+sFXm3W4VwyuO1Ahzw3imOC8fGyzohhoKPkTGywAdO2vmAryF3t65QKDapr9Pa54zpwM07X1rIYhe5v5oZoka4JhgfyPdVgOqHh57pzbZDX/6li63GV8/uCxRwpo3rlaYawuXrZDprIrgc3eaYZkX+rs6baFJ1O/KisOX9EpWZpydfTq0y95+Mu9i3nM9BzS1Lpf+5/EWb6YOhKqK7x8o9NjHWvuRM+JU3idmXIUcvvZp0tNUE94JrNKyzLW+dr9SAJqBvMnLVsY/omAfV+e9VEppSgMLAx0qf6FX5lppVsHil7pQt84Btby3mVOOF5OsiznVQ5+QYhpsK37vGpcVKWV4HgFgfb0Ppz1fcsJ6He86gz3uV837BHyPS0V0J3pXo0UkuEr+l+V3C/tQLb8P1c12E5K1OuOfEVO0tsp+SpGIGQew0cPPRi4lju50r7u+Yl9j1YyZdB7t3ox99cDV3dziqeDrAm5pNT7xD6HwIkW7RwaXN3wuE7YsWBnvNI/bGRAyMG2IlXtV84VL+F8r8cBQPWOxz7ocxRUUIECg8Qdyrs74x8S5J9Y5lQjehbqKvuTagw1edMvRqCMivi7LWV2tBXTuj32+t5obU99r1X5XPa+jMam3P++KQ1T9a8CuR9Ga6x1WtO/kHf04y3tXoeixL02WUImYF8xt/xHcN2vIK+xP10dQNffLP8n6Gj287PN7IeMfFHA113EhprscbAT8mELHcTlRL/S8XauV9iIXJp8y7Dg/fX1q+9nVAO0X7WI4PTc5X7MoNn5cbTtIUGHcCyGl13mtgYgyaO/ymnJb2zPvHF7mFPaN9CCLgeeCepnbM35fL2C86SGqrhA8bimakPHPiiJJ8axmTdlJgy1eczDG60Y5z4CXKiEU2kYQMI6nopXX/HwtPnton/ACxVtZva5LwlTUIts5dnXtlFzVBZFoen2/Jh3Zqpd3y60RV3bmAhBlNY7jUy96Rf+F22j2oW92f74WglX6Vx85WGf846KDoaT5XiEjumva/tk5QqLM9rkHnAN2pFaXqIZSIL16HXe2Z+cICiS0DwvrCAVB1urBDkF1YUbq7s92PskMFYv2ejcG+Ntu+125trXHv/68LEtQanOLdj2UdvehlnK9Wo/mEd1bd8mszvhHjthSJBiDY/DsTJyL0fT4obN9uUJ366AFVwaUO6rj/X76zeuv6VA9l0KkYcWlx+UpZ4yb9LhqsoZYQwrWG0s79uNFScXj7YMJrnZcphFJDLFz+muy9njqI94+N/MZvvR6CrqYn3mwzvinjtgzzrsrvNpNEAraxCqnzEChTfIPcjZlNoznewgzIEDyeWIfITkst6t5i6olDKl10ZCsPWIYV6gFSSYub6/6cOVBXaO/ffuKIuqOyUX6DECb3Kww1q2XjHlX4OhakPe5rOKZ1hn/0AiY9ogsaEvhzrj0OpROzaRVzBe9stRXqGjq73pOccfg6tNPAGeMQsq6nZPyEbwuGWVVhdLYR0OPPDhFD+kor/dmWt2yA3jz4rYZHOfouEN7UTjoohcoHTPbqjlPv9SDpaGKUUl+R8Y/uROXUNHElp1FMUOPxSM0Oy2x4ckTlu5SoBlTF1Jh2vN8LtjJlVg2tJRn22Jh41yZ9KDlFazsQZIsgSEp79ptP/ubNy8AdvfdU0kFnzIT1NoaO5QtH7rzcB3fAwBWuFXc2pi5Bc/4R+/OAmM54/sea6waZywvXV0FXgWI1R4I2vQyQbkR9XAA+Oz1scLu2vcxzCNKeHrQ2pP1qS5x88+fdAELRJsgtdf1mvzkxP5GKuW8njWjhr5iC8y3jC1X4dHxD47ucrrsOebzkZN1xj8+sdfEWXLpLUet7Gye2wvTqXSxZYoRhLII1A2hHuOiZM/xmeoZ96RxCfADyZbs3CLNeOkRNOwaYBKp2+0NT/NkFQ8R600rsEs/u25JY9qKMPfX2BgEBm283NbsOQpPjv0XzazO+AYztlsteFZz9vlioSm1itb2GRGj5t6KWg2+pLhQ7tZEUGrj05J9igULkxwg6FzDccRG9mwqMTaGw3L48e3PgOv8q0eD16n1/GYkrmusqyJPYHLzdC+3VFMD7j6DUo3meJ0s+2OeSIZHxrdIbOnV4DurVMg60Q5cEjTnHNQ4T0ROuayfUUlYNNIgRf3N/pmyeIu19DzWqdXX7voBm7M8w4p2NwjHvwJJGgbXwMlf53UVp/amK/ARVDzNIUlW61JMtAeto5UTCVQfVL0ooBLeJlmsM75HyOUSfBn+PXo/RykG/ClhAhy5mV9FhR1lhKhhXWvIYf4sX3xZR+BSQ62ko1CI7jAQ9Jiw1VLcU7SK3q91C5FVGH2W948jCrzEFS0wR3mRWiqBp3miJQ9t4TjktZ7FOuO7xLMWVWPoflGccwV0IMZd8KhyXsXIsr04Si8d8kysPQ8X3YA+7sShUVaOXIJZTLPGxhoUWVVgzTRF86Be/M1XeR2WXcebvUCcwCF5kb375U/+Hrt0lwaQDutfWeM1/mb0BTOvWxnfaHcW/C1V8QVuaITdptffsq7aTCdMsoRcAfP3TsXSz4B+Pn9SsQ9h4lVymA1+rMfVHyrqF7Hc1vwnBE/6G7zZOOd4w6bs/eXh0mp0FvttlPib0E+MGOj7JUGqpnkytzK+V2IHBZtO1pwFL4K0kO33HBf1EfLTBTkV8HG5WiMPHL/9cWIDQi+CztlRhzOfQguTZwjaxTs1gYycYa73mvehxVB/+5IU5z0kPM2wDzvd36mutCv28jmiEGN/USbMYp3xzeI8FDLD93mofWC61QK0DHg3YK4ll2Jom6tEUostF1JCVc+tVj7ezQkaC1sfUJxNXjYGnFzJGbB3s4xGmYD113cuOGa9vmvDGe/3Q2c8QS0pRVtQh/cxJLM4ZVvG6wG+Lb/KGd8wsXcST5hRojj2UFo0s9sZrpfdHrRLC+8frefJ9R6G1TtBh+yu/rHsWbQADOm6bJ2hJhh+Is7081804Pp+YOv5ug8/FGR6vexj693ZsjVxM4z4YlE7jLRu5xGzBSfxls48Gd8zWhjrkS1SNYai3PTMaJaOdnp6xqrulAaJwEpVRyg0SfbgzLLto8Q+hyQNKjsyLW3Jl5ZYhall6Vyz6tMqHqNe+2m6AnuN/Ly8O5ymzxLjs5C4ER4fcTFjrY9nz0gF4YzvO2Sfao6NgH7tnrnTL19u2BdO0800Jj8Np/pjhFXlD4Pd+jFCpfuhaJ2xomZHVtySDfP7aC7vLqT6Wz4Xp7A3iuLYf86wDhxh3426ywj2lpu9S8xwP0JyYZbxrUt2kJV1zQFP6g77gOoF+Xq30a7Mli7wS1kE/sQZ9M6Levlhw9uDvFXDdDeQYaBdxJWoDdzhaqDHUttrvBlj+GsrgjCsV9UMFzBtxGZQTFadZYXvB63B8P3n1zbjG0dwqnCqrkqKlMCNsioLS55YqmmGGYpomG+xxr6MdFmOfTRj9xA0oSZfljoaeVU5XMc6+ayV4xUQtP7mbbU3ea3zJ/IuCBCWSHKUzPACRZ9pV+uFLBo88ZrcrYzvvj1DTN+t8lRBvIglQ/FMO58WTtQdBCgMDfdsMqZ2UiG00tx4f/DU4AkQC/Gw7lo27uj+1stzHom14f769RNhrLfKSDjPH0cMBl0rEFf0kj/RPaxXS77reH5ZM779jN2Oyy2PNXicvELpk42XtZaGu1jBlS4y8evp7WrAltr18nbFdhE3WhjlKpRGNuvRcxmATUEvOG6/ymvECV9xuc4ZAqf9WHN33ez29OnxNREbbsFJO45UEc7I+Jewryb4eyycadccZdl/t3CprzWg4VF0O/jNp/DemUudBHiZH2BKqcY8MUaBFipLUwAJMzLJWT00q4L26gVAn7x6VACIq6GV0GMPx0HcQYBj2iwSPHavXlvSPDIybHrnCA9KL0e7sK55qDpCHw2ae4zAXJ+SNWsAUJud9FrARdr6YAHNno3HRS3RiFtip0zv3kN8DKwqgkmv93lvaCU6+45DtxKhazNwrnpx6uPJJVs6S35BMzJe5uBDASGUxUsgMONiBHl5z8Bns90dMYKjhgAoLU7aiCidZ73divfLoZo/NxZAcIXPlD2ZGFHTUYfswut63V9hQKc3NWs2VtnHeDH2G/rwnizunfqf84uZkfGjFx9ByQ79cLdTU3KHhyQoXh3xYAwz5moT3Ip9MI+DQIvPDywDQJ33C0+iw4A6CIzr8TkUS2Rt9+pPM7P//PNZahFo1idaTIBc5F0Hl/uILoIZPr+UGRk/J/YIojSgcDdnYcO3irCRhnQSe/HCZm0ICEUx+OVPYefxgWUAR28sdmaLkxr6wPI9p6SwS4n4dR/+9u6138caoVVsOyHOzG5BmMqTe75+jBytMzLebM9AhGO2A3cZYpQANLEqAsGx5nGmnagNneobKGO0BHKCFDlv5ZUu1JcWmX4iHLta6A8yoIt462/yuM5XINLwCTOXfRJUtvA+Znj0KP1Psc7ROiPj/SSMT92c161ZKuYSKkrn26VJm2AjyvMlvHBoq0HpHbeXVpI0xtJut0ZqXszpI9Bt7sRe3a+Vc3g1/3eJZytII5JPOsED4bwMC3JjlpFxM7OFkpWgNC9FPs964c4aS2yJIkK7Rih/d61vR0gYMP/eqthLoYNxiSO6M5PniToLG/Ei2/LnrNxtw8/leobuEuacPGOUbEEAWfHiWMoho5pfwYyMGxHYzPpDlWBNeFVNdhTpqB7aEfoqIXzYFPnXHavVQLXceNlYvrX2onx6KJMYAkmaCCHB8AqXMl8BvHuv0LtQF8YHyEP21OwDT9ygoYxkZWZkfFCxu+IJkqIPPeGR/e7Hi1LKAgCKAgMVlh35Yt0Ny4sqHyrFNxIbUfKqAPnl3Ic1rh5BAFULP1qv+nCGgZ9+ytENbuhsoQxeL8jMfhp4QON5kyuzjIyPM3u0mKz1zwBDsmRoOn1L3NAkW672jA79BW0gq2EAACAASURBVL3Zdq5iIf++H+7B1ag63MstwVmAFnpOF2rzfJ3X3Kf/+lmjie+qoegSiFaTzbxclBFFO790GRkfxzFDC/Ry+Lgo0kdYyLcQ+XW4RjepjEv+UCYGAHB+/32OnRd4NIy3m1NxV94ML77Opxr9VYH/+WdngFgx/NQpG4hZ73K/gbu1XnITnpFxp2LrbiVNQ2dqmu3VaHilWIRLDqPtiPW46/BjnrPvvNc04IZi9xFY8ImvR1dvwfW5Vdwfv8abvbbspE4HnNWBfpRWtDAIp0wJ4flly8i4m9lcpQ9oFIdypFTqsA9gCX25ZDYJm+d0Bt/lFveAXuNI/S6xL6o2JzN/6I1r+XzwrNZeewC89tFE6FgIKY+Gqq2usua8H/r4rNYZGQ/14rThllU2aeDGd99ctMhsyxI5bInXi3ceQ/dUIKmzEXu/PGPNprNPfDiPiwKKVPdtgCuv9M36+ilVJ8Z9ta4xAtTCYv4IK00wby21UTIyHqvY9aJlkqgrOnDmZ3y8cNQ0o4qcD5rxjuAwYmOzMPzOXXzf5toJUGyyJ/MeTk0/FTipbL7qG1+Ao5w/F2+2Zfu50aamQyz0VgknAGTEswnPyHgwzu4CTYc7m16vWTJDUOMfXKK4eV0g74XBAG16Dc2FXdnf9gAnyt/AxLTj2k8FnTpCmByy96u8/tn3mr085gFIl8m+1s8+OKWlZlpnZPxCyUYNeC7yt51hjqPaeKj59oF2IYztSpeu7i8cagftirZ4fZfX7MjAhdfAuaBUup747/0K5bUvwM9LtPNl4X5IM2GkrmHTVdtI8GhGxq8N2RybqalSLDDVWuOytFaa5IKOqWZ6/fI8rkWYILC3E/ZR1qX0TU9NH+2JnFU3bcHPef380x8+hZ/S6HMUgyqCD9d+nozJci+/UBkZv9aLA8kOjULOWjsJ9QfYo3IJ4NcI2sY4EBYnqeFyDtGhxzsjS0DiErpGD5YGmzTXZ8BIR3t9sf7rxzLDfVZISUEXJWhds6a1dUbG3yjZNYS6X8w1m9Lc54G4L8O0HrcdOCcFdc2hRHGzQ27vaunZQkFJgQYJWrtkn8Je5ht5lJ+WaFPFw/Gyx9uTfQlECqprmdYZGX9jyJ5KDleB4aElLk9jqFFKocWBkxNYtcUuWAlIBxnrPfBsXgiUUF45Vt2dfdf463hjnvkTsuUSUFyh+XCELTZQmJoHroyMv5vZFTvaF1fpI2RUQJDSSJcZ/K+YxAfOd2F9NzXwa2+kQd19XVKFqCAeYdCBGArPhFfPk5/yurl1x3KkB9WTp8kx0y4zI+M/6cVxu6xO0Uu6tfgwNMsuMCjMjT2IszuH/THUOCrm//EmsTH7WGGxGTZfoa3ADuxVvf758zusR3PAK/cW57aa5tYZGX8/MACYml17bpqj4VAbzvNHeHjsX3gqsUrbw2/ZM/CJcunR1uvif2UxmqYiX4qefKMiRfzqzvXTo6Ah4tDKQlStyvSMtqDmcJ2R8R/ECNu8EEdajsceqaBOBmOSNRiSB1WjXa1wRXruyvrmlc52yNlgWdYDCdrFo7+SO/mpDW8CwsfkuOXVesUL5+E6I+M/HLIVJmltYdEB+guWddd1oyrq39ui717KMCyt65Uz2WP0q6p6FsbiGfjuYFErbbTL/1lujwE9NJBCB+lQh6HsjiA9uDIy/vNevMWhixF7idAm3+opphPvnLFTO7jYTWaHjfbsdb5SPABWUpvW88LKqfJthd3u7fo7+UxBwD4vxUN8sGvNr0lGxn+hF1dGxWJNroWrJfqBXKraanj8cN9qiBrVolo4t6z9x17N6vOgo25ndZuOLtrQAbfdrNeA0LuuIq7BqxhUDXvyS5KR8Z/HxNdj0Tkv9c7q5c7DZXnq5XHoGAB07Jxhy1dDi/jnV9EpqLID68OXqy7R5xv/6x/PgTqhZiswHhIK9P/HmSeujIz/TnjDhoU90EZptcD2qL3in31ZXEvZHmEFguBCfNzPSPFexaKE5PBxgmnpKg7frtdNSZQVzb3XMDr3M6t1RsZ/rxeHJIkbCIZYdXfb9M+ARqriZiqjlSV6uy+yvPrj9dPurHu5RscQNdPpEdynwM287nG2Rq08vDK5ie8Kn1+LjIz/YjN+KKXAoAvVugNHmZHm5TIJGTOAoTrZYg3ECvsnXaQDvSShoKHQ0AJQPm7m9RlmnCJh+ODSA8+WX4mMjP9iQNNgMV5PV90IFgoFQ1VlulETmlLL8TQ035LAtXP8r1eYPBo04GxqM5jgz7f34We/sC/C0hf40fVKSyUjI+O/EF3OVtdTC2BZyIfH5ozsG5hmqaZCQs8XWvb6eUxHDE0R00uApfb+gRlnbZdIIhiWS5xpZLXOyPivRyRyB1bS5WD3olFfjTzmrt1cijXkBhc+Ibty/1VjT7y1hJmM/fF1rYGy0Wvex1+fi5SfIXgKWfPcfUF+CTIy/hclW+VARUwQJuplt9Qj1mW1zwCGYujBh7UzbLN/oko/U9VjsHZQZxM2xq0+vF+oVB8ajvEzy3VGxv8mxgjP++i+MdnZXfQIFiXoUjr0eQn+H5K7+L+/svXSVdBaS6cvQec38pUOAP/tgQDTtQ7Pcp2R8b/qxdU0KjIxigac5eJ5KHgggqSS3B2Sx9IwYP5VhdfTqCDVRLB1/Lp6u5XXHUMu4KnwuTXuPWeW64yM/1WcXRbWjDU4YJVdnxcHq7qwsHV91loLijao05/UU2i+lx4Dh6onUkFuzdedCTzUzWRqr5L+ehkZ/8uK7YasKQmK5kLjthydOJNzLK/3HF0CSE4n/qMVhzdSNMQOwify4zfvXDJClUprema3kWmdkfE/DfHa67LjA6QSFM4VnrnHtRW77DZZlK8fx66xnwcnNDDApvUIVcL3ec1xm7X5oTnXnKVlF56R8b9ObNXJLNKiT2RbMk83zQSWgJQT8Dh+XKT+y0789HI1y3HpFPfVb+25Twy16fQPHHyY4rNcZ2T8z4fsI2gZUZTLABEabpt1PAWXC1s8zteXq+2V2DI9wvGnXQLCo76frxu/HDrl3rpmailkZPxfpuzRRw2JcU0ByhHaCrXK6wh6JSP0XLvy/vDPBRCq7vhQtNCHw/t6bfaH8YCvkYpmGRn/n5JNAitAjM19XaLQ4GcpcHaEcR9KZo1q/sOfY3CVrpdvrlYh88Y+XBcu1Aq5dIM8zX/vjIz/S0w75KehtabwsOlNq1ThpHNRzrXiZP/dXu5UXrqhay7M7nfNv2FO/1xBl4U7CMJJOV1nZPzfWnGOz20sPTnMUaWDXXOvJ1HjpTof44xdxkud94M0FZjrHPu/+vvxnTpOJ86hqyQ7MyPj/9mLuxS358Z9nrIt+QOd7zKOkBOedOcQQaLoqkhOafejK9CUd334ifsX4PEqszO3ZhkZ/9eSjYWui+1dptekYmPHV3eNreJPlrlbe7H0+mdqsKmbMisFt/p35RjHbNDnsER48fyHzsj4vyY2PpmlYjofp6lRL8WzFRi0tmrnTo3q4fHSiE/qccBEEVd5V681vF7agmAflP/MGRn/95KNMbX2HZeCYWiMN9heA0KWZtlNE71o3lewME9vXLs/f5/X8DnDSPP4QK40IyPjf5vYB/LBJC80rY5u4bEWMLNpUV7o+y9QoePlD9TjicqOKmF9rwhOrg81GEZdPW9cGRm/IQazss5do5YuXQs2yNWVszOf9Qigikdslf47dj97wt5T+TscqWTu0bqwlDnyXzgj4zeEwgdTKfAjlFLCCBfF0mCCsB1DQ8HSjCpDARoOsJyW/G0fDoqtXHZ/CUnJyPiNvXidzxUsCVWYLBdgCs9rtNVq2X21plzx0WNcKV9ldL55tdn6WQviZh+IGmZkZPxfEpsFd6kNmAqAEsVU5r/bO3vk1pUkC3NN2CGXAAMuImDBplUeneM8Z/Y0rKJEVv4VQJHgJdjni4nuN691dSUQWZW/Jy8m/t84XLcJTGMZ/poO1xL25Q+cp67oLxjTLRH7xaazEgtrXIT8wyC7L1pIx9OpXMPXma7p2B373/GuH/mTQ+n+LmOeY9nJOZn4uu/mY9+dsq4StQoJ+adBdlnZVTrCy3jlj2xK0S4dh3nOtj3/LNnLXaVjbjjNGTYzpzl2ZXSkrOWjWRPyb8lx9Tnv1cqW3eXIui//mCWC87bNn432h7I7JC/0Kbt5JtOXkuc8yg7NbNh8rIT8W87HX6mEfEUfp9N1132eCimLvaZxvsTT56x9WJbqldUfk7mUp+s1Px1/O9QIIf/SsLOgeJe7zbq8577Inw193q85FR3CrJs0THNpPy1L+8q/03mzsujrXJb8UU6BkE+4see+NIjnNbhzVh2di+LwNP/s0M36R+efdR7Z8nN8re/rcciTISVK531NyAfwswMz78ocyzr6U9YdPpUNAf35eM6DnNOYPfZs6fO1sdzc11Pe7nOaKadAyKdYdo6s54v5dqfrnq7+8v9c1RWOpWllzvdzzot1JRQfB90fnqva+UuZNSPkYxhLrqwILHTzdSl2Ll/3xVCnY3fup+7Qj2M3nYr8+KTz4UWquJ9OM82akM8x7CJolpVIc2GrXNVTVh4dT3OeBrlY+Pkwdlnj7OKFX6JwNYjZ5frY1M8jr2tCPsqwS4Xr4kxnlYWhdJnk/5jHPJiZ5cNzsjuLq4wZ1ZdStFKyJvnAphRCPohznr2eSikrF6PH6wDHmKdBsvxoljor7SrzWMTBpV1PXd93RY2BD5KQT3PF84bNsUxaT0PRNDye8trsLEV4MfLzNHRXNbTLP8g/OxSbp6wZIZ9GXtNTlnXkdHhpGu8uAXMeqp7KCs3jtVm0CI8ru778TxeH/TTSrAn5NLKqeD9nb/zaWtrlLZt5eqvLC3anYTzN/U+xW+XDx+u8yMxeM0I+8Moec7NokS7MgfVYNAizQWfx8P/KlObQZUNXfSl5a0hepMv7mpAPpATJpZm0LMXt+osZz/04nvshy5eV0c2SX5N23ee69sQJTUI+NcieSqdZLnjlqzpH111uHe2zrRfNlKsosbrnywIR2jUhH2rYObTuskFnOfBrRJ0Vw+e5Kwvrj6f5v75T8XVf2tO4uoeQTyXHyuNpLur+uSG8aKjkaexrq2hefz2c1H09jHlMm3ZNyMeSK1pZvnA89WOpXg/TfLmML3bbFTc8i4zL+7qokA6cvCbks13xfiw1ruNpKLsByp7MIY97XILu7uKMS23C/zuWJZ18coR8smGXNdbH666t63BXUS7N+uFDXrI7dJ38+qxmyF17hHx0iH08dcWq5/Hid58v/991Lfblv4ZpKKt1pV2P/WmmG07IZ5M3dh3PY97EN5y6MU9m5q16p+GqTZij7PrLs+b4eOJjI+TzQ+ySCB8utjyfjuciaDj0fV9ublXnGvPKa4bXhHz8jV1kU/I6+/Mw9d1xys73xaJPQ1mULe/rPAHG6jUhn8+573MHaX+6mPZQNBX6vitbu/L+elm/vkTgE+2akB0w5BXY43WCayoR9tzngLt0kE/SD5+mgdlwQvbAlEVSxtJxci175c7Ssn3zqO7ryxHAmQ9CdsF8HKb5uil3PJYV2d1pzhWvMhUiv5Lb9gjZCbkbZb6Ydp7Kzunw8Tzk/tLh2HVyr/186umGE7Ibw/7Zx5WzZ3kjSN4UUBzyWebD+5FNKYTsyBUfh7Gstx+yEPF8bSzV+mZZs5APi5DdGHZfbHm8GHhftm3mvQB5GrtTDjsfFSG7YboE2Bcn/JTzZnl9Tz+cy2Yf5Yez2YyQXYXY09X3Hru8BSSPdU1dP/wn+8167gMgZFcMedfHcL5E2WPZxHfNm8l9Hyfe14Ts68I+9nntfX8x6rweez6e8n8clR/O50TIrjgP/diN+dLOPaRZX2GeTXzNx0TIvpiLduGUF+ZmTaRS7ZJ1Lm7RJGR3/F9e+DEVk+7HMe/gU374TLsmZHeeeNm5N3Zl995YmtDkDU03nJAdGnapdk39XDrFZz3PRSVSQvZI3ujT5/VcWTz8eBonoYM00K4J2aVdD13ZwHUs8mZzL/Zpcj0uIbskT2n2/eWizgv4ssKZuK/5fAjZ5409D/NQStf9NI0dZRQI+YYL+5w3+wx9n1d19b3sIyWE7PTCzmF1ViMdxv409LyvCfkKu85tZn3e+HE89v/xvibkOyLsqetPWWNhyBs/+EAI+Qa67IbnhR/9caIfTsh3MOV+lLxlM/ec8b4m5DsYu1y8noZhPHKCi5AvYT7Ncz+M43D5b9o1IV9CHtTMyz4YXxPyTSF2kQ/vp4H5cEK+hnN3FRSnXRPyTZ74lDf7dPOJdk3I1zAO89Ad52lkfE3I9zAPU96Sy7kPQr7qws57fKaRdk3IFzFcPPHjifPXhHwTeR/2MHe0a0K+y7An6ioQ8mWcj8dLkM37mpCvYjwOR/aREvJtdn1xxWnXhHwV3Xw8nmjXhHwXwzBPzJsR8l1Mx57xNSHfxrHnfU3It3E+si+FkG9jZB8pIV/oiNOuCfk+R5x6pIR8nyNOHSRCvtAR7/kMCPk2hpnPgJCvc8Rp14R8HTPtmpDvg3kzQgghhBBCCCGEEEIIIYQQQgghhBBCCCGEEEIIIYQQQgghhBBCCCGEEEIIIYQQQgghhBBCCCGEEEIIIYQQQgghhBBCCCGEEEIIIYQQQgghhBBCCCGEEEIIIYQQQgghhBBCCCGEEEIIIYQQQgghhBBCCCGEEEIIIYQQQgghhBBCCCGEEEIIIYQQQvZHavHub/7Sr8/A+af1vOB3x19/mPIleMnjf/BXz18OrH0uzef+OW9y8BCw4hPZp1n//ELXDxI//4fff37+SSPBPje07BTXHwbigcP/+utXon4NpSVdv5myrusf+Hl/Id5m3L7m5wvTn37v+ze9//bQNo5UPWv176t/+cSjr/9W3B9J9ZHDMWjUXyWfh/0g0v1luT6xdHuGSO80adh3DNXbjYet/vcb7NSu7x/v3QB+XwY8+71bp6H9A+pvX7y62udwdO9UxmssDvYQf/CTTd455rwwwe0IeD//4+fK/Xf4OcPUcQd16Nz/Ec5hIJ+c9xF4Z1R67z19+xFgfibvV0J1HtUfGdTnt083HAjdVjxp2Pq76r8psIn6laxflODggDUV9bJW/1KfYfKzRnXroL7cV988+ht6R420ZsTPvv7qB64+/0hBdYui/oWrh1H/1s7JdPONfOcX4td+102nzkP19LXjh9rctQHfPEvs3w0/yIMalUuL0Ft+7h1vuAKuX1Q+AN8f1tcfEHkHCL6vsCHn4rp/wcrfGN7hAnULq9en+ukhf1jxXj5o1D+BRO14awfB9T5hbESbuRvCo/6jP17Qm6wa9dOqbgSs8rkR/8sdh9fe7YBXXNiAuUWlUR18Pxy/lqz/TOOnR+BsBC/v1TNVd5MTbELeaQ+kbRDZrutEeL4GnPB49WsO59oxP1EQGdw9WQT+ln+WweQGtg6vEaQl4QRccFM9qF81QEYlOw+v9RMxDtkTmQwZcEHeHGG4DDfREf/wUFeMMpT6hbuny5DqlBrE4SBekOr1XvR7cL/w4BwUCF0IVHkahAn0JUNRcbR5v+WPA5i/H4gyavV3lae38HnFs05bX0m3AwzRR69/b4iLHCaH6Rz8u61yASqs1W/AiyosUG7PmlipetXd9xjBR4P7OQzpqoUZNhMsAOtdMpWBTybTnuTr1PL9YJ2QezS4MllmDowUB84whQd5KKFysx03vD4bVQ5wcw8c96A/6aO98lnEuQ/zSclsYRWBA7u1azg5Qp0bfCK0NmaFlnvj3g6NlwT2dnWrkjajg6CqBG2WgEijNQNrNHxe6JyZH+eiNmvorO26o8XcV2iGAZWLCt/0oeLtVpIO672L5+NHiEMYcM5SwHnygTennvRbYolN635+efnvF7ZKeVVvcfsF/XWTUuUlo/GSuBeda9x1+hfQR1iYmLZmuuSc1DctYK9EVF9hvF15IMAp4YexQOBR328irOhFWexHccJrx//A5ve1k79QR5R3kMHk7eG5esrmd2vX9lmYPMNz9S3rA/p1G/tRVf7TQqLKzWXDKUWb5FRt5lAdDbBPoxlaew0oyomFjfls1QlBCj80luTHwyafCO9pRJljeKem+uBgq3lvMGtRm0QczPgPETDnnuPW/Hxou3bD3crQXwMl07Xmn5xRdtt9TZDiEl3QRAFTMEIyWTL78iOp4pD6yvjHiG9B2Ljg/ny8prDrD6AiV8RpTH1KBIF27Ts5vsAtFNV+BupEKlw3wYvbt76MqmgRCSY98Ps5Q+T5gSi5UQXqlbu0V7uGFwqqtP9Dp1YyyUnR6tl0w1UEXOfTD830uc0TPZFGhL7xhKPZ9Bp0Jv/h/ERSrjTWtOkl88xNi8XG94ITqG921aWgt+i9/TCfXuWCzCEjuLMf+aQRJWLrf1wq0+iCRRhTQlSxWufA6rK7rEAr+/J9QjhuwB9fsXYThWMuKQp3Vte9n7IxeP02G151wo+DLWgcyD2XGCeNrj7hX0Kf2OuMw+uoASi2QHg1m2c+XMgfWxeWD35bhuuR4tkXF7ChePuZ2yr+theDzvHdL4htvXDhb++9O2wTNwrxrFr1vz9SDkc8oHi7zP36K9ybBy033EmGPXloB2kt10xMJ4Pov37K0zRVJ/iG7Y+SbB7l1qcaxG+9rj3vKRczbMGnTZvwKB4CXv2OJlvAsc19QDu9DVP1bnWbBa2YLyn+Ja83yQ0FzDn43OFi0vloPIsgpY3NrfoncnKPwM1uzqApOYpR/kftuj5ooSabRJPWqkcWtDGqv6L8pWFQ4IxyIa5ew/a9vOCd8s+XqHwb9XrgFSfLvZEnygi6fd54j1t6c1DEXN2Wmgr18WkmXEGL1q+Ef0HgoeyLUz+FNLh7qN0ya2cK+9BKAttO0FfIjIhOpWqAsxnZ3kYZnwsF5PSkKui4KfzbPOm9nPNIWuSp8NrvDtnyJgo6bWjRxqdBQtCJgLWiNskM7puOCDSLNca1utUlEcZ2ViilvNHPPhctp4J7+1twXb/0LbMlx2qoxDvfAN3X/o6uipaqBTZ9ZeEe57Ro5TdD9uCZZqQ1EbYzORX7qNGfF/0EWDmrbWYXnn2fA5EGVyzEb6t+9r72BhV8u/YUZvCmF90TJAG2zGA5ok0061baDJ5+yCM3EGwSG4HuTJTehu2sbnaRAqGC0Qu8y6Blzh6McnTo7jC/JnMn2m9hK/lJ+KUqIf8Gfw9yEmDjMrLfyQ3suDVso+NWlpkR3dVLIZOegrEqHWJUduEjk9dV0JSCQEfs6XcKwUSZ+dYiD4G62xIvccPr1vKodhYMNqR3zBiqW7Ou9W+dDf8ewaJNrmuj5qnUKNcqYyY55CjjvWQD4fiQSV68HB0k0Z95/hayY1FOkrtqcjOHzFPCcHBKR8FnYNvgn22L+du9ACGusFnazHwieJt3si83HFYRwKkLLnTBx20ovv5HO4dnNY1aLxVU3ujZeyrSB3IOJLiToXhF2gzevJfzu4XKRtub9QG1foFujNvOQbBDHmD/qHor615uZ8DFqH028sdC5dGb52/XQJDgtnmhlWaLxPZedta1M1HiYKlcFTwpnV11ptsUSHQcihr3u9xwf15vs79bKkAIaRPatbYMiLQHnGHptJCYDtRWYEaZf/8zNChXeArNlB+Mw/xkQ0hyZ9GDrJlW1HlFQ4inbx99APIDwmLVYQu7xstDoYYbrsRdsHGibq927X8swhrldFZsYfDvWm9+oZVaFQlWrKpyvaZyrHLannhO/F5D/+hP2rUavAybCMREOZalo7bKYekZ7i1dTFPZA9NmOm0WXA1aNQ9hZdhRjIIdy8Rd1M5/5/XuHnEQNF4qGGW/35/x0X1cbqEPLQFHpdq2SkRo9c+yrt0jNaZh3xBe33RdTcy1XUIomViv8cSeY6/3td13ArjlI4Q5r+CrDn5hPJaLRyP/kxp+OHRp7OZ/ajUhtPUNHfUlLDSz6uADZneM7duGmPmCo00DBOJd7jiZV2x402vp/bzYPLxO2s2Eu38q0LCE0o1snApI+5Ys9CQ69e+MRgU3OY1f98lud/VG26mz4nN+DCEEymrRbhMrKwfbagFowSKviQzLlTmlPoMUXafe0LJdoeX0VaUoHwBHmXXzvKs5qrBtF2n1icNpeEq2G6r1Eeina2Z8dpsOh9t5IeeprMp647b+sS8RCUGohkXVa7c4hnbTqRTrsPeUFVFpjKGaT3pR7txNStRjmqrTxm18TWo+xkg7oSl9kryhtsdG5p+rciWp74pNc9ORGrYzy+oej/b5hiozbygTbnpfw5mmtK9q0ErptJL/2mHVL2BaCNrhsnnvmzl4pzyWDsawAxUXhMO8lYMcrimrtPBkf56zfsQrBsFdFgghXSi26tjqWfPF3Pr90WtNsHkm3g4Zwo722lvYul5wPyQsDzHsI7x2Gs5+x4BMctzJY5mX9P4/2qesw1/fp5UuMrAgcQh4itF+Ug/CC0Cw2iU51ywiEVBfdBS6c905RRDYImRDAYweYiNzvhy9bFYm1aX2tOnfmKI1JrCTvoh0gKwgJXS5d59m7e0t/w09D1IU2xcj8TO4TnkZyxcJrAB4S0szCJ1svUMNlcuJI6+5DnYXRDCuX01imLsD1hlEMgrqYSIc0dQJFirdeG/aDE4L04YtnanxudkprzqbB3dZk55DxqtkMf55lcuuZr1FccmMTiuR/mp6vyp5az/Z83MPjRq4IwHY6Iiwb7Ouojm5KnfID35DTiNWtFNFbicAnKULrXz8vS/2Ls2MllYKoqj9bfcClOD6hs3h6lREWhDoi/TrnXcekHmO/YbXSJW6h4hGfiNk2yB4q1RpzTIpGZ08RzL2b7QcNBa1Um45OqS2tJl4+5xWVSfGRS2r0C4Twl60TjbGd8khdVgCS5dxYFjSgGqwRHrX+6OPNGw8zIWgQ1k4YvCyZ0iL1+kvdwAACs1JREFUFe/9K5tWAS2gs8YyfpRn4zX15a/DsLG7s3gvyME4skYIF/RVSSVzBR9iw05Wxs0m1e5XbFrOTyRvc5sfIUCF+NG9ApMnv2sbRWkzmOoOtrfrlIIq8caaCvVKDlNCj5cTQf25m7YfzHm+X7uO+q2i+NkI8tjAtopDTSKy/juaNbeklNBazWaAd0t6pwCS12eCehzI2NXqyyMFazPVr2T2z9rGCHhuTsPVcdMXWHI0XvgCmSe3ZcoOfus+zO0jc6lQ56TIhkA3P+Pmeu7drmElObT51MkfeGlIJw8d30jLTSkLveQHu962qqOFX+93Kiwpji6njZq7w//YQgonJxAoh6s28qW0wAvdcJgNlXE/4eteWXvZ/rmXNPyze997HbTb2a6HoLItOgi9XLHWBvBfOCFrqXdaNk5ueGv64ljQeBBo9p08cDBKd/zJoQ/Azl8jCK/hXO9vmYLwQtKbmW2XqVO9ENRKcStF8JpzpF0jzuHWZiXtAjprCSw2kYrc0d3fjxdpAr7L0TzqcVfjlS0zDwekSrDvZZL4ZsFrLZPtPbZ66ebfNiW+Io57nbpc+4HD30lDg7YFkrAP002OqPDXFRyQ5Sc1Idb0sFauj3SqUY1v3/BPRHXp79e18kdfUhaW6uFwh7nixra3pM3qnsK62LCVXeM+QIY3jI/t0a5VTb4eeIAJo9LCnngEWzDqTR+3bxO/I1579vI+e5U7W/LioOuX+JPzmrSSTHqNrFhS62ZRm8/BT5u5qfR3p11T5FW8Ph2u2064lktHnH7+QGecmi0+K9qWIULQOF/tjog20mZy4CCF0qXixobNuEc9LUvuMqxm+NPyalUh2k43LLgg72wO90K0TRf4HLzGMPC+9rIzZgTTZpSXS/lBKwjWz7Q6jSL32CD4elXGwIqm3nBB3MIIabPMU20meUl8KXpZ2t6mu98Qb3LDYfIr79FUUHNziZKF9kKVs/y3XJX+AOWSSK8a6KeUYKqLCxKEsJn2RclCKNGg5QjNs+aH/ddANOF5m5JLnZXh6Dc97nR5Q3iNsFV4s78RygcE3pP835lde2UuuLcCWiuHk3OYOwn00EmDUVtKS02kQTvI0sltZ3nwx7eyTqiv2en70D2YlDIcfK2COh0BPXSy9fuDoL1ms4aYWIuG4bXnkto+qIUUCRY96xSPfPiaCrCjyY330xXGWPdSqfl6v1NlfXxpRVuflfdVFUSZE2hnzmuhqfSG9weuNMW2zeEIPEdatHujNkMzod3lDAvH77wZgw/CZWdIM7Xd9mBkI63e+Qmn6egRw1Yt3HJ6/BUHLuyUVAoz8undzVLiN9djUZtmzWCEuxheq5PezyKhGc7aELWVuNTT9tGmLdW1VLclhu8+/HavdQkfr+Ws6hRf6RTCqos9O0ilIoXWNEWcmwTes8HHEWXeTrIQji7Uxq7/XsNrp5UMi+3bkKMS7ksPuOJCixoJ1slfSlnFLeoNkwSEqCIA7Zw/4i6bsbAXfDCuFHv7cBayKnjD8LXqfcC29Wt/QhP0wx0XDq48QSt7rlVL0UqqAGbIxrtHTO85qps+uCuTncFdXfAwiR5PivWRa1WLzrwi6YvF6/pwbzEFZO1h+1fdLCgWJreZXTvjPjRsYUp4qKMhIegUbzoDns7woXVqOFq74Q8jtF4e+3zNxk/IKHnFjW0Dkxfe12L8FDdd9xSlGbTcEp5dZrTiEcLvD9nOWTCthXUnI/YqbrJFeG0LXLFl1NK5dwXChe9utNvXaBot56ZFBq/WYcL6IhUgTxwsrqNdyOC/Jmt2SLr1rsoR4RDG17oQufksRN3ya3rjthkSNeK57/RPduWGe3IyCO3aymg1r8OqDASktlqv026+6DtIgT88li0yQxJqtehSTbQhdvKaffZYM/+STG4NKqDYvJ7i63hvUu36vZihvZO07XTojvD2KUXNDzqh06hvmbzWqjYT1YMJoVu79JOofoxHukAhNVOMjFC7IzUF6qMAnrVrBOWrlqMDV2jMG6OEFOmEM14vFPyCv92O6sKf/IXO7td7BKEDdJM7uT/O6iy3W2Sgp3yb0mWIhiPeJdG8bTrc12JuWcKaAFRut1oek02Ae2GHXy+lvyFUov9UEbgrW2GxlV27L04m5xVpM0cLO55XhZmGtz0JiJSpklYL9jOkqXm6hruRYMWqAPiCJf66LLj5TvfoQ7PMo7sMgWg6ccfSZnYJ3dIsjtbPWhN6rfJRbeGinQazF8Lf5izR0P1deBgydyOb5Z8KrwG/93Zh4Yiv49PohkdypJvczarRFtWDK53qfiwwa/KcOrSrcindH+lW3osmsIeGc6GHYwGO5g72a9eeRGdaYa9pcbRBeX1YGI4WqoHrJY38j+wPTyFQD20atr0wsCosX+eG2xAmbE71jTpZwTq14AYmAeKcJ6JEHZ7HUEvroN3icMAmBVN5kIkTWz/1lhjDLeUnRAVvMSxjVjPuN23maTsuJJTr6GyFk+9OGjWrXEb9Bw2bEkHWn1xgAC3RmMZ3VPNneJWumF48I66TBa9DFoDgifKhuazBdHJh1XRtoIcaKjHWJ0kdm8No29lOMrXwDdLvdJYjwewuUJ8YvLNv3+F1dTTWcvJLZd/F1FBLFXKh2i0SYWg0ndpNtH+xKTPmafvUG2ppQogakcLEg/nM5OjBpQXXIYXLnIMis/DGvay2870anplY0mXCWiDU2vEjamWewbvlTiJaxVnzKNyzC9+h0qACICzeTzIjiaUvcpulmnYNu288UC49eOED/qgrJt4gKeqClkypH6/haTX+5O3SXYj1/dXXrVS4EdMPb+17tq2Vo0CySul1uAtEeenkHqrV97D3jLuvsN6Sqbc0WLdbX+Jaz2fPabNkt8Vi5fjy4tfAPvlYaV3WQ1Y1hwN6S8Of9z0DCNpz0OiXD3dzPG/Xztu+WIo2siVICGod8HSEpOqS8m4X2kySv20aRvQC3hXuLO5elNdZSn57Cybcgfs4TbPfhXvJUQVf0a+1ZrrYWAmaQ5dmLKiWzF3w8pcHwdcloP3AIc6EORWx14TXTmCKNd/XdS21bZnBNet+VnKfyizX1Ex1v7jVrbUFhzghj0bmFHDl8/x99glxgiEY2N2pG35ftAfhmixHhyu+AtEjS0t2iqVB8DoEdZ3HJ0Jaz3OLXHHhr+J1eoFxvWrlaaqyZrJcqydKEMqTAWsLfrZs6ktWVD8BWnU3NVIPpMUMrp91deLnexIE1mGQWfg9N6XoYuA6MfnVugW2lrbYHK7zuI2NAH5/O/7+OEwfu2xlsKdbGD+8xg03fgBWXfc2pQE4GYT7j65bt2D3R6/529UtjVaCPag7pd+fBuuacuV0kXNOpHqZJIyTAPtrftvCvde8lX/77i/88rTBT+x9a2z0AF/yu+Gp3WDP/e3v/5vTP/xtCSGEEEIIIYQQQgghhBBCCCGEEEIIIYQQQgghhBBCCCGEEEIIIYQQQgghhBBCCCGEEEIIIYQQQgghhBBCCCGEEEIIIYQQQgghhBBCCCGEEEIIIYQQQgghhBBCCCGEEEIIIYQQQgghhBBCCCGEEEIIIYQQQgghhBBCCCGEEEIIIYQQQgghhBBCCCGEEEIIIYQQQgghhBBCCCGEEEIIIYQQQgghhBBCCCGEEEIIIYQQQgghhBBCCCGEEEIIIYQQQgghhBBC/qf5f6WpHxqo/hUGAAAAAElFTkSuQmCC;" vertex="1" parent="1">
          <mxGeometry x="37.199999999999996" y="290" width="85.6" height="60" as="geometry" />
        </mxCell>
        <mxCell id="aSY7YGyr1cNNzH9c-0jM-18" style="rounded=0;orthogonalLoop=1;jettySize=auto;html=1;exitX=1;exitY=0.5;exitDx=0;exitDy=0;endArrow=none;startFill=0;strokeWidth=3;entryX=0;entryY=0.5;entryDx=0;entryDy=0;edgeStyle=orthogonalEdgeStyle;" edge="1" parent="1" source="aSY7YGyr1cNNzH9c-0jM-19" target="aSY7YGyr1cNNzH9c-0jM-5">
          <mxGeometry relative="1" as="geometry">
            <mxPoint x="360" y="440" as="targetPoint" />
          </mxGeometry>
        </mxCell>
        <mxCell id="aSY7YGyr1cNNzH9c-0jM-19" value="&lt;font face=&quot;Montserrat&quot;&gt;Red Hat&lt;br&gt;Enterprise Linux 8&lt;/font&gt;" style="rounded=1;whiteSpace=wrap;html=1;fillColor=#FFB3B3;strokeColor=#EE0000;fontStyle=1;labelPosition=center;verticalLabelPosition=bottom;align=center;verticalAlign=top;" vertex="1" parent="1">
          <mxGeometry x="20" y="520" width="120" height="80" as="geometry" />
        </mxCell>
        <mxCell id="aSY7YGyr1cNNzH9c-0jM-20" value="" style="shape=image;verticalLabelPosition=bottom;labelBackgroundColor=default;verticalAlign=top;aspect=fixed;imageAspect=0;editableCssRules=.*;image=data:image/svg+xml,PHN2ZyB4bWxucz0iaHR0cDovL3d3dy53My5vcmcvMjAwMC9zdmciIGhlaWdodD0iMTguMTU2MDI2MDg1NDcwODE3IiB3aWR0aD0iMjQiIHZlcnNpb249IjEuMSIgdmlld0JveD0iMCAyLjk1MDAwMDA0NzY4MzcxNiAyNCAxOC4xNTYwMjY4NDAyMDk5NiIgZGF0YS1uYW1lPSJMYXllciAxIiBpZD0iTGF5ZXJfMSI+JiN4YTsgIDxtZXRhZGF0YSBpZD0ibWV0YWRhdGE2OTgiPiYjeGE7ICAgICYjeGE7ICAgICAgJiN4YTsgICAgICAgIGltYWdlL3N2Zyt4bWwmI3hhOyAgICAgICAgJiN4YTsgICAgICAgIFJlZC1IYXQtTG9nby1BLVJHQi1Db2xvci1SZXZlcnNlJiN4YTsgICAgICAmI3hhOyAgICAmI3hhOyAgPC9tZXRhZGF0YT4mI3hhOyAgJiN4YTsgIDxkZWZzIGlkPSJkZWZzNjc1Ij4mI3hhOyAgICA8c3R5bGUgaWQ9InN0eWxlNjczIj4uY2xzLTF7ZmlsbDojZTAwO30uY2xzLTJ7ZmlsbDojZmZmO308L3N0eWxlPiYjeGE7ICA8L2RlZnM+JiN4YTsgIDx0aXRsZSBpZD0idGl0bGU2NzciPlJlZC1IYXQtTG9nby1BLVJHQi1Db2xvci1SZXZlcnNlPC90aXRsZT4mI3hhOyAgPHBhdGggc3R5bGU9InN0cm9rZS13aWR0aDowLjEyNjA4MzUyIiBpZD0icGF0aDY3OSIgZD0ibSAxOS44MjkxNiwxMC43ODEwNDggYSAxLjc2NTE2OTQsMS43NjUxNjk0IDAgMCAxIDAuMDM5MSwwLjQzMTIwNiBjIDAsMS44NzYxMjIgLTIuMjgyMTEsMi4yMDE0MTggLTMuODU5NDE0LDIuMjAxNDE4IC02LjEzMjcwMywwIC0xMC43MDk1MzUsLTMuODExNTA1IC0xMC43MDk1MzUsLTQuOTc5MDM5IEEgMC44MTA3MTcxLDAuODEwNzE3MSAwIDAgMSA1LjMyNzA1MSw4LjE5MDAzMSBMIDQuODY1NTg1LDkuMzMyMzQ4IEEgMi4zMjYyNDExLDIuMzI2MjQxMSAwIDAgMCA0LjY3NTE5OSwxMC4yNTY1NCBjIDAsMi4yODMzNzMgNS4xNjk0MjUsNS43MzQyNzkgMTEuMDYyNTY5LDUuNzM0Mjc5IDIuNjA4NjYyLDAgNC41OTMyMjIsLTAuOTc4NDA4IDQuNTkzMjIyLC0yLjc0NDgzOCAwLC0wLjEzNjE3IDAsLTAuMjQ0NjAyIC0wLjIxODEzLC0xLjI3NzIyNiB6Ii8+JiN4YTsgIDxwYXRoIHN0eWxlPSJmaWxsOiNlZTAwMDA7c3Ryb2tlLXdpZHRoOjAuMTI2MDgzNTIiIGlkPSJwYXRoNjgxIiBkPSJtIDE2LjAwODgyNiwxMy40MTM2NzIgYyAxLjU3NzMwNCwwIDMuODU5NDE0LC0wLjMyNTI5NiAzLjg1OTQxNCwtMi4yMDE0MTggYSAxLjc2NTE2OTQsMS43NjUxNjk0IDAgMCAwIC0wLjAzOTEsLTAuNDMxMjA2IEwgMTguODg5ODEsNi43MDA5ODUgQyAxOC42NzI5NSw1LjgwMzI3IDE4LjQ4MjU2LDUuMzk2MDIgMTYuOTA2NTIsNC42MDc5OTggMTUuNjgzNTEsMy45ODI2MjQgMTMuMDE5MzY1LDIuOTUgMTIuMjMxMzQzLDIuOTUgYyAtMC43MzM4MDYsMCAtMC45NDY4ODcsMC45NDU2MjYgLTEuODIxOTA3LDAuOTQ1NjI2IC0wLjg0MjIzOCwwIC0xLjQ2NzYxMiwtMC43MDYwNjcgLTIuMjU1NjM0LC0wLjcwNjA2NyAtMC43NTY1MDEsMCAtMS4yNDk0ODgsMC41MTU2ODEgLTEuNjMwMjYsMS41NzYwNDQgMCwwIC0xLjA2MDM2MywyLjk5MDcwMSAtMS4xOTY1MzMsMy40MjQ0MjggYSAwLjgxMDcxNzEsMC44MTA3MTcxIDAgMCAwIC0wLjAyNzc0LDAuMjQ0NjAyIGMgMCwxLjE2MjQ5MSA0LjU3NjgzMiw0Ljk3Mzk5NiAxMC43MDk1MzUsNC45NzM5OTYgTSAyMC4xMTAzLDExLjk3Mzc5OCBjIDAuMjE4MTMsMS4wMzI2MjQgMC4yMTgxMywxLjE0MTA1NiAwLjIxODEzLDEuMjc3MjI2IDAsMS43NjUxNyAtMS45ODQ1NiwyLjc0NDgzOSAtNC41OTMyMjcsMi43NDQ4MzkgQyA5LjgzOTUzNywxNS45OTk2NjMgNC42NzUxNTUsMTIuNTQ0OTU2IDQuNjc1MTU1LDEwLjI2MTU4NCBBIDIuMzI2MjQxMSwyLjMyNjI0MTEgMCAwIDEgNC44NjU1NDEsOS4zMzczOTEgQyAyLjc0NDgzOCw5LjQ0MzMwMiAwLDkuODIxNTUyIDAsMTIuMjQ0ODc4IGMgMCwzLjk2OTEwOSA5LjQwNDU3MSw4Ljg2MTE1IDE2Ljg1MTA2LDguODYxMTUgNS43MDkwNywwIDcuMTQ4OTQsLTIuNTgyMTkxIDcuMTQ4OTQsLTQuNjIwOTYxIDAsLTEuNjAzNzgzIC0xLjM4NjkyLC0zLjQyNDQyOSAtMy44ODcxNiwtNC41MTEyNjkiIGNsYXNzPSJjbHMtMSIvPiYjeGE7PC9zdmc+;" vertex="1" parent="1">
          <mxGeometry x="53.34" y="540" width="53.33" height="40" as="geometry" />
        </mxCell>
        <mxCell id="aSY7YGyr1cNNzH9c-0jM-21" style="rounded=0;orthogonalLoop=1;jettySize=auto;html=1;exitX=1;exitY=0.5;exitDx=0;exitDy=0;endArrow=none;startFill=0;strokeWidth=3;entryX=0;entryY=0.5;entryDx=0;entryDy=0;edgeStyle=orthogonalEdgeStyle;" edge="1" parent="1" source="aSY7YGyr1cNNzH9c-0jM-22" target="aSY7YGyr1cNNzH9c-0jM-5">
          <mxGeometry relative="1" as="geometry">
            <mxPoint x="360" y="440" as="targetPoint" />
            <Array as="points">
              <mxPoint x="190" y="800" />
              <mxPoint x="190" y="440" />
            </Array>
          </mxGeometry>
        </mxCell>
        <mxCell id="aSY7YGyr1cNNzH9c-0jM-22" value="&lt;font data-font-src=&quot;https://fonts.googleapis.com/css?family=Montserrat&quot; face=&quot;Montserrat&quot;&gt;Virtuozzo Linux&lt;br&gt;(VZLinux) 8&lt;/font&gt;" style="rounded=1;whiteSpace=wrap;html=1;fillColor=#FFD6D6;strokeColor=#E30016;fontStyle=1;labelPosition=center;verticalLabelPosition=bottom;align=center;verticalAlign=top;" vertex="1" parent="1">
          <mxGeometry x="19" y="760" width="120" height="80" as="geometry" />
        </mxCell>
        <mxCell id="aSY7YGyr1cNNzH9c-0jM-23" value="" style="shape=image;verticalLabelPosition=bottom;labelBackgroundColor=default;verticalAlign=top;aspect=fixed;imageAspect=0;image=data:image/png,iVBORw0KGgoAAAANSUhEUgAAAMgAAADICAYAAACtWK6eAAAY20lEQVR4nOzde3hTVd4v8LVKL0lJ0vTepBfaSClQLqVpK+/Ii5e2+p5XdPAyoiDqIElaH3WqR7T1MqiogOjAKApNqiODigw6gpczz0gr4wjlHGhSnBakLU1o0iZtacm1TVto13kKdl7EsullJ2sn+X2eJ3812fv7z7d77ctaOwgBAK4ICgIAAygIAAygIAAwgIIAwAAKAgADKAgADKAgADCAggDAAAoCAAMoCAAMgmkHAAitl2U8WCCOLkEIzUQYBxOEDmrMxhc1FtN3tLMFOkw7QCBTJqRMXy1N2owxXjLa3zEhe5WN9SU6l6PF++kAgoLQsSJOmnt7TPwzMj7/NoRw6FW+PlDncmg+7jBvqrR1Q1G8DAriRdnCCLFSkrRWLhQ/hhCaMs6fu7VO+3a1xfSyzmm3eSgiuAwUxAtkvPCgNclpv5WLIjZghGMmuTmLpq3lAXV7ayVL8QCD8f4XA+OULRAJ1qamf5ApED6LEQ5nYZNCuUh8r1woCm3v7z9sHug/z8I2wRXAEcRD8iOj5yolKQoZL3w5wijaQ7uxGtw9O9a1nNpc1+MyemgfAQ0KwjK5QBy8Jjn1tWvCp67x4m6tOoetTNV0vNyL+wwIUBAWKRKSFykTUzYhhBZSilCraWtRqNtbtZT273egICxI4/Gj9syW/5Fgcj/tLMMM7p4X7jlx7BXaOfwBFGQSCsQxCTdFRq0sjIp9DCGUTDvPpQghJ7+1dmnKLaadhj73Gdp5fBUUZALSePyQZ1KueVYuFJUihHm081yFu+rsGWWpofFD2kF8ERRknLIFokT1jLkfE4wW084yHpiQnarG+jVal6ODdhZfAgUZo2yBiKeUpvxOLowoRQiJaeeZILfOYSvbaNK/q+9zn6MdxhdAQa5ieDillKQ8UhAZXYowTqCdhw0dA/21+7o6Xquydu2DojCDgjDYnj53hVwofAVhnEo7i4e06hy2p1RNx3fTDsJV8KjJKArEMcm7Mxfsk4aFPYkw9tXh1FiIJGG8uwsjo6UGd28lPLbyS1CQy5Snz711ZYL0S4TxHNpZvCUyJFS+JCb+rgtHFJejgXYeLoEhFkIoLiQ0/Mkk2UM3RUYpMMZZtPPQhAk58lGHecPmttOf087CBQFfEGVCyhxFYvInCKFM2lm4BBPyD43ZWFLe3voD7Sw0BewQK1sYIV6bOn3zkph4NULIL65OsQrj1GyR+KFsoSjhxx5XtfX8+X7akWgIyCPI+tSMgoLomD0+fD/Dq4aHXWpz63J1u7GZdhZvC5iCyHjhQfmR0bcWRMaskvHDb4clj8ZtQO/u3V9l7Xp3X1fH3zvODQzSDuQNAVGQ/Mjo+RvSMj5FGE+nncUfNLt7v3jd1LxK53R0087iaX5dELlAHLxakvhgjkj8R4TQVNp5/IxF57C9pLa0vad12fz2/onfFkQhSb5eIUneEuiXbb2gtqz55H2Vtm6/vH/idwUZHk49kZj2bHxY2D20swSQHoO758Lckyprt452GDb5TUGUCSnXrJYmbbnSKoXAOzAhe39zolbpL5O0/OI+yPq0DMVv4hO+xBjPpp0l4GE88zdxkrsxIjVal8NEO85k+fQR5OLkpXkbuDIXHPwcJmSXqrH+CV+epOWTBVkeK53769j4F2T88NsQQlyf8hroBupcjq3rWk5t8MVhl08VJFsgEiilKc/IhaKnx7DoM+AWt9Zp31JhNr5c43L00Q4zVj5TkIuTl0QbEEZJtLOASbFozC13qS2th2kHGQvOn6QvEIh4W6bP0mQKhC8jjES084BJE8qF4pVygdDdPtBfy/VJWpw9guSLozOU0mkPy3i8lf4yFxxchpDOSlv3Bx93tL1Z1+PqpB1nNJwsyO5ZC9bKwsNfpJ0DeI1V57AVc3FuPKcKMnwSvn3GnF1wsy8wYUL+pmyqv0fndLhoZxnBmYLIBeLgbTNm/Q3joALaWQA9mJD995w49l/6vt4h2lkQl+ZErElOfQHKAQjGhbdHx99JO8cIzhTkmvCpj9POALghPiz0v2hnGMGJguSLo6Ng+isYUSCO5sxK+ZwoCEEoIKZvAt/DiYJ8a+u2E0IaaecA3LDf1l1PO8MIThRkWK3T+TLtDIAbvj3btYt2hhGcKYiqqe4jTPCntHMAujAheypt3TW0c4zg1LNYR522L6WhvARpGC+bdhbgfZhgTVFjnZJLz2dx5kbhpe6Lldy4NDahTMYPL6SdBXgYQYMdAwMfb27Vv1rFwYUfOFmQEasTkrJU0mkahFEO7SzAIw5q2lpKuPzaak4XZMSuWVlrp4dPhYcX/Ue3zuH43fB5J+0gV8Opc5Ar+ayr/TtCSKVcGJGN4dF330ZQTan+5JK3zKcP0I4yFj5xBLnUakly4dKY+OfjQ8N86i2zAW6g2d3712+tXZpKa/c/uPIg4lj4XEFGvJueuSxHJN6C4dUFXNeqMZvuU1uMB2kHmQifLQj6aTquSpKyTi4UPY4wLOLAKQS5tS77m2qzcaPOxZ35HePl0wUZsVqSVKCUTtsJRxOOIOSIxtK2Qm1pOUU7ymT5RUHQxfd/CPMjo+9USJIVGOPraOcJSAT/U21peX9fV8cnnecG/OKNVH5TkEu9ljpjVWFUzDsIY1hUzhsIalabjQ9q2k2HaEdhm18WBF18B2HqtvTMzUEYL6WdxZ/hIbK31NBYXGnraqedxRP8tiAjFJLkWxWS5K0Y41TaWfzMSbXZ+KjGYqqiHcST/L4gw+ZMFcQuj5OqCiNjHkZQlMkhqPmjzrbXvujq/MCX7mdMVEAU5FLb0jNVcpF4PUYoknYW30LO6Bz2MrWlbYc/v3LtcgFXEHRxznP2elnGewhezzYmenfvFxtN+gd0TruddhZv81hBcgTiYKVMdsuCkPBChIg4OCT41JFu91dqi+mY1mXx1G7HLFsg4ikkyaockXgdQkhIOw9HWbUO+0uvm/Rvc2U4pZAmZxWIY+6W8cMTtU57l9Zpr9RYTH/31P48UpD16bPuyBdFvo0RTvzFHwk5uqur/ZV9HV1fNPc7PLH7cUnj8cUKSfLjBVGxJTDs+gkhp6qsZ99QW4wf6/t6nbTjxIWEhj2ZlPbQTZHRD2OMcy//e8dAf/WXZ9ofKW9v/YHtfbNeEGVCyhxFYpL2qu/vIOQrnfP8C6qmI8fYzjARckFEjEKS9JxcGKFCGPNp56GCoHNal33rRqP+eUNfby/tOMNUCSkZD0uT9mCM517lq26N2bRAbTGyOumK9YIckf9qP0Z4rCsk9gWHTNn+1MmmsiqbhRMvVVmdkJSllKbswBjPo53FmwhBle+ZWx8tb2/hxKw+uTBCfPEflrgEIRQ8xp8dyNUeuonNHKzOB1mdkJSaIxK/NY6fBA8NkYUFkeJbgkOm7K+x22xs5pkIncvRXmnt+kTGDxdLw3j+P5ORoHMGt7v05rojxVqXvZt2nGHrUzMKH0ue9p00jF8wzoVF0jDB72lddtbG7qwWRC6MuEUujLh73D/EOHHBVNEjqgRZlowf4arrsep7hgYJm9nGw3b+fN9X3Z1f6929O4aPcmk8/gyM8VRaeTykrdLatUVjNio2tuq/ph1GxgsPujsm4X89k3LNq3KR6BWMsGAi26lx2Q/rXI4TbOUa66FrrCbz7FMoCTp/V36U8K7C2Gv3bjd2rNS0N1J9TLrK1n26ytZdlm+NLl8vy9BgPOahI6fp3b3vbDIaSmo4cj8jPzJ69npZxmcY4ZmT3RZGiNV/ZJxZF+tSQ4NDS5WJsU3l6ZmqvKgo2nEuFCVPV12oNhuXIoRO084zCU21DufSZSdqH+VCOS688iI98+H1sozDbJTDEzhZkJ8kZIvE299Jm1W7MTVbRjvMMI3FtE/VUDdL7+79M+0s4+TWOu3PFTfUzVM2/Wsf7TDDFAnJi7ZnZH6fIxJXYIQ5++5Jts9BsuTCCLafnk1ICw9ZXRAZHRsdFmq2DgR1Ws/Tu+BlGeg//+mZ9r2EkP2RISFTooJDMxBGIdQCMevRu3s/ft2of+CtttOf016QbVp4OMoRiGa/PT1z6/WR0W8ixP4bi7VO+16dy8Ha/RC2z0E8ZaqMP7Vk+KOII3ufNTYpv+k6Q/Wl9BXtrdXDn2yBqOyZFNkOGX/qzTTz/AxBgxjh91WNdWVcuTJVnr5w+gJh0CbsY9MPuDzEGhXBeOmr02Yc0VyzIEcukNCOc+GycKm+YYnWaX8eEeKmnQch5Ky0nlmRozuo5EI5cmNj0adzsldmi4LqfK0cyBcL8pPULHH40fIZabuKp6VRn4du6HOfK2qsf1XVWC8jQ0Of0MqBh/BOVWPdrDJDIyfeFquQpCVtS87YOS2M/2eEfHN2p68W5AKC8b2rYqQtX81Z+MbNMbGxtPMMH03yag/f9weT/ia9u/cbr+yUoMHO/oGdpc0nZ+bUHnxA53S0eWW/DEoS0+f939zrdiml0pMEk/tp55kMny7IT0Ljw6b871enzTBqs25cp0zIoP6falen5cCyE7W3lLe1LEAEeXIp/+815pZrb60/+gAXFn5WpU0XHMtb9OKKhNijU4bQvYjlexI0+ENBRvCGpgw8r0iMMbyePutXtMOgiyfyx3J1h3Kbe3vYXle4W+dw3J+rPbSYCws/y3gCtH3G3BWrI+N/PDdI1l71QVUf4k8FGZFwoyjqwNHsgqfkAhH1o8mwe3889lJ5W8siRMjkn1wm6Ghp88nruLLws0KSwft47vwKuVD0IcLsX7alzVcu845XKMLuTdtnzFlz+nz/jr2Ws29+dMbQQTNQRXvroYr21gUKSXLhr2Pin4sPDbt+HD8f0Lt7P6uydlVwYW3beD4f3REVO/PGiJgHZTzeQ2jIfxfs89eCXIRxXGoIb01JilSxWBxe9F63ZfeRs2epRtJYTPuHP9vSM5fJx7a2sEljNi3nytq2ckE0ejolZa2MHx4Qr6PwxyHWaMTZIvEnW1Mzvi9Pz+PEPPTipuO7VQ11aVqH/Q1EyMAvvkAuPB6yTtVQN5sL5ZALJGjrrDk52zNmHgiUcqAAKsgFGActyhaF1O6ZJ1+TG079qjCqdTn6iprq15TqGxYRRHYhRI4Of5r7et6qsLTOLWqs/z0XFn6+JTpmavkMmeba8IjDCKEbaOfxJv8eYl1Bagjv9Xdnpi8z9Ml2VnQadnzT1Ul1olaVrftonrZ6Oc0Mo8mPjIsqSkldMW1KyFMEoxTaeWgIqCPIz2AsT+MHb3l1Wrpl96y8O2nH4ZJ8sTTkcN6i5zfI0ptTg0PewgFaDhTQBfkfPFl4yGe1CxdvK4qf7rdXY8bqkeRp4g2ytK+DB8m64XM32nlog4L85Py5waJVSXF1NdmFJTIen6uPr3uMXCAO1v7qxpLfxiUZEEbw+u2fQEEugRGOIbh385658oPr0+beFghFGR5OVczKKtqWMfv0UP/AZjhq/FxAnqRfzdAQySuIEn1RELnA8EN/zxPrTxn2cWGROzZdKxajVXHJS7IFws0I4+m083AVHEGYYJw2nyfY+0mm/C2uPLbCBlWKTPq2LHN/tlD0JZSDGRRkLPDAY9sz5h7WzJ6Xz4VJWhM1XyxG6nnZNzwcm3AEY+QXK7R4Ggyxxi4riy+s3D5DcHRXF3/dvo6uL31l2DVfIAx7LjnzoVR+0Khr24Irg4KMF8a598VKvlgek/CVlkNrC1+JZp585vxg3l8wRldb2xaMAoZYE0QwXpItCjlcu3Dx5nyxlHPnJ6uSp4mPyhdvygrh1UE5Jg4KMjm88+cGSzbIUv9ZnJLKmVe77Z61sLAoLrEJocGnYJQwOVAQNmCcuyo2saFmwfWfbkib99/xIaGsrjc2FjJeeNCGGZn/rctd9BdZeND/wQjHeDuDP4L/Luz599rCN8deu3ebsXOlpr3BK0/ivjo9c3ZhRMSFtW0Hh0igvlnPI+AI4gGDF9YWjvH42sJygTj4SHbB6sKICM6ubevroCCe8++1hdN4fNYnn/xpgTx1e0bm9xi7NVxe29bXQUE8L+vt6Zmfsflc15PJ6fPm4LD/hxBayNY2weigIF4QHxb2n2uS055ma3v3JUqeRBjHsbU9cGVQEC+RC8V3sbGdorQ0RAYGb2RjW+DqoCBegjGeM3xSPdntDPYPBgfyDD9vg4J4T0iuQDCh9+5digwNTXobYOygIAAwgIIAwAAKAgADKAgADKAgADCAggDAAAoCAAMoCAAMoCAAMICCAMAACgIAAygIAAygIAAwgIIAwAAKAgADKAgADKAgADCAggDAAAoCAAMoCAAMoCAAMICCAMAACgIAAygIAAygIAAwgIIAwAAKAgADKAgADKAgADCAggDAAAoCAAMoCAAMoCAAMICCAMCA7YKcZ3l7AFDFbkEIrmV1ewCME0bkKJvbY7UgmnbjCYTQATa3CcBYYUI+V1taT7C5TdbPQTTm1mJEkJvt7QLAiCC3xtxWxvZmWS+I2tLS0Ox2rWN7uwAw6Kl12G8rb29pYHvDHrmKde+PP6xXt7Vc1+zu+YAg4vDEPgAYLobe3ftBWXNDjvJUfZUndhDsiY2iC+cjrdXDn2yBqOyZFNkOGX/qzZ7al68gtAP4C4IGMcLvK5vq1uicdrsnd+Xx+yA6l6O9VN+wpMZhfwoRAucmYLKsldYzK3J0B5WeLgfy1o1CQ5/7XHFT/ZuqxnoZGRra5Y19Av+Dh/BOVWPd3DJD425v7dOrd9KHjyZ5tYeX/8GkX6x3937jzX0DH0XQYOfAwI7S5pMzc2oPPqBzOtq8uXsqj5rs6rR8v+xE7S3lbS1ZiJCDNDIAn3BAY2659ta6ow9V2bpZv0I1FlSfxapob/0hV1f9n829PS/SzAE4p1vncNyfqz10k7q9VUszCCceVrz3x2Mvlbe15CBCjtHOAqg7XNp88jpVU91HtIMgrhQEXTyaaHN11QvUZuPNHf3939LOA7yqT+/u3aUxG/OXHa9dRGs4NRqP3QeZKI3FtH/4sy09c5lcJN6MEZLQzgQ8yqQxm5arLUZOnoty5ghyueKm47uLGupkNU7bK4iQAdp5AMsIcmud9rWqhrrZXC0H4nJB0MXLwn3FjcdfKLcYbyUIWWjnASwh5EiFpXVuUWP9yzqXw0U7DhPODbFGU2FprayydssKImOWKSTJCozxdbQzgfHDBP+z3NKi2dfVsafz3EA/7TxjwekjyKUMfe4+jcW0I09XvWj/2TMr4bEVn9KobjMuytEdvF5jMX3oK+VAvlSQSz1raPxQ1XR8NiFkL+0sgBkeIp+XNTcs1rSbDtHOMhE+WZBhOqf9dJ6u+g51m7EAEXKadh7wCz+qzcYbcmqr76y0dXXQDjNRPnEOwkTTbqo67LTmLY+TriqMjClCGKfSzhTgGj/qaNv4RVfnB/q+3iHaYSbLZ48gl6rvcZ151tC4MVdXnVbjsBURhKy0MwUeckbnsK0ubjieuaX19Pv+UA7kD0eQyxU3HS/PF0dXb5Bl/BlhnEU7TyDQu3s/32jS/9Yb8zO8zS+OIJersnXXqRrr/6PGYSshiJyhncePWbUOe0mZvuFufywH8scjyIgLNxmbjv8xjcffoZAkP14QFVuCEYqkncsvEHKqynr2jXKLcaehr7eXdhxP8ssjyKUMfW7bs4bGl4sa6lK0DtsWuH8yCQSd0zrtm+45cWx+qeFkub+XAwVCQUboXA5XUdPxJ8rNxv8ghFCdY+CLCEGVFeYLj4c8HQjFGBEwBRlR0d76w7ITtQVap3077Sw+gaBzBrf7yTzdoUJPrDvFdX57DsJkeNhV1FhfnC+O3lAQGfNwQWS0CmEcRzsXx7RVWrs0VWe7dlbauvW0w9ASkAUZUWXrbqmydf++0hr93npZxlaM8RLambhA7+59Z5PRUFLjsgX8av0BN8QazXBR8nTVt6nNxqUIoUB+bKVJ53AuWXai9lEox0VQkEtoLKZ9qoa6Wc29ve/RzuJlPVqn/bnihrp5qqZ/fU07DJcE9BBrNDqXo+/eH2tXKxKS3s+PilHI+OF3YoRFtHN5SI/e3btHYzZtrLR1naQdhougIFfg12sLe3FtW18HQ6yrYHNtYa3L0TfZPCHBQZPdhlfXtvV1UJAxYGlt4VM1LBQEBaE+QkjnRH5KY21bXwcFGYfJrC1cebZrKxsZthmNqHNg4O9j/gHltW19HaYdwJetTkiar5KmbEUYL2L6HibkSI6u+lq29qtMSUtXxEh+QBjzr/LVA5q2ljW0l+/0ZVNoB/BlOpejQ2Mx/SlfHI2iQkJvuMLXrBVm0x1al2NCw6LRaO22swumCmukPH4BRkgwyle6dQ6H8vb6mqe0LgcslzQJUBAWfNrV/h0hZK9cGDEVIxSHEOYTTBp0Tsc7L7WcWv7V2U4j2/v8+uyZZq3T/pE0jHdeEspLxBhFIkJMGAX9tVR/ctVb5tPwtmEAgGfBSToADKAgADCAggDAAAoCAAMoCAAMoCAAMICCAMAACgIAAygIAAygIAAw+P8BAAD//3ZSPosho0ekAAAAAElFTkSuQmCC;" vertex="1" parent="1">
          <mxGeometry x="46.67" y="770" width="60" height="60" as="geometry" />
        </mxCell>
        <mxCell id="aSY7YGyr1cNNzH9c-0jM-51" style="rounded=0;orthogonalLoop=1;jettySize=auto;html=1;exitX=1;exitY=0.5;exitDx=0;exitDy=0;strokeWidth=3;endArrow=none;startFill=0;entryX=0;entryY=0.5;entryDx=0;entryDy=0;edgeStyle=orthogonalEdgeStyle;" edge="1" parent="1" source="aSY7YGyr1cNNzH9c-0jM-52" target="aSY7YGyr1cNNzH9c-0jM-53">
          <mxGeometry relative="1" as="geometry">
            <mxPoint x="781" y="440" as="targetPoint" />
          </mxGeometry>
        </mxCell>
        <mxCell id="aSY7YGyr1cNNzH9c-0jM-52" value="&lt;font data-font-src=&quot;https://fonts.googleapis.com/css?family=Montserrat&quot; face=&quot;Montserrat&quot;&gt;CentOS Stream 8&lt;/font&gt;" style="rounded=1;whiteSpace=wrap;html=1;fillColor=#e1d5e7;strokeColor=#9673a6;fontStyle=1;labelPosition=center;verticalLabelPosition=bottom;align=center;verticalAlign=top;" vertex="1" parent="1">
          <mxGeometry x="441" y="160" width="120" height="80" as="geometry" />
        </mxCell>
        <mxCell id="aSY7YGyr1cNNzH9c-0jM-53" value="&lt;font face=&quot;Montserrat&quot;&gt;AlmaLinux 8&lt;/font&gt;" style="rounded=1;whiteSpace=wrap;html=1;fillColor=#dae8fc;strokeColor=#6c8ebf;fontStyle=1;labelPosition=center;verticalLabelPosition=bottom;align=center;verticalAlign=top;" vertex="1" parent="1">
          <mxGeometry x="661" y="400" width="120" height="80" as="geometry" />
        </mxCell>
        <mxCell id="aSY7YGyr1cNNzH9c-0jM-54" style="rounded=0;orthogonalLoop=1;jettySize=auto;html=1;exitX=1;exitY=0.5;exitDx=0;exitDy=0;entryX=0;entryY=0.5;entryDx=0;entryDy=0;endArrow=none;startFill=0;strokeWidth=3;" edge="1" parent="1" source="aSY7YGyr1cNNzH9c-0jM-55" target="aSY7YGyr1cNNzH9c-0jM-53">
          <mxGeometry relative="1" as="geometry" />
        </mxCell>
        <mxCell id="aSY7YGyr1cNNzH9c-0jM-55" value="&lt;font face=&quot;Montserrat&quot;&gt;Oracle Linux 8&lt;/font&gt;" style="rounded=1;whiteSpace=wrap;html=1;fillColor=#ffe6cc;strokeColor=#d79b00;fontStyle=1;labelPosition=center;verticalLabelPosition=bottom;align=center;verticalAlign=top;" vertex="1" parent="1">
          <mxGeometry x="441" y="400" width="120" height="80" as="geometry" />
        </mxCell>
        <mxCell id="aSY7YGyr1cNNzH9c-0jM-56" style="edgeStyle=orthogonalEdgeStyle;rounded=0;orthogonalLoop=1;jettySize=auto;html=1;exitX=1;exitY=0.5;exitDx=0;exitDy=0;strokeWidth=3;entryX=0;entryY=0.5;entryDx=0;entryDy=0;" edge="1" parent="1" source="aSY7YGyr1cNNzH9c-0jM-57" target="aSY7YGyr1cNNzH9c-0jM-53">
          <mxGeometry relative="1" as="geometry">
            <mxPoint x="611" y="440" as="targetPoint" />
          </mxGeometry>
        </mxCell>
        <mxCell id="aSY7YGyr1cNNzH9c-0jM-57" value="&lt;font data-font-src=&quot;https://fonts.googleapis.com/css?family=Montserrat&quot; face=&quot;Montserrat&quot;&gt;Rocky Linux 8&lt;/font&gt;" style="rounded=1;whiteSpace=wrap;html=1;fillColor=#d5e8d4;strokeColor=#82b366;fontStyle=1;labelPosition=center;verticalLabelPosition=bottom;align=center;verticalAlign=top;" vertex="1" parent="1">
          <mxGeometry x="441" y="640" width="120" height="80" as="geometry" />
        </mxCell>
        <mxCell id="aSY7YGyr1cNNzH9c-0jM-58" value="" style="shape=image;aspect=fixed;image=data:image/svg+xml,PD94bWwgdmVyc2lvbj0iMS4wIiBlbmNvZGluZz0iVVRGLTgiIHN0YW5kYWxvbmU9Im5vIj8+CjwhLS0gQ3JlYXRlZCB3aXRoIElua3NjYXBlIChodHRwOi8vd3d3Lmlua3NjYXBlLm9yZy8pIC0tPgoKPHN2ZwogICB3aWR0aD0iMTYwIgogICBoZWlnaHQ9IjE2MCIKICAgdmlld0JveD0iMCAwIDQyLjMzMzMzNCA0Mi4zMzMzMzEiCiAgIHZlcnNpb249IjEuMSIKICAgaWQ9InN2ZzUiCiAgIHNvZGlwb2RpOmRvY25hbWU9ImNlbnRvcy1zeW1ib2wuc3ZnIgogICBpbmtzY2FwZTp2ZXJzaW9uPSIxLjIgKGRjMmFlZGFmMDMsIDIwMjItMDUtMTUpIgogICBpbmtzY2FwZTpleHBvcnQtZmlsZW5hbWU9Ii9ob21lL2FyZWd1ZXJhL1Byb2plY3RzL0NlbnRPUy9JZGVudGl0eS9CcmFuZHMvU3ltYm9scy9jZW50b3Mtc3ltYm9sLnBuZyIKICAgaW5rc2NhcGU6ZXhwb3J0LXhkcGk9Ijk2IgogICBpbmtzY2FwZTpleHBvcnQteWRwaT0iOTYiCiAgIHhtbG5zOmlua3NjYXBlPSJodHRwOi8vd3d3Lmlua3NjYXBlLm9yZy9uYW1lc3BhY2VzL2lua3NjYXBlIgogICB4bWxuczpzb2RpcG9kaT0iaHR0cDovL3NvZGlwb2RpLnNvdXJjZWZvcmdlLm5ldC9EVEQvc29kaXBvZGktMC5kdGQiCiAgIHhtbG5zPSJodHRwOi8vd3d3LnczLm9yZy8yMDAwL3N2ZyIKICAgeG1sbnM6c3ZnPSJodHRwOi8vd3d3LnczLm9yZy8yMDAwL3N2ZyIKICAgeG1sbnM6cmRmPSJodHRwOi8vd3d3LnczLm9yZy8xOTk5LzAyLzIyLXJkZi1zeW50YXgtbnMjIgogICB4bWxuczpjYz0iaHR0cDovL2NyZWF0aXZlY29tbW9ucy5vcmcvbnMjIj4KICA8c29kaXBvZGk6bmFtZWR2aWV3CiAgICAgaWQ9Im5hbWVkdmlldzEyNjQiCiAgICAgcGFnZWNvbG9yPSIjZmZmZmZmIgogICAgIGJvcmRlcmNvbG9yPSIjNjY2NjY2IgogICAgIGJvcmRlcm9wYWNpdHk9IjEuMCIKICAgICBpbmtzY2FwZTpwYWdlc2hhZG93PSIyIgogICAgIGlua3NjYXBlOnBhZ2VvcGFjaXR5PSIwLjAiCiAgICAgaW5rc2NhcGU6cGFnZWNoZWNrZXJib2FyZD0iMCIKICAgICBzaG93Z3JpZD0iZmFsc2UiCiAgICAgZml0LW1hcmdpbi10b3A9IjAiCiAgICAgZml0LW1hcmdpbi1sZWZ0PSIwIgogICAgIGZpdC1tYXJnaW4tcmlnaHQ9IjAiCiAgICAgZml0LW1hcmdpbi1ib3R0b209IjAiCiAgICAgaW5rc2NhcGU6em9vbT0iNy4xNjI1IgogICAgIGlua3NjYXBlOmN4PSI4MC4xMzk2MTYiCiAgICAgaW5rc2NhcGU6Y3k9IjgwIgogICAgIGlua3NjYXBlOndpbmRvdy13aWR0aD0iMzQ0MCIKICAgICBpbmtzY2FwZTp3aW5kb3ctaGVpZ2h0PSIxMzcxIgogICAgIGlua3NjYXBlOndpbmRvdy14PSIwIgogICAgIGlua3NjYXBlOndpbmRvdy15PSIwIgogICAgIGlua3NjYXBlOndpbmRvdy1tYXhpbWl6ZWQ9IjEiCiAgICAgaW5rc2NhcGU6Y3VycmVudC1sYXllcj0ic3ZnNSIKICAgICBpbmtzY2FwZTpzaG93cGFnZXNoYWRvdz0idHJ1ZSIKICAgICBzaG93Ym9yZGVyPSJ0cnVlIgogICAgIGlua3NjYXBlOmRlc2tjb2xvcj0iI2QxZDFkMSI+CiAgICA8aW5rc2NhcGU6Z3JpZAogICAgICAgdHlwZT0ieHlncmlkIgogICAgICAgaWQ9ImdyaWQ5MTgiCiAgICAgICBzcGFjaW5neD0iMi42NDU4MzMzIgogICAgICAgc3BhY2luZ3k9IjIuNjQ1ODMzMyIKICAgICAgIG9yaWdpbng9Ii01LjI5MTY3MjYiCiAgICAgICBvcmlnaW55PSIzOS42ODc0OTQiIC8+CiAgPC9zb2RpcG9kaTpuYW1lZHZpZXc+CiAgPGRlZnMKICAgICBpZD0iZGVmczIiIC8+CiAgPG1ldGFkYXRhCiAgICAgaWQ9Im1ldGFkYXRhOTQ4Ij4KICAgIDxyZGY6UkRGPgogICAgICA8Y2M6V29yawogICAgICAgICByZGY6YWJvdXQ9IiI+CiAgICAgICAgPGNjOmxpY2Vuc2UKICAgICAgICAgICByZGY6cmVzb3VyY2U9Imh0dHA6Ly9jcmVhdGl2ZWNvbW1vbnMub3JnL2xpY2Vuc2VzL2J5LXNhLzQuMC8iIC8+CiAgICAgIDwvY2M6V29yaz4KICAgICAgPGNjOkxpY2Vuc2UKICAgICAgICAgcmRmOmFib3V0PSJodHRwOi8vY3JlYXRpdmVjb21tb25zLm9yZy9saWNlbnNlcy9ieS1zYS80LjAvIj4KICAgICAgICA8Y2M6cGVybWl0cwogICAgICAgICAgIHJkZjpyZXNvdXJjZT0iaHR0cDovL2NyZWF0aXZlY29tbW9ucy5vcmcvbnMjUmVwcm9kdWN0aW9uIiAvPgogICAgICAgIDxjYzpwZXJtaXRzCiAgICAgICAgICAgcmRmOnJlc291cmNlPSJodHRwOi8vY3JlYXRpdmVjb21tb25zLm9yZy9ucyNEaXN0cmlidXRpb24iIC8+CiAgICAgICAgPGNjOnJlcXVpcmVzCiAgICAgICAgICAgcmRmOnJlc291cmNlPSJodHRwOi8vY3JlYXRpdmVjb21tb25zLm9yZy9ucyNOb3RpY2UiIC8+CiAgICAgICAgPGNjOnJlcXVpcmVzCiAgICAgICAgICAgcmRmOnJlc291cmNlPSJodHRwOi8vY3JlYXRpdmVjb21tb25zLm9yZy9ucyNBdHRyaWJ1dGlvbiIgLz4KICAgICAgICA8Y2M6cGVybWl0cwogICAgICAgICAgIHJkZjpyZXNvdXJjZT0iaHR0cDovL2NyZWF0aXZlY29tbW9ucy5vcmcvbnMjRGVyaXZhdGl2ZVdvcmtzIiAvPgogICAgICAgIDxjYzpyZXF1aXJlcwogICAgICAgICAgIHJkZjpyZXNvdXJjZT0iaHR0cDovL2NyZWF0aXZlY29tbW9ucy5vcmcvbnMjU2hhcmVBbGlrZSIgLz4KICAgICAgPC9jYzpMaWNlbnNlPgogICAgPC9yZGY6UkRGPgogIDwvbWV0YWRhdGE+CiAgPGcKICAgICBpZD0iZzkwMiIKICAgICB0cmFuc2Zvcm09Im1hdHJpeCgxLjA1MjkwOTEsMCwwLDEuMDUyODg2NywtMzg3LjQ5MjEsMjY1Ljk4NDkzKSI+CiAgICA8ZWxsaXBzZQogICAgICAgc3R5bGU9ImZpbGw6I2ExNGY4YztmaWxsLW9wYWNpdHk6MTtzdHJva2U6bm9uZTtzdHJva2Utd2lkdGg6MS4zMjI5MjtzdHJva2UtbGluZWNhcDpyb3VuZDtzdHJva2UtbWl0ZXJsaW1pdDo0O3N0cm9rZS1kYXNoYXJyYXk6bm9uZTtzdHJva2Utb3BhY2l0eToxO3BhaW50LW9yZGVyOmZpbGwgbWFya2VycyBzdHJva2U7c3RvcC1jb2xvcjojMDAwMDAwIgogICAgICAgaWQ9ImVsbGlwc2U4OTQiCiAgICAgICBjeD0iNDM1LjA3OTM4IgogICAgICAgY3k9Ii0xMjQuMTQ0MjgiCiAgICAgICBpbmtzY2FwZTpleHBvcnQtZmlsZW5hbWU9Ii9ob21lL2FyZWd1ZXJhL1BpY3R1cmVzL2NlbnRvcy1zeW1ib2wtdjEwLnBuZyIKICAgICAgIGlua3NjYXBlOmV4cG9ydC14ZHBpPSIxMy4wNiIKICAgICAgIGlua3NjYXBlOmV4cG9ydC15ZHBpPSIxMy4wNiIKICAgICAgIHJ4PSIyMC4xMDMwMDEiCiAgICAgICByeT0iMjAuMTAzNDkzIgogICAgICAgdHJhbnNmb3JtPSJyb3RhdGUoLTE1KSIgLz4KICAgIDxnCiAgICAgICBpZD0iZzkwNyIKICAgICAgIHRyYW5zZm9ybT0ibWF0cml4KDEuMTUwMDAwMSwwLDAsMS4xNTAwMDAxLC01My43NzIyNzksMzkuMzI0NTY2KSI+CiAgICAgIDxwYXRoCiAgICAgICAgIGlkPSJwYXRoODk2IgogICAgICAgICBzdHlsZT0iZmlsbDojZmZmZmZmO2ZpbGwtb3BhY2l0eToxO3N0cm9rZS13aWR0aDo3LjkzNzQ2O3N0cm9rZS1saW5lY2FwOnJvdW5kO3BhaW50LW9yZGVyOmZpbGwgbWFya2VycyBzdHJva2U7c3RvcC1jb2xvcjojMDAwMDAwIgogICAgICAgICBkPSJtIDM4NC4yNTcxNywtMjQ5LjYxNjU5IC0zLjg3NDkzLDMuODc0OTQgLTUuNDc5MjUsLTQuNWUtNCAtNC41ZS00LDUuNDc5NzQgLTMuODc0NTQsMy44NzQ5NCAzLjg3NDU0LDMuODc0NTQgMmUtNCw1LjQ3OTg5IDUuNDc5NSwtMmUtNCAzLjg3NDkzLDMuODc0OTMgMy44NzQ1NCwtMy44NzQ5MyA1LjQ3OTk0LC0yLjVlLTQgLTIuNWUtNCwtNS40Nzk0NCAzLjg3NDk0LC0zLjg3NDU0IC0zLjg3NTMyLC0zLjg3NDU2IC01LjQ3OTQ5LC01LjQ3OTQ5IHogbSAxLjE3NjA3LDMuODc0NTQgdiA0LjE4MDQ1IGwgLTEuMTc2MDcsMS4xNzYwOCAtMS4xNzYwNywtMS4xNzYwOCB2IC00LjE4MDA1IHogbSAtNi45NTkyOCwxLjkwODI3IDIuOTU1OTksMi45NTYzOSA0LjRlLTQsMS42NjI2OSAtMS42NjM1OSw0LjVlLTQgLTIuOTU1OTksLTIuOTU2MzkgeiBtIC0zLjU3MTQyLDYuMjcwMjggaCA0LjE4MDQ1IGwgMS4xNzYwOCwxLjE3NjA4IC0xLjE3NjA4LDEuMTc2MDcgaCAtNC4xODA0NSB6IG0gMTQuNDM0NDQsMCBoIDQuMTgwNDUgdiAyLjM1MjE1IGggLTQuMTgwNDUgbCAtMS4xNzYwOCwtMS4xNzYwNyB6IG0gLTkuNTAzNDEsMy45MzY1MSAxLjY2MzE2LDFlLTUgdiAxLjY2MzE0IGwgLTIuOTU1OTksMi45NTYgLTEuNjYzMTUsLTEuNjYzMTYgeiBtIDcuMTg0MjksLTIuM2UtNCAxLjY2MjksMi40ZS00IDIuOTU1OTksMi45NTU5OSAtMS42NjMxNCwxLjY2MzE0IC0yLjk1NTk5LC0yLjk1NTk5IHogbSAtMi43NjA2OSwxLjE0MzUzIDEuMTc2MDcsMS4xNzYwNyB2IDQuMTgwNDYgaCAtMi4zNTIxNCB2IC00LjE4MDQ2IHoiCiAgICAgICAgIHNvZGlwb2RpOm5vZGV0eXBlcz0iY2NjY2NjY2NjY2NjY2NjY2NjY2NjY2NjY2NjY2NjY2NjY2NjY2NjY2NjY2NjY2NjY2NjY2NjY2NjYyIgLz4KICAgICAgPHBhdGgKICAgICAgICAgaWQ9InBhdGg4OTgiCiAgICAgICAgIHN0eWxlPSJmaWxsOiNlZmE3MjQ7ZmlsbC1vcGFjaXR5OjE7c3Ryb2tlLXdpZHRoOjguNTkyMTI7c3Ryb2tlLWxpbmVjYXA6cm91bmQ7cGFpbnQtb3JkZXI6ZmlsbCBtYXJrZXJzIHN0cm9rZTtzdG9wLWNvbG9yOiMwMDAwMDAiCiAgICAgICAgIGQ9Im0gMzg1LjQzMzI0LC0yMzkuMDg5ODMgLTEuMTc2MDcsMS4wMzkyNiAtMS4xNzYwNywtMS4wMzk2MSB2IDEuNTI2NjggaCAtMS41MjY0OSBsIDEuMDM5NDEsMS4xNzYwNyAtMS4wMzk2NCwxLjE3NjA4IGggMS41MjY3MiB2IDEuNTI2NCBsIDEuMTc2MDcsLTEuMDM5MzQgMS4xNzYwNywxLjAzOTQ3IHYgLTEuNTI2NTMgaCAxLjUyNjI4IGwgLTEuMDM5MjEsLTEuMTc2MDQgMS4wMzk2LC0xLjE3NjExIGggLTEuNTI2NjcgeiIKICAgICAgICAgaW5rc2NhcGU6ZXhwb3J0LWZpbGVuYW1lPSIvaG9tZS9hcmVndWVyYS9QaWN0dXJlcy9jZW50b3Mtc3ltYm9sLTQ4MjM4MC12My5wbmciCiAgICAgICAgIGlua3NjYXBlOmV4cG9ydC14ZHBpPSIxNC4zNSIKICAgICAgICAgaW5rc2NhcGU6ZXhwb3J0LXlkcGk9IjE0LjM1IgogICAgICAgICBzb2RpcG9kaTpub2RldHlwZXM9ImNjY2NjY2NjY2NjY2NjY2NjIiAvPgogICAgICA8cGF0aAogICAgICAgICBpZD0icGF0aDkwMCIKICAgICAgICAgc3R5bGU9ImZpbGw6I2VmYTcyNDtmaWxsLW9wYWNpdHk6MTtzdHJva2Utd2lkdGg6Ni4xNDIzMTtzdHJva2UtbGluZWNhcDpyb3VuZDtwYWludC1vcmRlcjpmaWxsIG1hcmtlcnMgc3Ryb2tlO3N0b3AtY29sb3I6IzAwMDAwMCIKICAgICAgICAgZD0ibSAzODguMTM0ODYsLTI0NS43MzgxNCAxLjkwNDkzLDEuOTA0OTMgLTIuOTU1OTksMi45NTU5OSA3ZS01LDEuNjYzMSAxLjY2MzA5LDVlLTUgMi45NTU5OCwtMi45NTU5OCAxLjkxMTUzLDEuOTExNTMgLTAuMDAzLC01LjQ4MzA5IHoiCiAgICAgICAgIGlua3NjYXBlOmV4cG9ydC1maWxlbmFtZT0iL2hvbWUvYXJlZ3VlcmEvUGljdHVyZXMvY2VudG9zLXN5bWJvbC12MTAucG5nIgogICAgICAgICBpbmtzY2FwZTpleHBvcnQteGRwaT0iMTMuMDYiCiAgICAgICAgIGlua3NjYXBlOmV4cG9ydC15ZHBpPSIxMy4wNiIKICAgICAgICAgc29kaXBvZGk6bm9kZXR5cGVzPSJjY2NjY2NjY2MiIC8+CiAgICA8L2c+CiAgPC9nPgo8L3N2Zz4K;" vertex="1" parent="1">
          <mxGeometry x="476" y="175" width="50" height="50" as="geometry" />
        </mxCell>
        <mxCell id="aSY7YGyr1cNNzH9c-0jM-59" value="" style="shape=image;aspect=fixed;image=data:image/svg+xml,PHN2ZyB4bWxucz0iaHR0cDovL3d3dy53My5vcmcvMjAwMC9zdmciIGlkPSJMYXllcl8xIiB4PSIwIiB5PSIwIiB2ZXJzaW9uPSIxLjEiIHhtbDpzcGFjZT0icHJlc2VydmUiIHZpZXdCb3g9IjAgMCA2MS4wMjgyNTkgNTkuNzMxMjc3Ij4KICA8ZGVmcy8+CiAgPHN0eWxlIGlkPSJzdHlsZTIiIHR5cGU9InRleHQvY3NzIj4KICAgIC5zdDF7ZmlsbDojODZkYTJmfS5zdDJ7ZmlsbDojMjRjMmZmfS5zdDN7ZmlsbDojZmZjYjEyfS5zdDR7ZmlsbDojMDA2OWRhfS5zdDV7ZmlsbDojZmY0NjQ5fQogIDwvc3R5bGU+CiAgPHBhdGggaWQ9InBhdGgyMiIgZD0iTTU2LjExMzgyIDMzLjczMTI3OGMyLjYtLjIgNC43IDEuNSA0LjkgNC4xLjIgMi43LTEuNyA0LjktNC4zIDUuMS0yLjUuMi00LjctMS43LTQuOS00LjItLjItMi43IDEuNi00LjcgNC4zLTV6IiBjbGFzcz0ic3QxIi8+CiAgPHBhdGggaWQ9InBhdGgyNCIgZD0iTTI0LjUxMzgyIDU1LjAzMTI3OGMwLTIuNiAyLTQuNiA0LjQtNC42IDIuNCAwIDQuNyAyLjIgNC43IDQuNyAwIDIuNC0yIDQuNS00LjMgNC42LTIuOSAwLTQuOC0xLjgtNC44LTQuN3oiIGNsYXNzPSJzdDIiLz4KICA8cGF0aCBpZD0icGF0aDI2IiBkPSJNMzEuNjEzODIgMjUuODMxMjc4Yy0uNC4yLS42LS4xLS43LS40LTMuNy02LjktMi42LTE1LjYwMDAwMDQgMy45LTIwLjgwMDAwMDQgMS43LTEuNCA0LjktMS43IDYuMy0uMy42LjUuNyAxLjEuOCAxLjguMiAxLjUuNSAzIDEuNSA0LjIwMDAwMDQgMS4xIDEuMyAyLjUgMS44IDQuMSAxLjcgMS40IDAgMi44LS4yIDMuNyAxLjQuNS45LjMgNC40LS41IDUuMS0uNC4zLS43LjEtMSAwLTIuMy0uOS00LjctLjktNy4xLS41LS44LjEtMS4yLS4xLTEuMi0xLS4xLTEuNS0uNC0yLjktMS4yLTQuMi0xLjUtMi43LTQuMy0yLjgtNi4xLS4zLTEuNSAyLTEuOSA0LjQtMi4zIDYuOC0uNCAyLjEtLjMgNC4zLS4yIDYuNSAwIDAtLjEgMCAwIDB6IiBjbGFzcz0ic3QzIi8+CiAgPHBhdGggaWQ9InBhdGgyOCIgZD0iTTM0LjExMzgyIDI3LjMzMTI3OGMtLjItLjMtLjEtLjYuMi0uOCA1LjctNS4yIDE0LjItNi4yIDIwLjgtMS4xIDEuNyAxLjQgMi44IDQuMyAxLjkgNi0uNC43LS45IDEtMS41IDEuMi0xLjQuNi0yLjcgMS4yLTMuNiAyLjUtLjkgMS4zLTEuMSAyLjgtLjcgNC40LjMgMS4zLjggMi43LS41IDMuOS0uNy43LTQuMSAxLjMtNSAuNy0uNC0uMy0uMy0uNi0uMi0xIC4zLTIuNS0uMy00LjgtMS4yLTctLjMtLjgtLjItMS4yLjYtMS40IDEuNC0uNCAyLjctMS4xIDMuNy0yLjEgMi4yLTIuMSAxLjctNC44LTEuMi02LTIuMy0xLTQuNy0uOC03LS42LTIuMi4xLTQuMy43LTYuMyAxLjN6IiBjbGFzcz0ic3QxIi8+CiAgPHBhdGggaWQ9InBhdGgzMCIgZD0iTTMyLjgxMzgyIDI5LjkzMTI3OGMuMy0uMy41LS4yLjggMCA2LjYgNCAxMCAxMS45IDcgMTkuNi0uOCAyLTMuNCA0LTUuMyAzLjUtLjgtLjItMS4yLS42LTEuNi0xLjEtLjktMS4yLTEuOS0yLjMtMy40LTIuOC0xLjYtLjUtMy0uMi00LjQuNi0xLjIuNy0yLjQgMS42LTMuOS43LS45LS41LTIuNC0zLjYtMi4xLTQuNi4yLS40LjYtLjQgMS0uNCAyLjUtLjQgNC41LTEuNiA2LjQtMy4yLjYtLjUgMS4xLS41IDEuNi4yLjggMS4yIDEuOCAyLjIgMy4xIDIuOSAyLjYgMS41IDUuMS4yIDUuNC0yLjguMy0yLjUtLjYtNC43LTEuNC02LjktLjktMi0yLTMuOS0zLjItNS43eiIgY2xhc3M9InN0MiIvPgogIDxwYXRoIGlkPSJwYXRoMzIiIGQ9Ik0yOS42MTM4MiAzMC41MzEyNzhjLS40IDItMS4zIDMuOS0yLjUgNS42LTMuNiA1LjQtOC44IDcuNi0xNS4yIDctMi4yOTk5OTk3LS4yLTQuMTk5OTk5Ny0yLjEtNC4zOTk5OTk3LTQtLjEtLjguMS0xLjQuNi0yIC43LS45IDEuMy0xLjcgMS42LTIuOC41OTk5OTk3LTIuMi0uMi00LTEuOC01LjYtMi4yLTIuMi0xLjktNC4yLjctNS44LjMtLjIuNy0uNCAxLjEtLjYuNTk5OTk5Ny0uMyAxLjA5OTk5OTctLjMgMS4yOTk5OTk3LjQuOSAyLjMgMi43IDQgNC43IDUuNC43LjYuNyAxIC4xIDEuNy0xLjIgMS4zLTEuOSAyLjktMiA0LjctLjIgMi4yIDEuMSAzLjYgMy4zIDMuNiAxLjQgMCAyLjctLjUgMy45LTEuMSAzLjEtMS42IDUuNS0zLjkgNy44LTYuMy4zLS4xLjQtLjMuOC0uMnoiIGNsYXNzPSJzdDQiLz4KICA8cGF0aCBpZD0icGF0aDM0IiBkPSJNMTMuMjEzODIgOS41MzEyNzc2Yy4yIDAgLjcuMSAxLjIuMiAzLjcuNzAwMDAwNCA2LS42IDcuMi00LjEuOC0yLjMgMi41LTMgNC43LTEuOC4xIDAgLjEuMS4yLjEgMi4zIDEuMyAyLjMgMS41LjkgMy41LTEuMiAxLjYtMS44IDMuNDAwMDAwNC0yLjEgNS4zMDAwMDA0LS4yIDEuMS0uNiAxLjMtMS42LjktMS42LS42LTMuMy0uNi01IDAtMS45LjYtMi43IDIuMy0yLjEgNC4yLjggMi41IDMgMy42IDQuOSA0LjkgMS45IDEuMyA0LjEgMiA2LjIgMi45LjMuMS44LjEuNy42LS4xLjMtLjUuMy0uOS4zLTQuNS4yLTguOC0uNS0xMi4zLTMuNS0zLjMtMi43LTUuNjk5OTk5Ny02LTUuMjk5OTk5Ny0xMC42LjI5OTk5OTctMS41IDEuMzk5OTk5Ny0yLjYwMDAwMDQgMy4yOTk5OTk3LTIuOTAwMDAwNHoiIGNsYXNzPSJzdDUiLz4KICA8cGF0aCBpZD0icGF0aDM2IiBkPSJNNS4wMTM4MjAzIDM3LjYzMTI3OGMtMi40LjMtNC44MDAwMDAwMy0xLjctNS4wMDAwMDAwMy00LjItLjItMi40IDEuODAwMDAwMDMtNC44IDQuMTAwMDAwMDMtNSAyLjYtLjMgNSAxLjUgNS4yIDMuOS4xIDIuMy0xLjQgNS4xLTQuMyA1LjN6IiBjbGFzcz0ic3Q0Ii8+CiAgPHBhdGggaWQ9InBhdGgzOCIgZD0iTTQ3LjAxMzgyIDIuMDMxMjc3NmMyLjUtLjIgNC45IDEuOCA1LjEgNC4zLjIgMi40LTEuOCA0LjcwMDAwMDQtNC4yIDQuOTAwMDAwNC0yLjYuMi00LjktMS43MDAwMDA0LTUuMS00LjIwMDAwMDQtLjItMi41IDEuNi00LjggNC4yLTV6IiBjbGFzcz0ic3QzIi8+CiAgPHBhdGggaWQ9InBhdGg0MCIgZD0iTTIwLjkxMzgyIDMuOTMxMjc3NmMuMyAyLjYtMS41IDQuOC00LjIgNS4yLTIuMy4zLTQuNy0xLjYtNS0zLjgtLjMtMi45IDEuMy00Ljk5OTk5OTk2IDQtNS4yOTk5OTk5NiAyLjUtLjMgNC45IDEuNTk5OTk5OTYgNS4yIDMuODk5OTk5OTZ6IiBjbGFzcz0ic3Q1Ii8+Cjwvc3ZnPgo=;" vertex="1" parent="1">
          <mxGeometry x="695" y="415" width="51" height="50" as="geometry" />
        </mxCell>
        <mxCell id="aSY7YGyr1cNNzH9c-0jM-60" value="" style="shape=image;aspect=fixed;image=data:image/svg+xml,PHN2ZyB3aWR0aD0iNDA5NiIgaGVpZ2h0PSI0MDk2IiB2aWV3Qm94PSIwIDAgMTkyIDE5MiIgZmlsbD0ibm9uZSIgeG1sbnM9Imh0dHA6Ly93d3cudzMub3JnLzIwMDAvc3ZnIj4KPHBhdGggZmlsbC1ydWxlPSJldmVub2RkIiBjbGlwLXJ1bGU9ImV2ZW5vZGQiIGQ9Ik0xODYuNjU4IDEyNy42NThDMTkwLjExOSAxMTcuNzQ2IDE5MiAxMDcuMDkzIDE5MiA5NkMxOTIgNDIuOTgwNyAxNDkuMDE5IDAgOTYgMEM0Mi45ODA3IDAgMCA0Mi45ODA3IDAgOTZDMCAxMjIuMjM0IDEwLjUyMyAxNDYuMDExIDI3LjU3ODMgMTYzLjMzOEwxMjQuOTU4IDY1Ljk1ODRMMTQ5IDkwTDE4Ni42NTggMTI3LjY1OFpNMTY5LjEyMiAxNTguMjA1TDEyNC45NTggMTE0LjA0Mkw1NS43OTc4IDE4My4yMDJDNjguMDI2OSAxODguODQ5IDgxLjY0NTUgMTkyIDk2IDE5MkMxMjUuMjg4IDE5MiAxNTEuNTE0IDE3OC44ODQgMTY5LjEyMiAxNTguMjA1WiIgZmlsbD0iIzEwQjk4MSIvPgo8L3N2Zz4K;" vertex="1" parent="1">
          <mxGeometry x="475" y="655" width="50" height="50" as="geometry" />
        </mxCell>
        <mxCell id="aSY7YGyr1cNNzH9c-0jM-61" value="" style="shape=image;aspect=fixed;image=data:image/svg+xml,PD94bWwgdmVyc2lvbj0iMS4wIiBlbmNvZGluZz0iVVRGLTgiIHN0YW5kYWxvbmU9Im5vIj8+CjxzdmcKICAgdmlld0JveD0iMCAwIDIzMSA3OCIKICAgcHJlc2VydmVBc3BlY3RSYXRpbz0ieE1pbllNaWQiCiAgIHZlcnNpb249IjEuMSIKICAgaWQ9InN2ZzQiCiAgIHhtbDpzcGFjZT0icHJlc2VydmUiCiAgIHdpZHRoPSIyMzEiCiAgIGhlaWdodD0iNzgiCiAgIHhtbG5zPSJodHRwOi8vd3d3LnczLm9yZy8yMDAwL3N2ZyIKICAgeG1sbnM6c3ZnPSJodHRwOi8vd3d3LnczLm9yZy8yMDAwL3N2ZyI+PGRlZnMKICAgICBpZD0iZGVmczgiPjxyZWN0CiAgICAgICB4PSItMTM4LjI0NjQxIgogICAgICAgeT0iODEuNTY3MjM4IgogICAgICAgd2lkdGg9IjM4Mi4zNjc0IgogICAgICAgaGVpZ2h0PSIyNDAuMjExNTYiCiAgICAgICBpZD0icmVjdDQ5NSIgLz48cmVjdAogICAgICAgeD0iLTE3LjYxMjYyMyIKICAgICAgIHk9IjEwNC4zNTg5OCIKICAgICAgIHdpZHRoPSIxNzEuMDUyMzgiCiAgICAgICBoZWlnaHQ9IjE5Ny4zMTQ0NCIKICAgICAgIGlkPSJyZWN0MjkxIiAvPjwvZGVmcz48ZwogICAgIGlkPSJnMTQwNyIKICAgICB0cmFuc2Zvcm09InRyYW5zbGF0ZSgwLjM0NzcyNzE0LDAuMTE4MjU1NykiPjxwYXRoCiAgICAgICBkPSJtIDk5LjU5LDE5LjUyIGggMTUuMjQgTCAxMDYuNzgsNi41MiA5MS45OCwzMCBoIC02LjczIGwgMTgsLTI4LjE3IGEgNC4yOSw0LjI5IDAgMCAxIDcsLTAuMDUgTCAxMjguMywzMCBoIC02LjczIGwgLTMuMTcsLTUuMjUgaCAtMTUuNDIgbCAtMy4zNiwtNS4yMyBtIDY5LjkzLDUuMjMgViAwLjI4IGggLTUuNzIgdiAyNi44OCBhIDIuNzYsMi43NiAwIDAgMCAwLjg1LDIgMi44OSwyLjg5IDAgMCAwIDIuMDgsMC44NyBoIDI2IGwgMy4zOSwtNS4yNSBoIC0yNi42MyBtIC05NC41NCwtNC40IGEgMTAuMDUsMTAuMDUgMCAwIDAgMCwtMjAuMSBoIC0yNSBWIDMwIGggNS43MSBWIDUuNTQgaCAxOC45NCBhIDQuODEsNC44MSAwIDAgMSAwLDkuNjIgSCA1OC41MiBMIDc1LjU4LDMwIGggOC4yOSBMIDcyLjQxLDIwLjM4IGggMi41NyBNIDE0Ljg2LDMwIGggMTcuMjcgYSAxNC44NiwxNC44NiAwIDAgMCAwLC0yOS43MSBIIDE0Ljg2IGEgMTQuODYsMTQuODYgMCAxIDAgMCwyOS43MSBtIDE2Ljg4LC01LjIzIGggLTE2LjUgYSA5LjYyLDkuNjIgMCAwIDEgMCwtMTkuMjMgaCAxNi41IGEgOS42Miw5LjYyIDAgMSAxIDAsMTkuMjMgTSAxNDAuMjMsMzAgaCAxNy42MyBsIDMuMzQsLTUuMjMgaCAtMjAuNTggYSA5LjYyLDkuNjIgMCAxIDEgMCwtMTkuMjMgaCAxNi43NSBsIDMuMzgsLTUuMjUgaCAtMjAuNTIgYSAxNC44NiwxNC44NiAwIDEgMCAwLDI5LjcxIG0gNjkuODcsLTUuMjMgYSA5LjYyLDkuNjIgMCAwIDEgLTkuMjYsLTcgaCAyNC40MiBsIDMuMzYsLTUuMjQgaCAtMjcuNzggYSA5LjYxLDkuNjEgMCAwIDEgOS4yNiwtNyBoIDE2Ljc2IGwgMy4zNSwtNS4yNSBoIC0yMC41IGEgMTQuODYsMTQuODYgMCAwIDAgMCwyOS43MSBoIDE3LjYzIGwgMy4zNSwtNS4yMyBoIC0yMC42IgogICAgICAgc3R5bGU9ImZpbGw6I2M3NDYzNCIKICAgICAgIGlkPSJwYXRoMiIgLz48cGF0aAogICAgICAgaWQ9InJlY3Q3NDkiCiAgICAgICBzdHlsZT0iZmlsbDojYzc0NjM0O2ZpbGwtb3BhY2l0eToxO3N0cm9rZS13aWR0aDo1LjI1MTk7c3Ryb2tlLWxpbmVjYXA6c3F1YXJlO3BhaW50LW9yZGVyOnN0cm9rZSBmaWxsIG1hcmtlcnMiCiAgICAgICBkPSJtIDI1LjM5MTUxNyw0Ny45MzA4NzEgaCA0Ljk4MDg2MyB2IDMuODMwMDI1IGggLTQuOTgwODYzIHogbSA2MS41MDA4LDE4LjU1NzA2MSAtNy4yNCwtMTAuMjQwMDAyIGggNC45NiBsIDQuNjQsNy4wODAwMDIgaCAwLjI0IGwgNC43NiwtNy4wODAwMDIgaCA0LjcyIGwgLTcuMjgsMTAuMTYwMDAyIDcuNjQsMTAuODggaCAtNC45NiBsIC01LjA4LC03LjcyIGggLTAuMjQgbCAtNS4xMiw3LjcyIGggLTQuNzIgeiBtIC0yMS41OTk5OTgsMTEuMjggcSAtNi42OCwwIC02LjY4LC03LjI0IFYgNTYuMjQ3OTMgaCA0LjEyIHYgMTMuNzYwMDAyIHEgMCwyLjM2IDEuMDQsMy4zMiAxLjA4LDAuOTIgMy4xMiwwLjkyIDEuNCwwIDIuNiwtMC42OCAxLjIsLTAuNzIgMS44OCwtMiAwLjcyLC0xLjI4IDAuNzIsLTIuOTYgViA1Ni4yNDc5MyBoIDQuMTIgdiAyMS4wNDAwMDIgaCAtMy4zMiBsIC0wLjQsLTIuOCBoIC0wLjI4IHEgLTEuMTYsMS42IC0yLjkyLDIuNDQgLTEuNzYsMC44NCAtNCwwLjg0IHogTSAzNS44MTIzMiw1Ni4yNDc5MyBoIDMuMzIwMDAxIGwgMC40LDIuODAwMDAyIGggMC4yOCBxIDEuMTIsLTEuNjAwMDAyIDIuODgsLTIuNDQwMDAyIDEuOCwtMC44NCA0LjA0LC0wLjg0IDYuNjgsMCA2LjY4LDcuMjQwMDAyIHYgMTQuMjggaCAtNC4xMiB2IC0xMy43NiBxIDAsLTIuMzYgLTEuMDgsLTMuMjggLTEuMDQsLTAuOTYgLTMuMDgsLTAuOTYgLTEuNCwwIC0yLjYsMC43MiAtMS4yLDAuNjggLTEuOTIsMS45NiAtMC42OCwxLjI4IC0wLjY4LDIuOTYgdiAxMi4zNiBIIDM1LjgxMjMyIFogTSAzLjYxMjM5LDQ3LjkzMDg3MSBoIDQuNDQgdiAyNS41MTcwNjEgaCAxNC4yOCB2IDMuODQgaCAtMTguNzIgeiBNIDI2LjI1Njc2OCw1OS40NjM5NSBWIDc3LjI4NzkzMiBIIDMwLjM3MjM4IFYgNTYuMjc1NDY0IGggLTYuMzg3NjEyIHYgMS44MjU2ODEgeiIgLz48L2c+PC9zdmc+Cg==;" vertex="1" parent="1">
          <mxGeometry x="456.58" y="425" width="88.85" height="30" as="geometry" />
        </mxCell>
        <mxCell id="aSY7YGyr1cNNzH9c-0jM-63" style="rounded=0;orthogonalLoop=1;jettySize=auto;html=1;exitX=1;exitY=0.5;exitDx=0;exitDy=0;entryX=0;entryY=0.5;entryDx=0;entryDy=0;endArrow=none;startFill=0;strokeWidth=3;edgeStyle=orthogonalEdgeStyle;" edge="1" parent="1" source="aSY7YGyr1cNNzH9c-0jM-64" target="aSY7YGyr1cNNzH9c-0jM-53">
          <mxGeometry relative="1" as="geometry" />
        </mxCell>
        <mxCell id="aSY7YGyr1cNNzH9c-0jM-64" value="&lt;font data-font-src=&quot;https://fonts.googleapis.com/css?family=Montserrat&quot; face=&quot;Montserrat&quot;&gt;Miracle Linux 8&lt;/font&gt;" style="rounded=1;whiteSpace=wrap;html=1;fillColor=#ECECEC;strokeColor=#999999;fontStyle=1;labelPosition=center;verticalLabelPosition=bottom;align=center;verticalAlign=top;" vertex="1" parent="1">
          <mxGeometry x="441" y="280" width="120" height="80" as="geometry" />
        </mxCell>
        <mxCell id="aSY7YGyr1cNNzH9c-0jM-65" value="" style="shape=image;verticalLabelPosition=bottom;labelBackgroundColor=default;verticalAlign=top;aspect=fixed;imageAspect=0;image=data:image/png,iVBORw0KGgoAAAANSUhEUgAAA9cAAAKxCAMAAABuc6/oAAABg2lDQ1BJQ0MgcHJvZmlsZQAAKJF9kT1Iw0AcxV9TpVIqDmaQIpihOtlFRRxLFYtgobQVWnUwufQLmrQkKS6OgmvBwY/FqoOLs64OroIg+AHiLjgpukiJ/0sKLWI8OO7Hu3uPu3eA0KoyzeyLAZpuGelEXMrlV6XAK/wIQsQYwjIz68nMYhae4+sePr7eRXmW97k/x6BaMBngk4hjrG5YxBvEs5tWnfM+scjKskp8Tjxp0AWJH7muuPzGueSwwDNFI5ueJxaJpVIPKz3MyoZGPEMcUTWd8oWcyyrnLc5atcE69+QvDBX0lQzXaY4igSUkkYIEBQ1UUIWFKK06KSbStB/38Icdf4pcCrkqYORYQA0aZMcP/ge/uzWL01NuUigO9L/Y9sc4ENgF2k3b/j627fYJ4H8GrvSuv9YC5j5Jb3a1yBEwtA1cXHc1ZQ+43AFGnuqyITuSn6ZQLALvZ/RNeWD4Fgiuub119nH6AGSpq+Ub4OAQmChR9rrHuwd6e/v3TKe/H6EXcrlaVNe4AAADAFBMVEX///8NqlkSrF2S2bRjyJRUw4q0s7NRTk7x+vXB6dW86NHq6uqq4cXa8uU7u3kYrmFLwISsq6swLC31/PjW8OOko6MksmmMiopHv4Hy8vKVk5Pu7e2cmpsqtG3R0NEsKCmEgoPN7d1/0qgGqFQkHh7l5eX4+Pjs+PJ8enq25c1ZxY1BvX3e8+g+OjuN17Ftamt1cnMIqFYApVI1uHTm9u6J1q50zqD6/fzJ7NplYmL4/fpVUlNxzZ5gXV4dsGQxt3JcWVra2dojICFdxpBFQkLW1dVMSUogsWZ90qb6+vre3t5py5my5MrCwcE0MTLh9Or09PSm4MK9vL0utnApJCUEplSG1ayj38Cg3r729vbKycq5uLjOzc2B06jw8PDF69hvzZye3bx60KTS7+BAPT6Y27nGxcXk9u0Ep1Lr+PGa3LrP7t+45s44uXdvbW54dXY4NDVXVFUCplAmIiNIRUaw48ltzJvT0tKHhYVoZWbj4uICplKXlZaV2reE1KsrJiiC1KoAplB/fX2c3LsDp1Rgx5Jsy5qu4sd30KKvra6PjY5PwocjHyDh4OAmIyN80qefnZ0ApU9STk+3tbbk9ewAplLS0NElIiN2z6J80aYrKClZV1gvLC1+0aYApVBqy5nAvr8Ap1GpqKi7uruRj5AkICEuKisApVFiX2AiHyCJiIhnypfDwsJ5d3inpaYkISJKR0gAp1NmyZZxb286NzhCP0AyLy8iHh8mICIjHx8kHyAkHiAjHx4lHyEAplEkIB/i4eEkICD8+/wjHh4lICEiHx/8/PwjHh8AplMlHx/8+/v9/v79/f0Ap1L+//78/v3+/v4mICD29fXp9/Dn9+8BplH0+/fu+fPj9ewBpVChn6AsKCf8/PsBplN80aUmHyCZl5jL7dsBpVHo5+cCp1HIx8fR0dGxsLAlISDMy8vc3Nzg398lISLU09PY19jPzs5qaGm9u7wmIiF/0qfFxMTv7+8IqVdkYGGb3Luz5czk5OS05czJyMiCgIDQ0M9raGg1NA8+AAAAAXRSTlMAQObYZgAAAAlwSFlzAAALEwAACxMBAJqcGAAAAAd0SU1FB+kDChQpJy/hW3IAACAASURBVHja7J1Jdhw5skVrTdihLwEDTHEORhhjAz7mhHsq3GtOpUgGGaGsRmLS7P+qUkMFQyLNrXvNv/6VkZGRkZGRkZGRkZGRkZGRkZGRkZGRkZGRkZGRkZGRkZGRkZGRkZGRkZGRkZGRkZGRkZGRkZGRkZGRkZGRkZGRkZGRkZGRkZGRkZGRkZGRkZGRkZGRkZGRkZGRkZGRkZGRkZGRkZGRkZGRkZGRkZGRkZGRkZGRkZGRkZGRkZGRkZGRkZGRkZGRkZGRkZGRkZGRkZGRkZGRkZGRkZGRkZGRkZGRkZGRkZGRkZGRkZGRkZGRkZGRkZGRkZGRkZGRkZGRkZGRkZGRkZGRkZGRkZGRkZGRkZGRkZGRkZGRkZGRkZGRkZGRkZGRkZGRkZGRkZGRkZGRkZGRkZGRkZGRkZGRkZGRkZGRkZGRkZGRkZGRkZGRkZGRkZGRkZGRkZGRkZGRkZGRkZGRkZGRkZGRkZGRkZGRkZGRkZGRkfHnR+9nz3+FjIx/ThznPI422pH/FBkZ/5BCfZ5HOVo5jpIFOyPjHxHjaO2oY9Rj1ZZ5nZHxT2jAy5jjKOXo7ZiZ1xkZ/4Co/ej7P2t34IdpnXmdkfHV4xxjd+H7P/Xo82iz1czrjIyvHc9HafU4xpit7+Tu/dxlO/9ZMjK+cvRWSmm04btcH6sd7cj5OiPja2f1sWt1nfs/fc6yE5vhuozM64yMrxtH3anMsmztin0cs/c5do5nH56R8ZV78FFpwI9axtoN+NypvY4ysw/PyPi61br1Msc4Osnd29xz9i7dO8NX5nVGxpedrYk6556xuXD1MdYs69wTd+Z1RsYXrdZM1juhy1HbmrsHb70d46i9550rI+PLpvXYdfnYPfdBTo/WGLMbo/bIep2R8WWr9U7m3muvo81RduHeP6Jq95F7s4yMrxhcqm3BjzLayS68tT1p17F/dLSZeZ2R8QWr9Wh1Z+9Rp9etNlYZgFOGGJWVfXhGxtcLavLY9RrQKHSPvsCdnX2nO0vylnuzjIwvOFuX3tmZ9WOWY5ftATZ8rrqj7ZjJ08zI+GoxEDDbjfi0797NeJnuxjtDdjPhs15nZHyt6JKsvVZDtR4cr3fF3r8468mM3ROXkpHx5brwsTN7lMEgPceiaLc2pGnWPXS3daReSkbGVyvXfbfdvUrwGG7E6xit7B+Q6R3RlJb364yMLxXTsox4wvG0G3EIH7s+18YOjb3ZmLt2pw5SRsZXirL2JE1Jrg2IWUN/9BgszJixj53Ua9TEpWRkfKnY+cwgzeHa/nu12USK75m6jf2TVtoxR+7DMzK+Tig76r3aBF+17ub7aVaImiR4B1E6asm8zsj4OtHFhc9Sy87kXmcXJN7ZlK09d3PYLkddK/M6I+PLxDFmA1IGyeNwoD7XnrOP06wedRdqpu28c2VkfJ14rmMBG0V7dFdlSnUDPsqwvcv4GuOYBSJ27sMzMr5MzFHHbrhbb4ge7Z581+6xsxsYKVIp4sTdimcfnpHxReIEddJq2RX7aKzOdlte0RXeDXgVl4L33rF/nvjwjIw/oRI/8kEet0hnmB11+SMBKrtA71589+ZHaYNjdv27eT3yS5GR8V+rxOcjH1Qha9W5y/RuxE3voHQdtbA0O449fM+Kwtnf5n30M78YGRn/nXgsDQ8FCuvRWytQMdfqtuFj5/gk3cnxsVv1+bf9PjAFyi9HRsZ/IcrRHqmSKCnMWlFPEDx6uDObs7Wzn+a7ainIGP7t+brtsX3mVyQj4z8v1nsgfqRed7rv3W7vRD762eb+2bmzuAU2HPmj2Ry8YWL/vbw+d19/tPySZGT8p7GTcT3U+zaW4QgqdNiZQMJxs++N4Zr+WW7XETu0v8f7YM2ObUh+UTIy/sNq3epj6LBzsiSrHX+9gpDCnqXFgs9+pfsetNv+CFhefw+XAkiVUT2X4hkZ/1FAt+z9kZG2FxBlrfTBBK0xVz1rWccCKc5gjEVA22363FN4/1uPmL6Al2cnnpHxH/Xg5Vxcnh/qkduupIfc6/GE217fv1Q8d9VztgIbe/9kPSGFNP/OfL2fL1zBax2Z2BkZfztOmVh7Wn7kY5mdO0LhMyia+xcAmS2EhXeDDmlzcP4KRsjfyGtWbn4SXiy/OBkZf7NagyVhm/1IG672EZiT3YcXb9jiUBA+QmbYnFxqhxd8P/5GH34CVevuzlpNeEpGxt8Kdb6PPS8/koPXonuCHx0erw+A4SVSHRnDPWAzdp9tHaWOX89rjmVcymZhXM8rdkbG30trJuvS60Paoef+UIBkJWTMdmmdx7Roj7HLNujSNY8RFy/O2b9erqn/INCrNto1v0IZGb8cHK36aI7Kj9RrdBMORYUFkwJHKYFGaUDOSGnq+NzJ7nrtl98QHQEN/tI6ZOSInZHx69V6Hj1QJMdjbThOe0vVcCo1q7GDUr0H7Z2JPaDjmoD0Puf4dd3Cvrv8Uw+gfuzP0I+8Ymdk/FrMUDECOrbGQ1QujbdaHxNfD7bgFbmU3YJjlgsmxV024zcJ/zd8cvsu9Wu/xOhlCUw9smBnZPxaDjEqTy0x13wkr2nD1S8bunrMEwP7Tr3e+b4EkR4H3lx7Okaa9Jf9PsJoQOe+oxdZ3SNXZxkZv5BDuOXpt7Nr7NND/S4lmAU4GTx6SCt0YGeU59U8gSFcOGM2/nXfPSSVFtxt2/n9CrXONO/LyHg4EB4UR0InXo+HKJrHKjCt6bX7HMWmmzv1uX+HrhsZcZbYwlJgZfdffU9lt/ks4ka53IGgheWInZHxYLWGo6G24G6ud5l9CBs+d4NcTObuWryx+I6LVw2oeJuIhw9a9QHm/NfeVEPEFKFTsGuoIHLBzhE7I+PRyujGmYtz33na1kNcrhmaZuTwrLt0H2OVtmi6Ay9uehegpn3wCPhVfbP9omzVR8DYFDnVhTdH7IyMR+KkyM5dWG3Gd3U9j4fymkJdPD91dRPYja3jmq8Hd20xaKW5G5+/uDfjhZ5dltXrjF12a99LSX+BjIwHGmoEgamKLXrd/hDnwzV3nRy6gKeNgQQS5XXsIjvbrtzkNV3AxIaPkv1r+TiFpoJ5mYu8ZiHew6IzR+yMjHsJyvi6e+/L1/Zo86G8OSGInIqZDFHgO8PZjo3J1D1KH6XtXxVqhmxh+8U71+mmbMbLA0A/zt1R1MIjIvM6I+NOWpfollldt1AGfoh7fcKenMWMO8SgVCWGJ8W5Clk5Lh2kwtC9M/KX5uu5u+4lsHz/Bxypa7Ry1nLMmbuzjIxP03rhyCF1o8G8LggZPXTm4p58xDZc373algQNRBD6tQ8/EEwxweF2/Upe795+T+6ldvDq9AW1+Mhhhq/7neZXLiPj4/SRtgG4pO+M7n0qJ/YQ2myK/N7DrjLh7YCq+ZLQR3QBaxQEFyjoNuq/9Lxpgl14Jpz7oTEm9ru6ade+G4LkYmdkfNxMj071owHfHXUvO/taeWh+HTjjQvo4rumabpzlNYZc7rlq1HNt7V22/0peVwyAxp7MRy+BDD9ORJU4fU1W7PnFy8j4IK0r2+9dDfeQjLKJ96Sdnc/3/+jOWmAoq9kn037vNETZjEZ5v+qFD8dic7WlktGv+Gme3r/jiDb03B1rdbCo+wESTJL88mVk3AqabmTIKNlB4aDg9odccwJYRoLtaqz66HVn9r8rYDTqbPWK3ScO2b+CN0OWfAXxc7/+fktiz6oCDqQ1P80vYEbGjRH2GobXEUpkuwknvedDsiSATmtpglBQOWrzNMsbNXxqqTkHO7UWjJC6K/rj9XoP+t6uj8XzQnnyhRPQ7sr3Kz5NVuU5Ymdk3MjMWEKh5Q/UE79LkOH8+JGHQmXdbSGdGlzvGboqrUAXTm2tXYsfmCRzsCT/BSrWflsM+vvFh6wxYah0+PQHffGpVx67MjJudLrQJymvsCxXw4ZeHuRjEsMiWJq4U/4LOdIRPntkeqOwctlefapLOvcg/gt6pPQOR4utm6i1uV+dlb2tOXDStV8+d2cZGW9m6wmnctblomtcS7Njofb9kMQw5dQ04xLFxQu82oE6KYzswetR/3tUcgWWHs5ran5kNa+ILFOJUb5TvUOThSdJduIZGa9iJ8kC2S3zkYUZeinDX3morrZTmAijr5QPxA+geOyWe3EsG4LEA2o6Q4K4/UJeg1kfJUhhiCHShXPl2o8jRcqnWJgUWcjIeNWFt3GWEA+tOy2Xuy22Z5TJh0QLrc6SrnkS7Hw+ngpLN4Br4EdUFgaT1kLrbCf6w3uzo577ebH/SAm33Xk8BSXlRV1hf94CNzs78YyMn9NaJHiFOa32ET1zV0i0PSZauNo1/u5puiOfwJTe1hJPovpKmWMIFA9R0v3/j+b1fuFzjnAWcJ7mutVtCeIZxDZOSkgW7IyMH3GSysUSvUfh8XIVxnEHhcBHkmWI/T6QIuUKXmvszLrA1BXAUSZ322XxpbWUh99eEFHmUkvRFL5efzhb72fJhFgKRC6/mhkZkTcmMqekp4qIAtMqCifnDNecB3IlVEstzhMLLvkiU6InFy19ucjBmI3bydL9Yb2UbnXHDoCO4NwPnt3mlyEspcY6oNbS7QVyd5aREWkNAhRUeL3647nWzqH9q2zNWHPff40psOwao4V3ln4A+NTPnpPXCPMe/4t5e5RH+/BTp91SNQuJVx9IDj8DctkTtwjVWlYrAwpZfkEzMi7CtesteVacrCswb+VI5F0+Uq/Jaq09aogJD0v3HowxwR4eu44X/4/dT9M0P5zXMkChaJLRxb3ZUVRhcXbgZ/H02Em/zoSnZGRQantlxaXiAeP0CAceSmygSh/Ja9HaJNlCtx8BJEmUu4IyBRfuzCdCC+R8Leb+o/tw0lndQ9r56oTNU4L/xxCM+xnaLKtqyrs/ML+mGd8+mkSKIcYDmCYSpLudPSVPiyB75M6MvQfO1rTuoS68nxWXyZ6aKzUcblffj5DRwb+UB/Hh3TfxorXyQ7b45YdVIRYGhwNU2myj5Yid8d0DcZMjiFhdsnR05V3Dao1z5iP78N1vW53nKa6sHNOGXOsPoNsv4iba3V/cjwf519BIOlVZby94Hrvyo5zm8l6FpbDwtGwrPpxf1ozvHSeWs3EU3oXaFKfDpbquIwAmD3lfY+oRq2+A20fwumadbrrgcO/HxGhlkHba6JKDj9Vr7+qNEWH/kTOMeGm6PcK1vv8Ccy4+Z5llCYEZeezK+N5NOAZaq9eC/i/jNdtv8xwE9k4UVL8f4V9zSF7HVfiFcYtH4Xo2raqhgxQ8DZ2wW3mM9/Fsy60E+QKt3ryfFTfjrgPUV+zkNsJN7vNTUTzjWwdYkSmJYifl6pd/hijPqrwgRbE+Nl/3WKWT2U3WCEAwL84xpPtKrMMhbAIXOx/KPjbnz8NVmYv21Z8P1ccdHzAOofqzcg9tFqWYerbiGd+4C6e4tZO2G6FP7TNHD7CZpy+QpQ+BM48o887SO7944aH7fPdgTS0da3avXdCw4X88PZTX2IZc+7JjSQvz6XOsc4RAg9KKPXb42ujSO2TBzvi+ab0Tpj7vlhjmFYyNMLv0ItxVLYhO+gGoB7LhoSxog9yYd9vpPbsrbgapS7k0VmAIDR6P6ZuRr7UEYLSw11NfqZephBrGIt0N3Vx4atdzsRHYH5KJnfFNo3Bsnpd8aKgiTO5bc+dgzNhjp2B7SBKQ4Xx/cC27164hSxiA8wrtipfT1ycUzqB1ASx9JK/Zrbcq9hyOGPN162zri4O62uFtlHgczYuGBsI0Ezvje4arahkfvZxN30x/uuzO8Y1fe+ZuazyED2/gQ4CMjMCTBn/kLOLPDob4c65FocWKBw3Ch+ZrIWr7+cMIXcCUxztklwapm7Vet68AZ7r278wQO35o25eR8Y8L2mGHVIZo5uEZrC4n68G1qi/uwuORDBnq9fdo48lAOnI1j3b9Hs7xfh5Nfo4p0fuhc1SM+XEJr/EimH21S3ul4vU1NBxqU52zVsv+KQev/BJnfL+QPAlXGgEzBld62mOSkuFnqxB4V+zswbra3EQPLuJtTpyqa2y5EEM6Ytjm6cG6nJ76gbw+V6gJ+7hAAHG6/G7U/xU7d36uzvCu04DcGuj2iUdffpEzvmEXXmVf9NhAtT1Zkx44coUWyWXCw1z7QAJWBcgUH2N8hiW95+lOIz41oV+2zsPCu3sDDXUfyGtcOFmsc+VShQV986K5X1zTeB6V1oWHc0SDIDqCfJIjdsa368Ixra+CMz0F78l3V0ZOXTjPgwZtsYXqvZcH/D6Q+1/zPOFgV2r2ywH8ILF3m/xs4g/z0D32Q3wSzUMut5DDh82Blfa0v+CnJ03AMpnnuGZu+ON8jpJA8Yxv1oXPQZaUJjFzlm4SF8RRglYhXYoU3334I/5cYE+Bi1T1zMC19NOOe6iA5K+2ARZs7qQ/C/659/N6LjGptBH7De+c7osdmjdtTcTUVaT8+4twWMC+7N+YLO7SFzvjm3Xh4XGpD1eX7ujqzP/U2E5duoV1PcR8jCsTWTU1AdJNq4soqVrwFK9nK8p3dx12P68t0VMsWQicnrWdx9N+jaGQOOV59xUTS5Ef/O7dikwx5T1FFjK+VZxRkav2G1PJXjx2FCG7ZIJPj11rd8ztEW2hI7pr1m2lYHrNlXmWFaKF5+IIdUrVxFdT/bMH9uF8vOrE3MVEwgGMc0c/7MSpyv4FAsIKPrXEQ8AZP0fsjO8U9rCgPAJ1HVwNNRAG5Al1geFKy6jeFfuBBiDm2joBf1doVtfmmnNXU1+BXRp78Bpbr0fwZprZu7efu2+fAVV16J8jTLXrtPveVXyqZ3ju+X6IRA/H+xyxM77ReH15Ue/vewfijq6+moLkwzOUZ8ZhnD/gST+yuEY0Ic5OvHYV5cmGPAQbDolXsUgLYgZQknsv2kMWDR74fsEY3oeOn/TYyBWKRj8UJUcamV4/poBDZsjIY1fG94m+dn0jZwFrNX11mrJhOlcXcaWLwzUXIwjVD7xkLQp4awIgW7JdTJAx6zwFhY+rkvaAnt+v10oeHfEIuvbhXb6mv/C8m/CqqtLVcfTw4hsSvl84o9mJZ3ybvFa432bbXRdbJv3n1+WwVcjD+nSEmmF5wKHrnAy06PRrimsT3tUuBnBmIjdn9ViYs167rzO8P2738y2qci2R1WMIEm8DVaWnPcOXALMfHYHDMAvgpk3X4JMmv94Z3yNAglHaZgnvDVbep9zl1UZgNF0+LRWI2Ig/0AJcZBGF+2kEXJJVlVPsvVlm6d514dkeWGrh1DML7+84o/6OkxY8VBrOqjnv7IFoK47ftvqKJbGg33+B2XPEzvgmazMgWzNYXC659gxdjjDFbdd+/MliucqujvMBFw34XGj193DBs713w0WxPUcPmZT6ojq4S/i4uw9HhHBnJzf2Q9NeHg4jkGtnmXFZ65oE7WfSOuK+Ve0ZWi/95A+NI0fsjG/Shx92zN1UkTcdGkaFlIZJrdQQs/ZOI2jPD6SG7lj07CzEVx28SlzM9uTd4/Y0AvoZNp338eHd8qzEqE6dPG7mFC8+ppRrgKMM2W0AQS/FDf/oNVxA6DjAvmXBzvge9RpGVAU22ovqIjAo2i6tuxY2hb9txcvFdd7xSA+geEnMwUzYRYvrQwFgV9RD5QNgJDXa83t5raLpsGuXvT2VQXLRztuT6cXzydf3iAYNlHFghe9ICVvdmomd8S3yWvPJ3j35VhDg5AV2HasFcGRZdnf/zAasPKRcaB6pZKbvnpoKlWZgp9Y6AosyBIGZhbs/vpPXs6tBqEMQD50uppTqje/HtZ0rSi3wQb5l5BKnci/SVuaey0eadmV8j4gD8lSo3661esmuAdu8dAtclc91lcK7r3kWxE3Hi16/idwucCdyhXvs7aqTqhgslfNeXk/EVlQsWwggOT0MZ4fp0esZUmnXVoTcZuruVaXy5qluyg+VhZpf84xvkdcNbbMiKWrh4zOFlVq4d4IOMZt9nlWaVHngCtxRJBphfblCVbhhmAc03E+Ds4+bNJ8iD+ghctQ69eg7eKFL6qj6UHo+wibggqgIB+eR4RyvG99EQAXeiE+EBIpnfIM+PBgaLSw4jqBO04WPXZ9pYdmXcWOKTOQj7r7mmJdb5twvI5ak0jDHFQoVBDN+mPromxx39+FQzYbr+aWmKeDw1TxjI5HmZvwM36HjUoXwgdGmEFnEX9qV8jWtAjL++dG6BOYZuT3qxd6CU+E+ik1XCW6lGbrG/cWZKLNouqf6KyPQnSO2WvIzQJuzpoNyOe/5fkkkkWKNdmGs4+RfCg/nrV6f8HryFPKcD7lQMOWCl4pBa3nFzvjHx85T98yQpBbaYUzCeGrOJ/KcCbWv1hc5gn7YfKRgU+eXELMpToRk2sUU0hVSLL0H+ZPxPTgid+5cZ+9Sv/b7aAFEkVk6rkfFElBKQ9Gt/UJXu+a8tB4BZiX3AbchtZZf9ox/drBJUltoKjG8s5GdVqmiO7vUD63o9w+XR6qHLK900Amb63Z59q2hZOg4rgVa2HbVErX2Xl7vZ88IeaMGOqZL2m5aX8dijCXAKL3O4nU8DIRqaBvP2YqwOY3+em7EM75BXg/4lBpQTtTIqrNqa8skqBZFwCoqiqlU+oC0At03Yoig1kZwumiaKf5nq3FJbiJJWHH1u7yPEGAjc8WgUrEZnC+BxFHCIFATH19vCGFF71wBpvDn1WKTkSO/6hn/+BiCOVAxOV1VjyBWus06du2u2GH3a+O8wvTqgXqNyYde8wNW5lwKjo3QGJ4qmpFvcEDRXbiHS9FewNeKs5weXf2INV+j8463XFVUCZTNERW6hU+foDMfBPklz/gOBZvbENyqUYv3IGHhQ+ECwB6zXlRNAV/dSnhXu/DkiWAX7quDIuFWvTT+aAC43ZgF9xqZ76N8/nISw630xfMYLzsvaokKKQ7qDhVrKeYUsmxYgxZFGS8Dz+zBM75HvbbkcUAKw2h232F+TaXWhmec6BhVmRWVbLybHPTgZcUC6xIT3y/VVpOPxbPjJS0X0/f+6ad57TxtWnKuWkoshV7xUhZpYAmgNIQ4l1pGeP0JSykrjECrM3Z+wTO+RSD014JSSattTYRLuefXpjqCuv0nat1IDQax8u6rujJjIsZsIAQWwIs1fKkFdQpB48khZLV+jjdzme6k71x+PGnQRfk32+eIHv240Cn683lqK3qXxFqeZ0xW64zvkte2sTS2Q0+rSI61Ky7kTYoc9+2Q6/YYxm/ffdUGTOQIYQWNr1VFjHU6I/U5AjvOfI0/wOc7dhJXNyGwJc4LTRVxj9/I/nsA27+1vHJfIqjsBWSH0BKgBrMSQprxbfL60BEHZDiyItPcm7vZDRl+rHCmyuEKk2nYtTvguwN2l5hZ1CuZ+vUMy3MHBgorurOqmx6pRp2f1uvneSp5HHct1I04dbUT0zCbc6/uXK9HuHXStyu4oJtuxQJwF/GSTXjGt4npubeyMkMFEM9LTCt1wKHmdpfJPRSS6lwm/t1+9gR+ag9sipHAO4PNzEslhUXajIsXONbP8jrsgEKkaUC0Dt2VZSvP/FzBvK6w/kL89JrFvZdPZQ1pPbIJz/g+oS286oF7YJ19rOn2eWlB38rueJX/Xk2UmFjS3dLefVUPyo7QzNazB0XjiR0d1jtwrzpu1nwgF6vP8vr0nHUpJikufHrkGg7sx/FiAwDMlI3cLtO0AJzrdqov1+ctV2YZ36wP14BLBX9g2/3KHwXDjhArWh61dy0vwbW4ryfEMWuATel9t97zgpCgXlTZTx8z9IbraMH9/CyvSVYKdqTvqpfNUD/DZnfqFKSVwQQ0Lr6torxQ9OOrHNCPnK0zvlMMMGY9uFw62QXeeqi4DWAMtNYl6YnZhqIj92UGOYkx8rbwl2d3DV8aJTU8bGc/FWKR0g3n67MXrMzGPGRChfSwG1cGEd6lPQQ0j7ZKD0/t/YMB6L2rj2zLntU643vV610yRwFiWemMz9AkiXqtK0fB6+4o/bL6kV953/Vj981qF9u4x9PCPmA/OZ5YvCmD8NRVLNXv8rOeXnWysAbsskVJ2XqCmrmOdByzJuZd5WUjsN8jLr9zhNNffqEzvlW0evlmHcH8mCP09GtAuDALWBdx02N2oDHv6n3vD5ur7+6eYloio/vx7Ph7Um4HAgnnBO6GN0j/dFafJwswRBqKlBHfyzlrl9ZdXxSF25LFxY7dmXyBCgfhlozrjG9XsPseg5dOuDvF+qj9SuJBnzvCWlrV7yn1yxo87xdsGRmjzbOgGLqghMXJWdw4XLHrCcFW6zM+11RC4UVvdOmpSVfuSH0ETNy12ghvA8FyqqdpzLd/OzfhGd8uFo7Rl68laK6TixG6ZmWEAP/Q4hZuxYizlNvpu3k9FFRiz1WVHt0J+QyO5Nxdv7iwaO7H7q7Bk93b7HFVj8YBGFyM2xfGbCwPdbiAooCGIovbuCqU/BHF84yMf1wjfsKvCkvprpMdZy/tNfmlpdVHKR6n9MKZhUXavWQ5ZVYWZuzmzdtl+NQAO1zuS0grDHddn/T1rOsXx/U9KuP4+QIg278EBB1vj3E9KC77kIkL3y7VxcKds3XGN4w+osrh03WVObNxSPaQzKXmCcrBFZx3CyT5vbzmkjWDOCJae6EhCEJVlqWI7j156zo/PuNpnv182iP1KgLCr/3bZdgnI4wlGTrEiJkt4ak6ftEk7Im75IEr4zvG2fT2YMht5LY2ALs77o7cq7uH3qWRjTlDcTTAd20/VP6nbw8mSVMb2KO1Eguu5YSvgl5ZvXz23AkiGa9SWPEFqUxR4YmWMBPCDHcxAKN4A9Jc0JaPkWmd8S1jhho3A7RXol0XS8BGhujN83BjpbCRSoGhUHAXIz5Cr9vm3fMWOG0ALmOtgHAjZVQFf45P8lqES1A660B0HHGHYbmWNX5Jn+5pngZjdxkrNFUm8ojpZZ/xniPrRQAAIABJREFUXaNcxrWsrR1Tq1rbXYV9qCDruGzuIVG1ixxy31GL2tp0Bqqlyw6b+nYJHNdEy46AzvwzzbSyGK15L801ekBPkSSXw33C7tDAHhRbUDZ77Nkf2AJkZPxjCzYcxks13HVTCIWxrD7CnXKMEAxuKomJ/Gh3RT1P2J3d/wx87xA72I1Al5elXApt9YKgzYLts7UZE3hcr2qPuVl22cFm3Vl/+rDZFV3kub7XoGhGVuuM77s4sxgzByshviKvKX2qlGCGLTyl25TrzAdZ654s6f4TrLFHUDunBGxO2h3PXeWRZqlhd3l88mJdK6/QXJFzgvAhtVqLrjDRHkUJpHYZbM8aq/E0AMj41nlN8ml2jYLgVHf7KBKazSf4Hhy19y+uVkJ9ZOfpvWLoEblgf92UGbRSj3h+jHZ6Axs26u2ThpmHyjnCLDuALBTlGgKLaj3gKtIUK5YYGjJJdAopPJrxncO2G+glfK5in63WmcXU5TVZpAI/k24fmGLet6I/28sC/JLybwE5Q44M8giPiPAOAOT24VNncK3GytfT1kCK7bw8/Viza3fdXbsjnhY1O8Cm+ZXN+NYD9lKpAKIGi61iLxujq4bxyp3Bz9w1vPew9OF/72zET3XMonE/gv9xIFQ2zqEaYgfUBmvTo9TH7TyQliKk5dJrGYqT2qAv38cRTtee2gcmmuipZFpnfPNGHHMu8jbgmiZ1PR1gmakXOuI1+CG7cV6KFLDBugdN0SF3v/R5iBrxpqURPVwssakHvM0+1ic6wzNUkCfDelGFpQZHvPnUkYtdQyUcbcSFmV/3IfBr/wiJSsv4knF8MmAH84nN0+pIiAHbbJ6vFf+G5KzFHUjxZqZXmZZ3PiOjcFvacOm7UbXK1c5v6A7U5GooCf7xs6Gj69DrD0eg4zqhuxWQKN5/eHT/RQT5NTzKfqzl7jzjK8b52Xf1ECGuZ4Zaw/rD910cn0MOYcx2htRJme0SObor2wuixQOUC2rOZrVPCu5u6HEOWsgMt/AA6R8O6RypS/NBMC65oxZa5kDY5WvtVzzDSwzVJTr++WurcHQRk/WV8RXL9Sfftmp7A8wMuLZKZgI8djqd6C08xXFrSdNcx1Ms2u7VROkXzZRGxL+hlTIuk9zgfAQtm599WK+PGSdzBJjm8bzce4NP2bO+NtvQSZ/CkEv+it72v5ajPCD2Eyj35xlfbzn2idYgA671ORROqNjCuA6AnyPW4lO8B1Udjx9BoHdB4m66qsJHPiyG87BrrUYhDiNrhvYP6/VcU0I40znwVdgohYs1mkr4kBzlWM9zsFznuuU2vLRf+qdhlz4RTMrvkoyvltaf4j6lV4MU8QxsWT5mcK1lZSME3hcS++W4JAeD3HynvUUGWFP7GQpq6qMBEtdEE5KlGy98/T6s1xdNhAvXbim4bekjcLgFYKMuG/t4kRYurOF/rVhrC7L2e8pOPOOrTddzfN6IarfTgG4J54pF1ElKVnvvXjyGHVFxPUL3eytxj9/NA3hQuPaTg+u3UoP7pZ/00kNd7eO9mW72L6M1vC18SbC8DfEEWNjIPdASoPrCQ+mXUOEA30ogXnY/kd8oGV9rvP7Uzj18LYNnreJ2p+tlzA7zukkzzgyrKWU/6Xm7VK07SaMQ0aDQH6BGp5cvZAfZtvcawJXdPX+05wpTgSkapbtQd9JHPAmoq765M9QTaOlLZUT4lbJ7jjAZYtMO9i2/UzK+UrnGLufj39a9Fu0wdtRNVubRyv6WX7IdKYs0z8GEhj419cc6zjuKgGy9S5gJlOPCpYARA5IqBLSiUrbn+Y/y+myhpITyysAgpCg2LmtTTMraxX66xx+7o+Cz9F/JzXk59Y6TQ9rsmdcZXynAh3xWxpASJJkhOO/k4TzVu5hxOc6765U5LUSbkh7g7FLu+NGfMfay/0Y6tI8acoIKJBWEyllpn0iTfpTXSgeLS2HSliq6nzV7yN4jv85bdRZEEZFtqsqT/koPHrTUrgoDriQrR+yMr1SuufR+9h2+E+VEaRt6dEfwbHe0u0lGKDgqGo3wOBUNRmefM7ET8+dpREFu9bLs2w+HbpLuDnyUEmZd1GykHD5am7Ufy7u12wQeD3+9XhV2ViV3z+oQXn4BPgowBj3kwJSPs0kBze+WjC8zXePA8+nxh7Y7CBaK7pO9Q7c8mlQ1By86xZzyp1bY5t7rervFvVNaIW/vaXY/Qc5pZ64ueV/Nk9mH8zWjNcb0pVOeTWVwMZC5w6hg7TqrcT2KiHU+XnAlnTY6fd0+RdLOlDnM+DKhVMn8dMmFMW5cqL14sRwjs4u9bXGyHi6opFRYQy9o552SqDk1/+k9wOfiw6qLrubnbKg2fPAy4E4uXGgM5qqDI2rGuk3/axApPD2YFO6ruPzUwygKo9hDD6Td/lRIruX3S8YXKddUtPqp+Y6w6omJ5qLTJePoT4WDDQwswZJyZ+6HEJADVYQ2no470K7Ycvk6A/FBZRAXLvUTMtYMotf8QN/skCqCjdBOwn5a4Oslw3KEgIp+2tfPfgULijOfUk/6kTlakNznkdpJGV8kBE3fOTZThVUfC+A1WzIm4Ar7o12kCgokFl4M4EoljLsoLfTI5nHCEUNTkHOXNgPH1Bezviic9A/Gax41R7z9GgU//Eh41BxRvTuYOJ4Z53wYZ0YDwYz/QmCrF4/UZUImdsaXKNdrZ+Aa9/Ia/VFFSM8xaMt3FZyKKUjBYgnNqfh0ZMaPVoGVfkcPCRR5BXPGU6KW6mU8Si0l0habTrh/MF6XFprmYMzQPNZmiCeMZVpeWPjdu457NCPd008N74WnsuivkFEp4LPnUjzjK5TrsLhunyoXeYAauxZLaa7tnKJSWBHjzAG9QnUTJmPt7tYiIQFy3vnkl5Y/rfvTETW2qQdeNcEElvL0wcPBZTjGmGgoKFp4aI/bg4HN/sxmukvmfjit4YlM7ubsAOspeoazHW6isyVQPONLbM1IH5Fk/U4jTr0qJegTTUQp3jkCS0VtclCaKCSJKlno+XN+Gp834kfIE3VP0PUy8VM1bU/Jc4Zv5+23FvDOeba6QgJxv4FWVUMeAGQmTptAxOvq9eH+Wc9NMG5izlnglfD/DWWXs2ZiZ/z50c+omKN+fumqlw3HESKhVV+fGr4dIkwBaapRRg4V71ODXnp9+lQZwxW29+b5l9+u8M8WrvbtI9/dLrjTJV44CaBYXOViln5JPbQAipX1aDKeGgwIlHVn5p2NRYKGu7b8MxM740+PGhxm782fJjaOHqI96uVH2dUWMm36DLd4NRKIhUHm7shxAfm0YM/ubQw7P6WV2tzjftf5SyutjhbSbbzZGXJq4W+tKaC8zilppEH+UCZthijig7nofqAjqjTavBp6tSRYvce962gpspDxp5dr+l1uxqt/7hjbj/VETSyek3ZlXC7H3SW5Ku+IBh9rTvdMtNVs0sbnh/F/2T5frxR2tjw2oH0E7pzGvs9yu4WQHbLge/ImcC2oc3WP2nFu18EXvZTyYFoLtSkKPZWuzQDVmmlDrRXgqPgBZcHO+LPjUJH/CPmiTz9yDQ/LsJyjc4/9sAaatqjL7rlfKv1xceIB8OkC+SxREW2bqZQ0D6DMdKtWxKh9wPvo4bQLkGz36+euqFPL3V3eSzkBiLMDH7GUe/gpt+u+Iqc8VPzHYSMIRWwn9gCLaouQlM2MPzyvOwrCKBKMzy84R3ThQ2qHq2iVRCRHFjAqihiwwF5+kJa3LsKeP50D1EPpWAEwrTNct9WFsJUZDrzj9io7HiWwQ0Yr9Mpd478TDfMLvxbvcWfjQ43z1HaslqB8roVK6uQIz4PMlSAqyAFwyyt2xp/cho9d6p7i6jvv8ItnkLD1zQjnWa9eKPz6y2v1/hR0CzpiVlrTVP9UaURLjgLmE87mUNIYm4F1ET+6g/rt99NZZrkc8NwmqGx/PGC3673yhMH1+qGNmRBYn1h97ZFgl/097DNRM1IAVSlVjSZH+GzFM/7gco0bZR9lTK1wPm0vTzHYKAMPlVHa2S5N8bKrIiTLFg3suppXVUvq+HwcjUG8hze1HgO039cSeq6mkvDNvJQrKjQFU3s4IEs+plM9DGxJJbbiD/1TrHFyHavcqFVP7jqFrurW/bIFEv0+sDHKVjzjj43GmqooVKKY0J021fOWHzhCoKRXBMPaGi/SYhfG5fDwBGSEofxTUHWt0QgsXp3rdwtHnxaJjpvuB3uz2NkBTZN3IvYMFHt4kbg4EP3WHlELP9md70fWouE+QrsFGKt/hRqtOPQwYaW8bMvvnow/tQ1Xq0wNTxZGxz19E8S+uz7Yi1MUrAtacWGaMqkkhNCUU+2Ys58V/euftgx8yH7JpyoQRJKXqcovs0FrN/O6B7saUFqIkmLSE4JMvMTq19QwH5IVdg/YmPAlavMWWmg5iXJpLMkVcBuUc0nZeezK+FPzWkWwnYMnA+1Ors83Z31qPKvi56CUUe7rSU53lQvQAFVvmBqM2igEDnrW47NC2YOh6X9dGt9x5QpvrVafys3nwehh0hcCTOzYsBoRMHMIbwUUfpRHhuthe3F5cErQLHXNMdz1j7K6Yi5BePE07hEtv4Ey/sioYbM14VP7v5+furzn7rZUUnK9HHIQAN8TunIi6whDHk14VB/U82736h+jzngodDw6BXQrRg601UG2KS9+3NRLIbfIXZwEzDP/vB4+6qyMS7PlkTlY/+0zNJKlooCBpRsPydR+nDyjWgzcPrc8zmViZ/ypec0IuXpcZY87nKepR3VRwIxeWw3epmcHtKcwusVr45BmGSi2Zof7qU8Q8JHZd3nEDYAnRjmV+pfjBTD11rsCBxPgt/4E6RttE95J0ya3u79TRvSBtqW9YEZrX97ie0g2UJrLGm4FGdTROFuh7cZbHfkdlPEHBsq7FCVlS6qAzDsT9skfaW6zuEftjCutL+VHfTbQc/vjNUL4rD/T4J6faXm65KqhDHwJGYWJCA8EEup2Xh/SrJio9ztZLgBlaWglAFsDNYSHNEQDc+eejQSuTtnsygCWg4IHBFeP86xlPDsc9ECyp1VAxh+Z19bo8uQ9qvBdfOcua5/aFSdtXTXSaQIdoc1fd7UtgV/bGVaQJhZDptbhJ+u44FmDGtNtl5W2zn3Xmvw274OPGQFv61XrMN5C1zG74mTQYI+u+234BFOuq4FtA9vBwj7cIWP/ZfuMFf2sl+3g4bwRBLL8Jsr446KV/mJQH351uxH9vASdx+VcOxtTMMCUEpyRFsDRIEuC8upxx56x/KqfvPChKycPA5t5hdJAnlW9OsilfvutHAqZkMl2C0qkHEoeVqW/6x3M+5XWomcUXwn3sTnDCSCW4SEnw18FyyGn8PYcmBdEiPO7KOOPq9fCLGyBLUlyl+/8kRBNWTWqaQgDHmJLTht0yV2rBiqbXtYj2H4M1E8K9hwOw/a+Ts0qIfAretTeys74/IP/29XWwZo9+DPVVzYKl64HpI9mrOv824+4v8OyDqVVe4GFHuli/Ah1Jn5n/6oX7qPmd1HGH9eGz1ajLl3G7xpbfz6LdkS+r0JPSRYpRnkLu63j6qiDGcKlqajQ+9li+vRqFMcx8aOU6ekTQU5Yu1UV+TQ1jlOduxsrvSXAzJot8nPdR3uGWHIXlMLakKPAbsPXYndQmw8wFFPmZcmr7xhDC4C6Y840vM/40+L023/1OV0Fx9H4Xok7XpDXHQ3TQ2QWNjkrvHEPBVBURZrx+uqquG/+5DUZiimwUbObUFUya2K7129t6RFAWy82nLyHqdBapXnHA5Aj831EivzOZyRZOFYzT4sR78o7sMmDC97AqwfvDeRKyKbrMNJrmvtk/HF5bfMdimUhjk35HZ8ng5OmF6ydTePUDbOFAd8LhUqbWxklmE23EXXuk5WcSdnVKWmqKlArZw20CUolt+o1HgI8BnaF5n8Y0fdUfoKdu5KwrvuDyJ6lK4WXJ5EXARRWRwjAhIpMvfaALMFdFrCs869YWogv53dSxp/Vh/fdI1/sp455Xj0x5LljbwsJm41w5PBOr9ARP8K16+zq8peO0KiVs7Y4P31MK+khpUR+CsumHy5j7SaXTdo6buFIu4qhRymxIwtw96CCz1pYqJ+7EblbrSuv7lPHOzgPCcE3ozFSu09n8b1OkXkuzmCmqMeyu/CKK28W7Iw/Kro+kSMA3s7ZizS9w2p0dt7ZMFEVAbn5ozOndioyfARPYnfCq+hSK0CkrPZhfuGu0dYqTaUSy2Kvll7G7Vu6Cu0ywEXDZc/ifbj04pZdS73ewb3n2hyxCceZL9SUXBbwFpaPDbQXQ9TMi9oYIR0RNRzhpaaPaH4rZfxh9Rp4SdcHR7BVW6bUndXZal1sNt2rzwUdu3Yexupr58lqkB6HYA82bUVhow+xX0zFyByu4I/Awa4zSJcsvG89aYTAjqjwbLwCReqbqYBAycg7f/0ekFH1x4u+BrIyVVysS/4Jr+8D5LIvAu6uYRBNicqlHrTzeynjz0nrcmVR11wWRrVqgec9LIeyKa7DaX5hVhYZYYyoTa2R4guLE7EFH7NIblwfT/o9ym9InDQaYVJqDPDYt/pwTb1KDWIGzfGSOhJme2Vi43enW/HqTW4qZSw89LrdsRt7inP8ZQzULjK243YZx2U42Hgc9dQxzPiDYoyLneR1SV6jyXrXyGoXtqiLtUJ0YrXVmUVxz+kXvbHHyynBgP/diP3c+VHnENhuBvb1g80lOASRgxt7sz19z7g9VXZYbK4DGAOgpSDVcu90PdVJhH3J9ZyjGX8jnMp4UIhQEXqCqsJxtqChqOrSXAKGpV+dOvnmd1PGHzNeqxxOFo5WuiO2M/EeLO8V7KUCGbklVG16BnoS4q0X1nO9YKBU7d2GC0wT+f3hM8bplrNwSCx5hPa9sSMvN9ZmKDy0yxeX7ZUY9QC/MRHMO7lWVEvUvGvxUv5bNG0OhK72EeLFgX7Zr9ujt5Go1nxfYOO4dfXZE0+a8cf04buqrR+k54sj2SPB7hXsikhow1oPjhOaJg2iZbvE80e51sWxk0OJAHXP40MxApHpl6BZyJlPkzrm9xunpPPqLSBTenKC6ynkcwSw+94ZnuHAHryLzpnKkC6ImSqEN49/tPXYl3HWLniYHPiJDtFwrPfszbtGQvn9lPGH1GsEsYunLsbGddXXQEreyYp6xrGXa/PSsQt6JjunKN9coU668KZIAa06Wy0kvj8YsAOeNlvBpD4cQOjnkQfd7/L9mx9euen4V1zIl48mPcNcdH3+d4fbQaluAY6PwbrG3Z19nGtwMa09WJzR4guUjV1dkM9D3WV/8hyxM/6Qet0m1989O+5ihaHlCBzoxCH2vNeJc6TuhSuTO+SAkZBZY2G8sWSHQLkC9VGPMMf52FRE48xLPtQyXKaGYJ6Y2q16rX4DddMbsp9bnJhKDnfevxt3cttt4RqYB7hoiPN5UXu5hifXfhSt/Q8y6yWWptxSZPwBTVXDTpAA+R2V8SfEsyr40CgR1ofWUEod57PuPHduN+MS8h2rKGQ6QkcBG+uK/EDRqb4WwC7AVqZoU7PwAy/rXsO7rwlWR4iIFnfw3m7tzQCjrxh/d2MAiDXoVzsPJ359n5ZrxGGKG26sAafTMj1HDeUkkxelU+7YDBc7q4PTFRtC71tcyoMz1vpsD+qyZGT8zyMWQFap4ndplUA9XRG3O534GZpD0K1buFSzWlaz0MeCAgWolexaep7Kg/bQJbq9z+rh7NGeNOQ8Qidt9RAru5Gl6htIL42BfNfNc6mUyqj/+VNJt24RZpAwd70XcfYUssXBBb9QsTHduwpfyDQMirMwOoZw/gFGnPbkb+e3VMYfEGeAIdHVrTaTgjjREdg1aN1jFgvLZj699sSIDRZw5mT2uJDiI4bk6m7O69FOiPP2UOChWGXup34GqWsqErz//32Py33JJTYgcWy59/9Oaz1yK5+mWJdcUlZ4Y4sbkyfSvPa1YwbLlMV8XeEcUp1SQMrgJ+gYfmhQJktlhj/CzBE74w+IERVnf0NOhIwEUs1VZD2As/58YDxx1JtH4ESvK1mIAxVbcARFlhpoItDKYFfup7z9xNhJJVLTd3FZf2GwVd0438jrH1Zguz7HDpzN3+nl+dNn0qVA2McKPGioG/YeA4CfeLH+G0qnaPC123HNPiV8DHYHpLjr8xbMEylfOWJn/AF7M9X0p+4YB3wN/fcmzjnnfamzf6F40OPkfQTYLE69ITewjicO2uyWtfTrUV1dPN1s8QPtpWwKWLPdIK84ZLdbb4UUs0iyXxPJbQVtYQlYP/9rz36WcfGp6VCCfT7I1lCEIpNVEB8hQC5+x2t5lR1Ta1zfaBP4Gf7A+/GTNpsZf8J8zUpIDoelFw6VbS07K3bYdwib/2rBrMYxr8uVpGXtVZn+gHPs4luAcs2iwY9ID+r4uPmYcLfWAoh6XsNsSI69r7/u4ScPpcIELlqE9XzY645Pp4+QevGla6iawRRx9y4jbQWEtUj3PEXKSUepgTVjlzZfhJbKUZ7o0AXLtZqdeMbvDi5IfLMqQxCCohKL1QpUpK/c6+M7Ovzha6s4mLqe01U2wvplvKCtj9hShU7YuD3+1mfqXxWYst+GqK9ok+f7PtxdAKoH+P3p1nuc1PBYzn02XOvJq/bxKMe8FFCGQqqBNA+oWxF+tmqYEkWTDrvF43h9Qu4htnbVi9uQZFpzKZ7xu6OE3pA5zV1H4zzBF5docDnuEqKgeLAcButZ7eQRKljCPS4lJJ4YQ/2UGuAxx9pbeR3gD5CoPCS08bjwnet9Xl8yRz0USSc78eW7oYP+7Fmkc0C/aGByry37Xq6O1btGCSijznAuKfWyC1g19Igp7C3MgjoaEEPPbG99rZfn/MbK+L15jfR3D1KiOvj1LHCk0P2BkcXe9x46hS7ZE5BLJqhbq7te9ybMBCzGZKjaMJRiwLWu3aqockVjSqdmUidBjbNve49LORU4VPJAqmSHg3HZXX5SM7sPDJ4UapTvZ1lYkqB9ikHolJDZuc6ZwxclOx4Aobvqmo0duFh0Zu+pPAU8r1ZnuvFl/O56vROyksg/zlEiJYVNdzFi98AW6pgy/16G1c9SJZbCSKEqfsRN26q4wkmXD7jF/3gBZGusWwR9c/lCvuQ9lkXo6Kocxo9yzcTh8/GpUvKLhGod9tkerNoqfk5xLfPkR4E8O3Xia0HAxgfE7Z8kTmu5tJTqZkHqmrizVEXK+L1xTPJmjhqyn4jo7qlRdEkNkd/Z7hG73Jgpb1ZXX1O7rFUu65Am0DNESoWqoOsde63Vb6y2ygxxFNFcq8V+PWb2/v7Ns6nqNM6lXUJkuw3YafmZeomvT1vvC/PkWVMdpNGnvX+g1dyglcvuQA5K46h/0k8Uxnk2dXP/mb7/0iT+yyWA95AeIBm/eXEGvArkVdQZe8owdya/2/4eZf11J7Fdp/ttT912+GSQPi1rTMBxq/K8PSLZoT3fKmuspT1Jk3dgvutllHlDP9wSGZTO2BBAHW1zfurhfca6XJd6V22F+Z0hXc8fOgO9rmsorqj0wgqcy9vq0dUEQ6aqJsF13W3EccxLT507XlbsjN+9OKuea3fvCgJ6KkVUy1Tg/wjBhDuJzcQ6LnRHFPmJIEERglmUWKhh1cUngwXpAfiWiNqJBL/qBnTzPVZu1Pj9Qu8+rSu64yJdjBehg+MzNCfSxXqDDFWX/HM4k0zQLO1CuZRjPjvXl5hEjiPIadMxuoZwKqCWEGId7RRR6khTfRCmKlLGbw0RU/E9GrOlyl1q/jV3XGPdlhZ7lWD28KOHpuduTPnTU3QphrraBSheKgdTQZRBebyBPz+hSoESqU1IytAUUz/a/r7X2POvEM94t8HcEKf90Tu1nQhWZZht+9RxUVZfcGZHSKXwSb1uC0Gv9vsjrILYeo9almoOcbxTt7QP5RrVU85OPOO39uHCoNtO34I6IKeuGnDo4GuyDCr3vksvnHTQJS7A2SVnhK+1DwhY2nCxdwM+L6O8ncPvHzRz9+9HiXVbsLgjdd7hwwF00g5LI4uF9RFA8eOz4VpsGKrmKp8O6Rtk6X56zR6K5cvjWjysILAo+XRBVvvxohUVGHgxKkzlmokNXpeWPXUMM35rvdazpoZBfQ0KU73aUa/Y003vPfGuaOG1/kCpYBYBG1y8Wj8x1wkaNSvoI4oeq6lblKsp3EsGNcnKGspx//2SudtCn82nRHhcSqT8RCP5BMvenjnitTADKcGnHsPCfNkHKcZ2uEZbhyLDYyKwHhqNVfkJ3uEYPna60/9xmf4F6wTxlvzuyvhdQTE8Y98DBTvkAcYa7I6oqOr8nHxj33k+wIUIC+l2qY50QeHTdbKqKi18M/hlFYxQ3x/ve3qP5sovAGYr8yJVt/K+ZecYNRyNXc01pA/6hwrl/5oBbJ01NEV3Kj/XH2gZ94UNkYWFxNNOWevwfhKUBVw+lmsqo1+3O0GzXUzK8QQXW5W08AvLETvjt+a1yyeq9WyXxO+xrruXuW4Pzbfq56/DfakprVB7YEQOMJqlt0tUqGpu51KMcRRXDu/aN3JPG/ux+mVSq28YjcT7yt6im79sqF29r/4hV4XBOEzDmnrkwFT3sL3bDBrtFS9yiTiNmLYvOjkybUUjhOZvs/0vgTcNuna7dng1Jmw13WYW7IzfFT1G4jmFh6mmbf41p1B+wP6KYnZ3xAYrdiGvoIS14quWpq0d9yB5XJ2OF53uNiVCvb9edX85GnaFf12rj3dIda9QHuhQUIwBl3ydHw/XjMtDOoev7TZ9CpFznz0K/JR5WYCEzb3I9hBg8AFXHB+QTbpwZ6UWgXRxxvNxANsV2mgmdsZvipOheCruw7fn/IGfYnq85MgCKX7vu5TL8XEZXZMETslnSCC2S+qPPdTlzeEEP2/QL9U3O8WwFE9tIj7qe+2kk03f0lnT376tAAAgAElEQVRsjxBKnM265+GPOoszTEl4I8/dQ7XFGTq4DG9QbbpouzfkVOd7FY9Wg4IdI0a9jmsKtIQSUgiwVzVWgozuXzyX4hm/Ka8r/tVnd++rOIhlaMzRS30ZIv3BGvevXQ7X47LahJk5RZ/bl9NYH+oBvjhiL1P27ff+CM+OsCGpT93d2XFDsKBdxjpVcJpbcQfnDzeE6CGjJtwRfAq/T6dhLQwW+jD8xVe7zLvprtd1xlJU5gixF/5Ke55Qx0WKzAk+bT/JSjuuC9pwM5h6Zxm/K6LXDeZhe0FcxDnHzlJK47gUAe+8lsByKyys63C+cq3dIW7svDhFj1xkKTQIutSot5M6V6JQP1kV6x/s6sv7jh3R0KuE2g70sCEYHzXhyEXQtYdykkZipcfZ+ww1iSEsB2GFcMFeNaRgbPAv0htyKowVy9GA/PaTho8ApX//2ryOhEcyQDJ+T3CdfW6Mpn6Lz7hmHyEsNEV+I//fls3nvR1cC95ywEbRB/JxwIpM0rUUE4br0Ue/3ILe402wzZHxWEqlyZaNfQN1OlwL1Biz1QctuPV+8ObwE2TeKOy5sAla7hFC1ZjnQmfvV12/9Rc0u/et4TKOG/d0t/iist6rJzAfhAiutB9k8eVNoPjvkd9iGb8j6umWiG5XtiJDtZecfmkRBolRwOS93dnJgL48Ce0PXqCqo61vw4VVTKiLbVoX/tFC0uBNP3+SX6ry76G/KqPIk+JtH77iNgUmjtaeLJ0f3q7D72twjNLhMyaF5mYQpuaq56rXI6l6sbvG6VPMmTd9GGY1ONaC6K7lQ1FVbbfj6KNJUZnxsPCmkCN2xm8p2KrvlaGH7YhuUvb0EK/B4GpRY+tc7rnORtfNbh2oxktCjCh+2uoqwXLVdbVW3h+whp+uvThramjNKPw2r1Uwqc8vwFCz8iMEqVzyFl6BNOz9J3jcaMol8v/jZaMntLQXzgOXJVC3+QgHAMRaF8IM9PHNwr5/3sSq+RM2+HK+ONvn91jGb1icFWupjq+HWC89JlUIIENrTJZMnruCtvsiC5HD+0PtbmO5xeq7qPQJDp1jtKQrFs6U2P5mH9aFZHf4GNyDsfhq7xbnJe5h6LEtO4xQZPigKyk8vC7xiKqG6gIid5QyJI5x6tqBBQFIkyNMy/zHiHXBoLmecwBBbQXrAz613JH9cc8+0JBwQvMRpAxM0ICw5fdYxv8/NNx7mWJLi9nYKIqPtPCoWnGnqvfI2CEo2mpUfp8TkigW3+o8L3oTtOHCrF+Pk+Pda7SrqLLaKuE4/9b/ejcET/WFbcW4vJAs/ODhpYNIg3jaWw/73XDUlQqKwvBqO3Ev2yGq7ckkbpcN+TNO02e4gYz9Gs+zT/VWuJVV/BBqaLdgbGTTco5mW5DHrozfEFAXlC9oZxOfgW9dL+OCVkq21L/KLJ/3jl3/EtZCXUaugWuPyC6mdsw319D8I+5Stbhram9Pzn1Gvi5p4eaUi703n6iFiU+FcNlAepaPnDpPU24idNLDrBOhp37Gy44lj1oJiRVw0uCF6QdUQzwZ5ZTWlE9rXQlmbwRiVKoL9R9XhTFIc0RXxMxkvc74HSEPkk4Tkb52iZpApoBISb8My0nF71ZUMbqX2N58cJ6lyuNmF9RG3LUXy7jzsEEN4lcLxYXXAzYFf9fEVYKEUtsTi7O39VpPWzkpPUTG+0dNL0TubmfQdNdWYU3ITI+NQKgcjXAyIPWf6lyrOpRcth+hnVDriR8JG7/Z4mA3YuWIXuHuTsKtKMDvwGvy+yvjN+V1uRCVxdTgvDwvkc5+ER93bp2qmKE6dt7pK2eVWXExJELUn2zhJow93ZBHQkYsUWk8QF7TPyasUd2sNdHmeiUZ/H23Dsd78eQY03J7O63RLlrDziEqLo8caeYAQPcTCDefkGySnvJygVOn1c483u7oodI6WDXqiB1c7OMFVEf/7nOR/cFMTErG72zEw+NSY5t2CfkoXkjetXB+R7GzSnbihnMPd8bquHj6AezhMbgGeMSjkpwv6nYLtw2Wxu3NW1JQzEtSF8pCY/w2r+PWDGMcx/l2ztteA/C+nCiq+6+leKmtwjou4vaLXIKwGScAfXmiWkM72T/nare6z4Z+XK7bFnh2BMVK75HwooKP/MbK+L15LQ1KQU2gF+oYtcuz3Xm0KXQyVuyG6wMUELkdMWxyHK/PbJ5puZmD+UQTSZSQ6y5dVaJXLxkfHmjuw7tZ3Q+IN304Bp0Ng52nSl4h7XAbk4KsIS2ErpfBMw87eljS/SXNw1fkGolpMbqyb5dtwH4748XDtwQqhZ19QWG1KUxc/NsGHS4rdcafMGBfEAvwGRNARUCk49hbRWfy69buMNy8X7HVM20tLOanOBUhIPpqHPU69Ko1tNT/fvVggDoy0VfhdPQUsNP39RpICmJqeNr3PQ+3j7z8auzJ1FdhARafn+teDysRZ+LKMcxlHo32uATbwNlo5eG5u2jLe4Rm4W4i1gjwqieAqbxyLsoy/oy8dn0UZgCF9ng4ZK9urXVfzqbr8Kg9gq1V71RsMKQM1ZBGlnNwUeefFbatuUZ5TLNVCtZrR2z9dsPxLtAjvMbbrHUbXV8cepmL2+20Hpd1yYz/AXCiffVS06XRR5CPCJojvhZgFVZh8eFhPaRt2JJiwhRxCR4i0hDI23aRPRKFkvGHxImmfhEXtkL+qPYViyQWTayWYBmPS7+gnRAg7r2mqXEJcTcZHH0Wb9ptobnfQ9WQzrxwMX596vLE5EZetudAL+FtH958b47o/Ajdl5t5DS4MnYTLd0eQ2hGAcDXKl9pNLXTOQno0VmOTq96LYBsgVbsZkz5WD4MtgrBbRV7amZfqjD8o1N6UmIF++CizHD/8JoWOg7TaFXdhNBfT9t1r19mDB8UMCy07PG6WKBVQmJdtdj3bxWl+ZRIwQzOwUer180MY7V1eH1cHbEHt9eZ04PFqmny72l41WsWE0sIHt8Yqoa4+SowH0QJI2wDqVoCwrDa45PtkkgQSj6j6Ql+puSnL+MMiDDbUU4BCgQp+0SUyxuQZkmXtx3Y8IF73u/vxsmHHadb11KXw25TeF24SwA+G2p+fFPyGwI86V2+B6HzXh4P/Woqdqi96kxOJha57c6WC5yVeXusTlJSucFE5wgBMEmbRxYiHV1V+DYPcXb7PMNlc4a3nO66jtRfq2pHok4w/sBGPWw+jr4cl1MVI7RfrKjvVRa5DUR4qGt2nFs9LF+gIKyzh4dEFyKpivg5ShZmxe/Txqtq3mF/Dd35n7nrrp3kpCzuBwzGd4+abkGntbn7yzFqu7VR7mMHywAqQX+DU1/THFCS39rOmzycH7aUnyECl1AN1t/F2sd/bUz1zqM74E2NEwwlYGrDGCjSYlxw9n4uaAlITn0NtTO/Mu4nd4+yD3DAr6/NSETo6d6lCJQ3JBn/pFahksnRfx4ueEOfkt202t3RkjFp51vj2VsW0iQ7SlnP2EbtuXt2bVHFDV+i5YyGuBpJOP916vC7bsuFuzBGixTWrqJXc7wLmMzJ+V9gt74rEFQfeNGfeOqU9WZZkclpxZwvzXHHk99ZEPhlaHIvrvCCqVt9SbMYpd/O87Gfbz629xOogaxxXo/tmvhawPsVrhpNuv/kO7BKKOt+yrOM54XJwRjPBZ7i8sDEukJeFSFKdZ4DTx8UVpaDP2K31Z/VVj3Wm1XXGHxvH0yFPyfI8jqddXcvcmYJsqEho0ZPkY1Rx0JtttrszNocjkm9KGrmkhoe1+eWKPYf528FurZ/eUXEWNqNHC2fP/iZly3HOFs7Xpd1UFz6BszRm7CCZ031jqsWAoYxLWQ14C7pm1m0W52oR1yB+hBeh/y5a4TakEmMbzj9X7r8z/uio2tmcfL8XCM1DHiNpqN/tAK4ZuGcPS/NpyaAu91rxKh8rFtaRKFXNhvaixqvgJzOtdfGvPAGOvuh8TxiYrM1nf5vXTXDcEXX/1jOGCV55ceWKGlxpbUm8tYEbW/C7q3u3McJRlFlk9QCF01/EpStEHtipD8/uKkfkVJ3xx2/Odt6UGmqF5Pjp+aaBBxlBbKAZD+zzCkldsuSu3uaMuXWSzXNP1QUlhTNMbfX4k9KpNuhrSqP4UZy85Gz18Y7PdaoKjDYTvtVHuVE7L2lgZUvIVjfzHqjOejG/R6gz7ca7KnR+reKm8BkOfCM4rJ6/VmgIFzQUe47VGX/+gB36mW0hHtIvnV8v2mEzCY+DyiWnK2QJqgDOe1ujoGMOpYejUO9XPWfAP2Rie9Gu1/Wo/1zpTSc63+iH39BNzmClAFxHyPvGMnyEVn8bQUEhcZdCCGqHh8DZBZWNSQN4/O4MLj/wC+DebRs8ck//lxV9NuAZX2PCDrMOatgwxTqekHx3lzGe9ui5YtBl3ySqExSaovp34BgtuBOKN9QgdPEpPDbx6zKZhXMhlfTX7ayH/wYLsf0WChrB5c07ngzYKi7OdSvTjujB0TsS7w4KxR4E67FxSZSDfAk8TpWLFUj0S9y/Kh8jtLxdlGpYL9mAZ3yRmPAdVl9cjjqCodNtkv6vXa/KsIs+QnPz6sSFmtypXTgMaE95hFO1y+eJ8goGAgdE5kCrxpLsxxsKv0sEVVBO5D+v89ru4dz9N/uvemPY5XM2x/QQPDn330u82AgDURsOddPI/+laUP+hFiTsgWxLvOOTPj3+DmciwDO+UsGm8F32r0LBlCpY18A5QkHMtpWmtpTF2Tnm13uTZrM4AtvS6kf7upe8HhAnQjsN1f6/eu1n1Q0KcM8wrz3e4FLOsCbRf3feMvkIRy1X76zv0DNp6gTr8DHX8RyqqS00xIW3udzD46N6aI/nVx+hIzPONLXO+Gp5jR/m8tzrqcfzk8Lcwkviequmf59dLNYRVyu4nXefGQqPrFiWra6Xhxv4KI8iXlZoG7S/uugWmBYW3yFp/roct0B9R9fwvohKQfPpNORjhos2jxUVCy3hVaiZhjuHGzIQKaDOjuIDiNMX/yS7cks9ybE64+tN2JcYEJtnduI1Flr0qmMUJuBVNfW5qIzRm+tNd3crHvexHpg1QV/BjuSRgcx2Cxuh9tOpiwdJwMtXL3FIft0FHJeUEbla3ldr+/TgUyt3BEa0BO/yMvbCKNeFIS9VdOwIvodzdPWH2P1dPOwkdmR8wThH1+Odc/EzSXixlrh1UcxtZQPfrctts1W18tZ7AioQtwCEXGJgwKzLkCgmDFwMSK/41v11hj5VXeshxYD/3Rs7aaos5M9jtlsklDOwcsupYmkKdlE0gn2KXyY6xVoF7KQes78kMKyzeE9V/bUuVyzH6oyvGAiS9fZMtpTwni8FLaC6vEaNtRRBGEfcvSIF6lL5f/Tz3oiNqlBwoCd2A67AER0V3rVgMjNdH3/BvMO6btoqg0Jd7e0+PM7qCjCc79O6XdriNtwczBeXcEBn18KAi3XAbMSKTxViVFY8QKaxDhj4eQqqybk646sW7OAdB8byol8H9Rq97DNM7dDyC8vMGqqDYdBz1xw7dPsRGobwUYPIXILDGcyOdsYj40WxASxZUVFBWPY7fFdUeDmW4/3WrIchtY4hoT8+y5iSNVRE8GzNJb5cNO6CKBuNiKyXfoR1XpemnSvwjC+9OvO+zC7LVdQ48a1C4H8hG9QxlSTbJEfA1pTYNM6qIME9S74ijOXFE8sDl6uzUQRmL0V6wXS+DOst/HH5tPsDIZy8ztw+xLbcZJZ181PWSCBOQvLEpWAvSidyjZ/aE3j9ClshkCcqFl/WYGHtl98aGV85r11JI4A/JG61KykEY3lLdteEhAFFu4Xi3/FMWqKzfyexuYij7rdLaVcMEYXgoaY4WiQ0wWVB6Hx5OwXIiEwruZFvdJCCkEW6lvdtONTKMo4Q+L4EjvXxBGyz2IsxTT8rkLq84Im2uejhoT28n2E+ufIbI+OrF+zhN3o3YbWEjHo4Ma7Sl45jleJ9DrYiNMv+sFXm3W4VwyuO1Ahzw3imOC8fGyzohhoKPkTGywAdO2vmAryF3t65QKDapr9Pa54zpwM07X1rIYhe5v5oZoka4JhgfyPdVgOqHh57pzbZDX/6li63GV8/uCxRwpo3rlaYawuXrZDprIrgc3eaYZkX+rs6baFJ1O/KisOX9EpWZpydfTq0y95+Mu9i3nM9BzS1Lpf+5/EWb6YOhKqK7x8o9NjHWvuRM+JU3idmXIUcvvZp0tNUE94JrNKyzLW+dr9SAJqBvMnLVsY/omAfV+e9VEppSgMLAx0qf6FX5lppVsHil7pQt84Btby3mVOOF5OsiznVQ5+QYhpsK37vGpcVKWV4HgFgfb0Ppz1fcsJ6He86gz3uV837BHyPS0V0J3pXo0UkuEr+l+V3C/tQLb8P1c12E5K1OuOfEVO0tsp+SpGIGQew0cPPRi4lju50r7u+Yl9j1YyZdB7t3ox99cDV3dziqeDrAm5pNT7xD6HwIkW7RwaXN3wuE7YsWBnvNI/bGRAyMG2IlXtV84VL+F8r8cBQPWOxz7ocxRUUIECg8Qdyrs74x8S5J9Y5lQjehbqKvuTagw1edMvRqCMivi7LWV2tBXTuj32+t5obU99r1X5XPa+jMam3P++KQ1T9a8CuR9Ga6x1WtO/kHf04y3tXoeixL02WUImYF8xt/xHcN2vIK+xP10dQNffLP8n6Gj287PN7IeMfFHA113EhprscbAT8mELHcTlRL/S8XauV9iIXJp8y7Dg/fX1q+9nVAO0X7WI4PTc5X7MoNn5cbTtIUGHcCyGl13mtgYgyaO/ymnJb2zPvHF7mFPaN9CCLgeeCepnbM35fL2C86SGqrhA8bimakPHPiiJJ8axmTdlJgy1eczDG60Y5z4CXKiEU2kYQMI6nopXX/HwtPnton/ACxVtZva5LwlTUIts5dnXtlFzVBZFoen2/Jh3Zqpd3y60RV3bmAhBlNY7jUy96Rf+F22j2oW92f74WglX6Vx85WGf846KDoaT5XiEjumva/tk5QqLM9rkHnAN2pFaXqIZSIL16HXe2Z+cICiS0DwvrCAVB1urBDkF1YUbq7s92PskMFYv2ejcG+Ntu+125trXHv/68LEtQanOLdj2UdvehlnK9Wo/mEd1bd8mszvhHjthSJBiDY/DsTJyL0fT4obN9uUJ366AFVwaUO6rj/X76zeuv6VA9l0KkYcWlx+UpZ4yb9LhqsoZYQwrWG0s79uNFScXj7YMJrnZcphFJDLFz+muy9njqI94+N/MZvvR6CrqYn3mwzvinjtgzzrsrvNpNEAraxCqnzEChTfIPcjZlNoznewgzIEDyeWIfITkst6t5i6olDKl10ZCsPWIYV6gFSSYub6/6cOVBXaO/ffuKIuqOyUX6DECb3Kww1q2XjHlX4OhakPe5rOKZ1hn/0AiY9ogsaEvhzrj0OpROzaRVzBe9stRXqGjq73pOccfg6tNPAGeMQsq6nZPyEbwuGWVVhdLYR0OPPDhFD+kor/dmWt2yA3jz4rYZHOfouEN7UTjoohcoHTPbqjlPv9SDpaGKUUl+R8Y/uROXUNHElp1FMUOPxSM0Oy2x4ckTlu5SoBlTF1Jh2vN8LtjJlVg2tJRn22Jh41yZ9KDlFazsQZIsgSEp79ptP/ubNy8AdvfdU0kFnzIT1NoaO5QtH7rzcB3fAwBWuFXc2pi5Bc/4R+/OAmM54/sea6waZywvXV0FXgWI1R4I2vQyQbkR9XAA+Oz1scLu2vcxzCNKeHrQ2pP1qS5x88+fdAELRJsgtdf1mvzkxP5GKuW8njWjhr5iC8y3jC1X4dHxD47ucrrsOebzkZN1xj8+sdfEWXLpLUet7Gye2wvTqXSxZYoRhLII1A2hHuOiZM/xmeoZ96RxCfADyZbs3CLNeOkRNOwaYBKp2+0NT/NkFQ8R600rsEs/u25JY9qKMPfX2BgEBm283NbsOQpPjv0XzazO+AYztlsteFZz9vlioSm1itb2GRGj5t6KWg2+pLhQ7tZEUGrj05J9igULkxwg6FzDccRG9mwqMTaGw3L48e3PgOv8q0eD16n1/GYkrmusqyJPYHLzdC+3VFMD7j6DUo3meJ0s+2OeSIZHxrdIbOnV4DurVMg60Q5cEjTnHNQ4T0ROuayfUUlYNNIgRf3N/pmyeIu19DzWqdXX7voBm7M8w4p2NwjHvwJJGgbXwMlf53UVp/amK/ARVDzNIUlW61JMtAeto5UTCVQfVL0ooBLeJlmsM75HyOUSfBn+PXo/RykG/ClhAhy5mV9FhR1lhKhhXWvIYf4sX3xZR+BSQ62ko1CI7jAQ9Jiw1VLcU7SK3q91C5FVGH2W948jCrzEFS0wR3mRWiqBp3miJQ9t4TjktZ7FOuO7xLMWVWPoflGccwV0IMZd8KhyXsXIsr04Si8d8kysPQ8X3YA+7sShUVaOXIJZTLPGxhoUWVVgzTRF86Be/M1XeR2WXcebvUCcwCF5kb375U/+Hrt0lwaQDutfWeM1/mb0BTOvWxnfaHcW/C1V8QVuaITdptffsq7aTCdMsoRcAfP3TsXSz4B+Pn9SsQ9h4lVymA1+rMfVHyrqF7Hc1vwnBE/6G7zZOOd4w6bs/eXh0mp0FvttlPib0E+MGOj7JUGqpnkytzK+V2IHBZtO1pwFL4K0kO33HBf1EfLTBTkV8HG5WiMPHL/9cWIDQi+CztlRhzOfQguTZwjaxTs1gYycYa73mvehxVB/+5IU5z0kPM2wDzvd36mutCv28jmiEGN/USbMYp3xzeI8FDLD93mofWC61QK0DHg3YK4ll2Jom6tEUostF1JCVc+tVj7ezQkaC1sfUJxNXjYGnFzJGbB3s4xGmYD113cuOGa9vmvDGe/3Q2c8QS0pRVtQh/cxJLM4ZVvG6wG+Lb/KGd8wsXcST5hRojj2UFo0s9sZrpfdHrRLC+8frefJ9R6G1TtBh+yu/rHsWbQADOm6bJ2hJhh+Is7081804Pp+YOv5ug8/FGR6vexj693ZsjVxM4z4YlE7jLRu5xGzBSfxls48Gd8zWhjrkS1SNYai3PTMaJaOdnp6xqrulAaJwEpVRyg0SfbgzLLto8Q+hyQNKjsyLW3Jl5ZYhall6Vyz6tMqHqNe+2m6AnuN/Ly8O5ymzxLjs5C4ER4fcTFjrY9nz0gF4YzvO2Sfao6NgH7tnrnTL19u2BdO0800Jj8Np/pjhFXlD4Pd+jFCpfuhaJ2xomZHVtySDfP7aC7vLqT6Wz4Xp7A3iuLYf86wDhxh3426ywj2lpu9S8xwP0JyYZbxrUt2kJV1zQFP6g77gOoF+Xq30a7Mli7wS1kE/sQZ9M6Levlhw9uDvFXDdDeQYaBdxJWoDdzhaqDHUttrvBlj+GsrgjCsV9UMFzBtxGZQTFadZYXvB63B8P3n1zbjG0dwqnCqrkqKlMCNsioLS55YqmmGGYpomG+xxr6MdFmOfTRj9xA0oSZfljoaeVU5XMc6+ayV4xUQtP7mbbU3ea3zJ/IuCBCWSHKUzPACRZ9pV+uFLBo88ZrcrYzvvj1DTN+t8lRBvIglQ/FMO58WTtQdBCgMDfdsMqZ2UiG00tx4f/DU4AkQC/Gw7lo27uj+1stzHom14f769RNhrLfKSDjPH0cMBl0rEFf0kj/RPaxXS77reH5ZM779jN2Oyy2PNXicvELpk42XtZaGu1jBlS4y8evp7WrAltr18nbFdhE3WhjlKpRGNuvRcxmATUEvOG6/ymvECV9xuc4ZAqf9WHN33ez29OnxNREbbsFJO45UEc7I+Jewryb4eyycadccZdl/t3CprzWg4VF0O/jNp/DemUudBHiZH2BKqcY8MUaBFipLUwAJMzLJWT00q4L26gVAn7x6VACIq6GV0GMPx0HcQYBj2iwSPHavXlvSPDIybHrnCA9KL0e7sK55qDpCHw2ae4zAXJ+SNWsAUJud9FrARdr6YAHNno3HRS3RiFtip0zv3kN8DKwqgkmv93lvaCU6+45DtxKhazNwrnpx6uPJJVs6S35BMzJe5uBDASGUxUsgMONiBHl5z8Bns90dMYKjhgAoLU7aiCidZ73divfLoZo/NxZAcIXPlD2ZGFHTUYfswut63V9hQKc3NWs2VtnHeDH2G/rwnizunfqf84uZkfGjFx9ByQ79cLdTU3KHhyQoXh3xYAwz5moT3Ip9MI+DQIvPDywDQJ33C0+iw4A6CIzr8TkUS2Rt9+pPM7P//PNZahFo1idaTIBc5F0Hl/uILoIZPr+UGRk/J/YIojSgcDdnYcO3irCRhnQSe/HCZm0ICEUx+OVPYefxgWUAR28sdmaLkxr6wPI9p6SwS4n4dR/+9u6138caoVVsOyHOzG5BmMqTe75+jBytMzLebM9AhGO2A3cZYpQANLEqAsGx5nGmnagNneobKGO0BHKCFDlv5ZUu1JcWmX4iHLta6A8yoIt462/yuM5XINLwCTOXfRJUtvA+Znj0KP1Psc7ROiPj/SSMT92c161ZKuYSKkrn26VJm2AjyvMlvHBoq0HpHbeXVpI0xtJut0ZqXszpI9Bt7sRe3a+Vc3g1/3eJZytII5JPOsED4bwMC3JjlpFxM7OFkpWgNC9FPs964c4aS2yJIkK7Rih/d61vR0gYMP/eqthLoYNxiSO6M5PniToLG/Ei2/LnrNxtw8/leobuEuacPGOUbEEAWfHiWMoho5pfwYyMGxHYzPpDlWBNeFVNdhTpqB7aEfoqIXzYFPnXHavVQLXceNlYvrX2onx6KJMYAkmaCCHB8AqXMl8BvHuv0LtQF8YHyEP21OwDT9ygoYxkZWZkfFCxu+IJkqIPPeGR/e7Hi1LKAgCKAgMVlh35Yt0Ny4sqHyrFNxIbUfKqAPnl3Ic1rh5BAFULP1qv+nCGgZ9+ytENbuhsoQxeL8jMfhp4QON5kyuzjIyPM3u0mKz1zwBDsmRoOn1L3NAkW672jA79BW0gq2EAACAASURBVL3Zdq5iIf++H+7B1ag63MstwVmAFnpOF2rzfJ3X3Kf/+lmjie+qoegSiFaTzbxclBFFO790GRkfxzFDC/Ry+Lgo0kdYyLcQ+XW4RjepjEv+UCYGAHB+/32OnRd4NIy3m1NxV94ML77Opxr9VYH/+WdngFgx/NQpG4hZ73K/gbu1XnITnpFxp2LrbiVNQ2dqmu3VaHilWIRLDqPtiPW46/BjnrPvvNc04IZi9xFY8ImvR1dvwfW5Vdwfv8abvbbspE4HnNWBfpRWtDAIp0wJ4flly8i4m9lcpQ9oFIdypFTqsA9gCX25ZDYJm+d0Bt/lFveAXuNI/S6xL6o2JzN/6I1r+XzwrNZeewC89tFE6FgIKY+Gqq2usua8H/r4rNYZGQ/14rThllU2aeDGd99ctMhsyxI5bInXi3ceQ/dUIKmzEXu/PGPNprNPfDiPiwKKVPdtgCuv9M36+ilVJ8Z9ta4xAtTCYv4IK00wby21UTIyHqvY9aJlkqgrOnDmZ3y8cNQ0o4qcD5rxjuAwYmOzMPzOXXzf5toJUGyyJ/MeTk0/FTipbL7qG1+Ao5w/F2+2Zfu50aamQyz0VgknAGTEswnPyHgwzu4CTYc7m16vWTJDUOMfXKK4eV0g74XBAG16Dc2FXdnf9gAnyt/AxLTj2k8FnTpCmByy96u8/tn3mr085gFIl8m+1s8+OKWlZlpnZPxCyUYNeC7yt51hjqPaeKj59oF2IYztSpeu7i8cagftirZ4fZfX7MjAhdfAuaBUup747/0K5bUvwM9LtPNl4X5IM2GkrmHTVdtI8GhGxq8N2RybqalSLDDVWuOytFaa5IKOqWZ6/fI8rkWYILC3E/ZR1qX0TU9NH+2JnFU3bcHPef380x8+hZ/S6HMUgyqCD9d+nozJci+/UBkZv9aLA8kOjULOWjsJ9QfYo3IJ4NcI2sY4EBYnqeFyDtGhxzsjS0DiErpGD5YGmzTXZ8BIR3t9sf7rxzLDfVZISUEXJWhds6a1dUbG3yjZNYS6X8w1m9Lc54G4L8O0HrcdOCcFdc2hRHGzQ27vaunZQkFJgQYJWrtkn8Je5ht5lJ+WaFPFw/Gyx9uTfQlECqprmdYZGX9jyJ5KDleB4aElLk9jqFFKocWBkxNYtcUuWAlIBxnrPfBsXgiUUF45Vt2dfdf463hjnvkTsuUSUFyh+XCELTZQmJoHroyMv5vZFTvaF1fpI2RUQJDSSJcZ/K+YxAfOd2F9NzXwa2+kQd19XVKFqCAeYdCBGArPhFfPk5/yurl1x3KkB9WTp8kx0y4zI+M/6cVxu6xO0Uu6tfgwNMsuMCjMjT2IszuH/THUOCrm//EmsTH7WGGxGTZfoa3ADuxVvf758zusR3PAK/cW57aa5tYZGX8/MACYml17bpqj4VAbzvNHeHjsX3gqsUrbw2/ZM/CJcunR1uvif2UxmqYiX4qefKMiRfzqzvXTo6Ah4tDKQlStyvSMtqDmcJ2R8R/ECNu8EEdajsceqaBOBmOSNRiSB1WjXa1wRXruyvrmlc52yNlgWdYDCdrFo7+SO/mpDW8CwsfkuOXVesUL5+E6I+M/HLIVJmltYdEB+guWddd1oyrq39ui717KMCyt65Uz2WP0q6p6FsbiGfjuYFErbbTL/1lujwE9NJBCB+lQh6HsjiA9uDIy/vNevMWhixF7idAm3+opphPvnLFTO7jYTWaHjfbsdb5SPABWUpvW88LKqfJthd3u7fo7+UxBwD4vxUN8sGvNr0lGxn+hF1dGxWJNroWrJfqBXKraanj8cN9qiBrVolo4t6z9x17N6vOgo25ndZuOLtrQAbfdrNeA0LuuIq7BqxhUDXvyS5KR8Z/HxNdj0Tkv9c7q5c7DZXnq5XHoGAB07Jxhy1dDi/jnV9EpqLID68OXqy7R5xv/6x/PgTqhZiswHhIK9P/HmSeujIz/TnjDhoU90EZptcD2qL3in31ZXEvZHmEFguBCfNzPSPFexaKE5PBxgmnpKg7frtdNSZQVzb3XMDr3M6t1RsZ/rxeHJIkbCIZYdXfb9M+ARqriZiqjlSV6uy+yvPrj9dPurHu5RscQNdPpEdynwM287nG2Rq08vDK5ie8Kn1+LjIz/YjN+KKXAoAvVugNHmZHm5TIJGTOAoTrZYg3ECvsnXaQDvSShoKHQ0AJQPm7m9RlmnCJh+ODSA8+WX4mMjP9iQNNgMV5PV90IFgoFQ1VlulETmlLL8TQ035LAtXP8r1eYPBo04GxqM5jgz7f34We/sC/C0hf40fVKSyUjI+O/EF3OVtdTC2BZyIfH5ozsG5hmqaZCQs8XWvb6eUxHDE0R00uApfb+gRlnbZdIIhiWS5xpZLXOyPivRyRyB1bS5WD3olFfjTzmrt1cijXkBhc+Ibty/1VjT7y1hJmM/fF1rYGy0Wvex1+fi5SfIXgKWfPcfUF+CTIy/hclW+VARUwQJuplt9Qj1mW1zwCGYujBh7UzbLN/oko/U9VjsHZQZxM2xq0+vF+oVB8ajvEzy3VGxv8mxgjP++i+MdnZXfQIFiXoUjr0eQn+H5K7+L+/svXSVdBaS6cvQec38pUOAP/tgQDTtQ7Pcp2R8b/qxdU0KjIxigac5eJ5KHgggqSS3B2Sx9IwYP5VhdfTqCDVRLB1/Lp6u5XXHUMu4KnwuTXuPWeW64yM/1WcXRbWjDU4YJVdnxcHq7qwsHV91loLijao05/UU2i+lx4Dh6onUkFuzdedCTzUzWRqr5L+ehkZ/8uK7YasKQmK5kLjthydOJNzLK/3HF0CSE4n/qMVhzdSNMQOwify4zfvXDJClUprema3kWmdkfE/DfHa67LjA6QSFM4VnrnHtRW77DZZlK8fx66xnwcnNDDApvUIVcL3ec1xm7X5oTnXnKVlF56R8b9ObNXJLNKiT2RbMk83zQSWgJQT8Dh+XKT+y0789HI1y3HpFPfVb+25Twy16fQPHHyY4rNcZ2T8z4fsI2gZUZTLABEabpt1PAWXC1s8zteXq+2V2DI9wvGnXQLCo76frxu/HDrl3rpmailkZPxfpuzRRw2JcU0ByhHaCrXK6wh6JSP0XLvy/vDPBRCq7vhQtNCHw/t6bfaH8YCvkYpmGRn/n5JNAitAjM19XaLQ4GcpcHaEcR9KZo1q/sOfY3CVrpdvrlYh88Y+XBcu1Aq5dIM8zX/vjIz/S0w75KehtabwsOlNq1ThpHNRzrXiZP/dXu5UXrqhay7M7nfNv2FO/1xBl4U7CMJJOV1nZPzfWnGOz20sPTnMUaWDXXOvJ1HjpTof44xdxkud94M0FZjrHPu/+vvxnTpOJ86hqyQ7MyPj/9mLuxS358Z9nrIt+QOd7zKOkBOedOcQQaLoqkhOafejK9CUd334ifsX4PEqszO3ZhkZ/9eSjYWui+1dptekYmPHV3eNreJPlrlbe7H0+mdqsKmbMisFt/p35RjHbNDnsER48fyHzsj4vyY2PpmlYjofp6lRL8WzFRi0tmrnTo3q4fHSiE/qccBEEVd5V681vF7agmAflP/MGRn/95KNMbX2HZeCYWiMN9heA0KWZtlNE71o3lewME9vXLs/f5/X8DnDSPP4QK40IyPjf5vYB/LBJC80rY5u4bEWMLNpUV7o+y9QoePlD9TjicqOKmF9rwhOrg81GEZdPW9cGRm/IQazss5do5YuXQs2yNWVszOf9Qigikdslf47dj97wt5T+TscqWTu0bqwlDnyXzgj4zeEwgdTKfAjlFLCCBfF0mCCsB1DQ8HSjCpDARoOsJyW/G0fDoqtXHZ/CUnJyPiNvXidzxUsCVWYLBdgCs9rtNVq2X21plzx0WNcKV9ldL55tdn6WQviZh+IGmZkZPxfEpsFd6kNmAqAEsVU5r/bO3vk1pUkC3NN2CGXAAMuImDBplUeneM8Z/Y0rKJEVv4VQJHgJdjni4nuN691dSUQWZW/Jy8m/t84XLcJTGMZ/poO1xL25Q+cp67oLxjTLRH7xaazEgtrXIT8wyC7L1pIx9OpXMPXma7p2B373/GuH/mTQ+n+LmOeY9nJOZn4uu/mY9+dsq4StQoJ+adBdlnZVTrCy3jlj2xK0S4dh3nOtj3/LNnLXaVjbjjNGTYzpzl2ZXSkrOWjWRPyb8lx9Tnv1cqW3eXIui//mCWC87bNn432h7I7JC/0Kbt5JtOXkuc8yg7NbNh8rIT8W87HX6mEfEUfp9N1132eCimLvaZxvsTT56x9WJbqldUfk7mUp+s1Px1/O9QIIf/SsLOgeJe7zbq8577Inw193q85FR3CrJs0THNpPy1L+8q/03mzsujrXJb8UU6BkE+4see+NIjnNbhzVh2di+LwNP/s0M36R+efdR7Z8nN8re/rcciTISVK531NyAfwswMz78ocyzr6U9YdPpUNAf35eM6DnNOYPfZs6fO1sdzc11Pe7nOaKadAyKdYdo6s54v5dqfrnq7+8v9c1RWOpWllzvdzzot1JRQfB90fnqva+UuZNSPkYxhLrqwILHTzdSl2Ll/3xVCnY3fup+7Qj2M3nYr8+KTz4UWquJ9OM82akM8x7CJolpVIc2GrXNVTVh4dT3OeBrlY+Pkwdlnj7OKFX6JwNYjZ5frY1M8jr2tCPsqwS4Xr4kxnlYWhdJnk/5jHPJiZ5cNzsjuLq4wZ1ZdStFKyJvnAphRCPohznr2eSikrF6PH6wDHmKdBsvxoljor7SrzWMTBpV1PXd93RY2BD5KQT3PF84bNsUxaT0PRNDye8trsLEV4MfLzNHRXNbTLP8g/OxSbp6wZIZ9GXtNTlnXkdHhpGu8uAXMeqp7KCs3jtVm0CI8ru778TxeH/TTSrAn5NLKqeD9nb/zaWtrlLZt5eqvLC3anYTzN/U+xW+XDx+u8yMxeM0I+8Moec7NokS7MgfVYNAizQWfx8P/KlObQZUNXfSl5a0hepMv7mpAPpATJpZm0LMXt+osZz/04nvshy5eV0c2SX5N23ee69sQJTUI+NcieSqdZLnjlqzpH111uHe2zrRfNlKsosbrnywIR2jUhH2rYObTuskFnOfBrRJ0Vw+e5Kwvrj6f5v75T8XVf2tO4uoeQTyXHyuNpLur+uSG8aKjkaexrq2hefz2c1H09jHlMm3ZNyMeSK1pZvnA89WOpXg/TfLmML3bbFTc8i4zL+7qokA6cvCbks13xfiw1ruNpKLsByp7MIY97XILu7uKMS23C/zuWJZ18coR8smGXNdbH666t63BXUS7N+uFDXrI7dJ38+qxmyF17hHx0iH08dcWq5/Hid58v/991Lfblv4ZpKKt1pV2P/WmmG07IZ5M3dh3PY97EN5y6MU9m5q16p+GqTZij7PrLs+b4eOJjI+TzQ+ySCB8utjyfjuciaDj0fV9ublXnGvPKa4bXhHz8jV1kU/I6+/Mw9d1xys73xaJPQ1mULe/rPAHG6jUhn8+573MHaX+6mPZQNBX6vitbu/L+elm/vkTgE+2akB0w5BXY43WCayoR9tzngLt0kE/SD5+mgdlwQvbAlEVSxtJxci175c7Ssn3zqO7ryxHAmQ9CdsF8HKb5uil3PJYV2d1pzhWvMhUiv5Lb9gjZCbkbZb6Ydp7Kzunw8Tzk/tLh2HVyr/186umGE7Ibw/7Zx5WzZ3kjSN4UUBzyWebD+5FNKYTsyBUfh7Gstx+yEPF8bSzV+mZZs5APi5DdGHZfbHm8GHhftm3mvQB5GrtTDjsfFSG7YboE2Bcn/JTzZnl9Tz+cy2Yf5Yez2YyQXYXY09X3Hru8BSSPdU1dP/wn+8167gMgZFcMedfHcL5E2WPZxHfNm8l9Hyfe14Ts68I+9nntfX8x6rweez6e8n8clR/O50TIrjgP/diN+dLOPaRZX2GeTXzNx0TIvpiLduGUF+ZmTaRS7ZJ1Lm7RJGR3/F9e+DEVk+7HMe/gU374TLsmZHeeeNm5N3Zl995YmtDkDU03nJAdGnapdk39XDrFZz3PRSVSQvZI3ujT5/VcWTz8eBonoYM00K4J2aVdD13ZwHUs8mZzL/Zpcj0uIbskT2n2/eWizgv4ssKZuK/5fAjZ5409D/NQStf9NI0dZRQI+YYL+5w3+wx9n1d19b3sIyWE7PTCzmF1ViMdxv409LyvCfkKu85tZn3e+HE89v/xvibkOyLsqetPWWNhyBs/+EAI+Qa67IbnhR/9caIfTsh3MOV+lLxlM/ec8b4m5DsYu1y8noZhPHKCi5AvYT7Ncz+M43D5b9o1IV9CHtTMyz4YXxPyTSF2kQ/vp4H5cEK+hnN3FRSnXRPyTZ74lDf7dPOJdk3I1zAO89Ad52lkfE3I9zAPU96Sy7kPQr7qws57fKaRdk3IFzFcPPHjifPXhHwTeR/2MHe0a0K+y7An6ioQ8mWcj8dLkM37mpCvYjwOR/aREvJtdn1xxWnXhHwV3Xw8nmjXhHwXwzBPzJsR8l1Mx57xNSHfxrHnfU3It3E+si+FkG9jZB8pIV/oiNOuCfk+R5x6pIR8nyNOHSRCvtAR7/kMCPk2hpnPgJCvc8Rp14R8HTPtmpDvg3kzQgghhBBCCCGEEEIIIYQQQgghhBBCCCGEEEIIIYQQQgghhBBCCCGEEEIIIYQQQgghhBBCCCGEEEIIIYQQQgghhBBCCCGEEEIIIYQQQgghhBBCCCGEEEIIIYQQQgghhBBCCCGEEEIIIYQQQgghhBBCCCGEEEIIIYQQQgghhBBCCCGEEEIIIYQQQvZHavHub/7Sr8/A+af1vOB3x19/mPIleMnjf/BXz18OrH0uzef+OW9y8BCw4hPZp1n//ELXDxI//4fff37+SSPBPje07BTXHwbigcP/+utXon4NpSVdv5myrusf+Hl/Id5m3L7m5wvTn37v+ze9//bQNo5UPWv176t/+cSjr/9W3B9J9ZHDMWjUXyWfh/0g0v1luT6xdHuGSO80adh3DNXbjYet/vcb7NSu7x/v3QB+XwY8+71bp6H9A+pvX7y62udwdO9UxmssDvYQf/CTTd455rwwwe0IeD//4+fK/Xf4OcPUcQd16Nz/Ec5hIJ+c9xF4Z1R67z19+xFgfibvV0J1HtUfGdTnt083HAjdVjxp2Pq76r8psIn6laxflODggDUV9bJW/1KfYfKzRnXroL7cV988+ht6R420ZsTPvv7qB64+/0hBdYui/oWrh1H/1s7JdPONfOcX4td+102nzkP19LXjh9rctQHfPEvs3w0/yIMalUuL0Ft+7h1vuAKuX1Q+AN8f1tcfEHkHCL6vsCHn4rp/wcrfGN7hAnULq9en+ukhf1jxXj5o1D+BRO14awfB9T5hbESbuRvCo/6jP17Qm6wa9dOqbgSs8rkR/8sdh9fe7YBXXNiAuUWlUR18Pxy/lqz/TOOnR+BsBC/v1TNVd5MTbELeaQ+kbRDZrutEeL4GnPB49WsO59oxP1EQGdw9WQT+ln+WweQGtg6vEaQl4QRccFM9qF81QEYlOw+v9RMxDtkTmQwZcEHeHGG4DDfREf/wUFeMMpT6hbuny5DqlBrE4SBekOr1XvR7cL/w4BwUCF0IVHkahAn0JUNRcbR5v+WPA5i/H4gyavV3lae38HnFs05bX0m3AwzRR69/b4iLHCaH6Rz8u61yASqs1W/AiyosUG7PmlipetXd9xjBR4P7OQzpqoUZNhMsAOtdMpWBTybTnuTr1PL9YJ2QezS4MllmDowUB84whQd5KKFysx03vD4bVQ5wcw8c96A/6aO98lnEuQ/zSclsYRWBA7u1azg5Qp0bfCK0NmaFlnvj3g6NlwT2dnWrkjajg6CqBG2WgEijNQNrNHxe6JyZH+eiNmvorO26o8XcV2iGAZWLCt/0oeLtVpIO672L5+NHiEMYcM5SwHnygTennvRbYolN635+efnvF7ZKeVVvcfsF/XWTUuUlo/GSuBeda9x1+hfQR1iYmLZmuuSc1DctYK9EVF9hvF15IMAp4YexQOBR328irOhFWexHccJrx//A5ve1k79QR5R3kMHk7eG5esrmd2vX9lmYPMNz9S3rA/p1G/tRVf7TQqLKzWXDKUWb5FRt5lAdDbBPoxlaew0oyomFjfls1QlBCj80luTHwyafCO9pRJljeKem+uBgq3lvMGtRm0QczPgPETDnnuPW/Hxou3bD3crQXwMl07Xmn5xRdtt9TZDiEl3QRAFTMEIyWTL78iOp4pD6yvjHiG9B2Ljg/ny8prDrD6AiV8RpTH1KBIF27Ts5vsAtFNV+BupEKlw3wYvbt76MqmgRCSY98Ps5Q+T5gSi5UQXqlbu0V7uGFwqqtP9Dp1YyyUnR6tl0w1UEXOfTD830uc0TPZFGhL7xhKPZ9Bp0Jv/h/ERSrjTWtOkl88xNi8XG94ITqG921aWgt+i9/TCfXuWCzCEjuLMf+aQRJWLrf1wq0+iCRRhTQlSxWufA6rK7rEAr+/J9QjhuwB9fsXYThWMuKQp3Vte9n7IxeP02G151wo+DLWgcyD2XGCeNrj7hX0Kf2OuMw+uoASi2QHg1m2c+XMgfWxeWD35bhuuR4tkXF7ChePuZ2yr+theDzvHdL4htvXDhb++9O2wTNwrxrFr1vz9SDkc8oHi7zP36K9ybBy033EmGPXloB2kt10xMJ4Pov37K0zRVJ/iG7Y+SbB7l1qcaxG+9rj3vKRczbMGnTZvwKB4CXv2OJlvAsc19QDu9DVP1bnWbBa2YLyn+Ja83yQ0FzDn43OFi0vloPIsgpY3NrfoncnKPwM1uzqApOYpR/kftuj5ooSabRJPWqkcWtDGqv6L8pWFQ4IxyIa5ew/a9vOCd8s+XqHwb9XrgFSfLvZEnygi6fd54j1t6c1DEXN2Wmgr18WkmXEGL1q+Ef0HgoeyLUz+FNLh7qN0ya2cK+9BKAttO0FfIjIhOpWqAsxnZ3kYZnwsF5PSkKui4KfzbPOm9nPNIWuSp8NrvDtnyJgo6bWjRxqdBQtCJgLWiNskM7puOCDSLNca1utUlEcZ2ViilvNHPPhctp4J7+1twXb/0LbMlx2qoxDvfAN3X/o6uipaqBTZ9ZeEe57Ro5TdD9uCZZqQ1EbYzORX7qNGfF/0EWDmrbWYXnn2fA5EGVyzEb6t+9r72BhV8u/YUZvCmF90TJAG2zGA5ok0061baDJ5+yCM3EGwSG4HuTJTehu2sbnaRAqGC0Qu8y6Blzh6McnTo7jC/JnMn2m9hK/lJ+KUqIf8Gfw9yEmDjMrLfyQ3suDVso+NWlpkR3dVLIZOegrEqHWJUduEjk9dV0JSCQEfs6XcKwUSZ+dYiD4G62xIvccPr1vKodhYMNqR3zBiqW7Ou9W+dDf8ewaJNrmuj5qnUKNcqYyY55CjjvWQD4fiQSV68HB0k0Z95/hayY1FOkrtqcjOHzFPCcHBKR8FnYNvgn22L+du9ACGusFnazHwieJt3si83HFYRwKkLLnTBx20ovv5HO4dnNY1aLxVU3ujZeyrSB3IOJLiToXhF2gzevJfzu4XKRtub9QG1foFujNvOQbBDHmD/qHor615uZ8DFqH028sdC5dGb52/XQJDgtnmhlWaLxPZedta1M1HiYKlcFTwpnV11ptsUSHQcihr3u9xwf15vs79bKkAIaRPatbYMiLQHnGHptJCYDtRWYEaZf/8zNChXeArNlB+Mw/xkQ0hyZ9GDrJlW1HlFQ4inbx99APIDwmLVYQu7xstDoYYbrsRdsHGibq927X8swhrldFZsYfDvWm9+oZVaFQlWrKpyvaZyrHLannhO/F5D/+hP2rUavAybCMREOZalo7bKYekZ7i1dTFPZA9NmOm0WXA1aNQ9hZdhRjIIdy8Rd1M5/5/XuHnEQNF4qGGW/35/x0X1cbqEPLQFHpdq2SkRo9c+yrt0jNaZh3xBe33RdTcy1XUIomViv8cSeY6/3td13ArjlI4Q5r+CrDn5hPJaLRyP/kxp+OHRp7OZ/ajUhtPUNHfUlLDSz6uADZneM7duGmPmCo00DBOJd7jiZV2x402vp/bzYPLxO2s2Eu38q0LCE0o1snApI+5Ys9CQ69e+MRgU3OY1f98lud/VG26mz4nN+DCEEymrRbhMrKwfbagFowSKviQzLlTmlPoMUXafe0LJdoeX0VaUoHwBHmXXzvKs5qrBtF2n1icNpeEq2G6r1Eeina2Z8dpsOh9t5IeeprMp647b+sS8RCUGohkXVa7c4hnbTqRTrsPeUFVFpjKGaT3pR7txNStRjmqrTxm18TWo+xkg7oSl9kryhtsdG5p+rciWp74pNc9ORGrYzy+oej/b5hiozbygTbnpfw5mmtK9q0ErptJL/2mHVL2BaCNrhsnnvmzl4pzyWDsawAxUXhMO8lYMcrimrtPBkf56zfsQrBsFdFgghXSi26tjqWfPF3Pr90WtNsHkm3g4Zwo722lvYul5wPyQsDzHsI7x2Gs5+x4BMctzJY5mX9P4/2qesw1/fp5UuMrAgcQh4itF+Ug/CC0Cw2iU51ywiEVBfdBS6c905RRDYImRDAYweYiNzvhy9bFYm1aX2tOnfmKI1JrCTvoh0gKwgJXS5d59m7e0t/w09D1IU2xcj8TO4TnkZyxcJrAB4S0szCJ1svUMNlcuJI6+5DnYXRDCuX01imLsD1hlEMgrqYSIc0dQJFirdeG/aDE4L04YtnanxudkprzqbB3dZk55DxqtkMf55lcuuZr1FccmMTiuR/mp6vyp5az/Z83MPjRq4IwHY6Iiwb7Ouojm5KnfID35DTiNWtFNFbicAnKULrXz8vS/2Ls2MllYKoqj9bfcClOD6hs3h6lREWhDoi/TrnXcekHmO/YbXSJW6h4hGfiNk2yB4q1RpzTIpGZ08RzL2b7QcNBa1Um45OqS2tJl4+5xWVSfGRS2r0C4Twl60TjbGd8khdVgCS5dxYFjSgGqwRHrX+6OPNGw8zIWgQ1k4YvCyZ0iL1+kvdwAACs1JREFUFe/9K5tWAS2gs8YyfpRn4zX15a/DsLG7s3gvyME4skYIF/RVSSVzBR9iw05Wxs0m1e5XbFrOTyRvc5sfIUCF+NG9ApMnv2sbRWkzmOoOtrfrlIIq8caaCvVKDlNCj5cTQf25m7YfzHm+X7uO+q2i+NkI8tjAtopDTSKy/juaNbeklNBazWaAd0t6pwCS12eCehzI2NXqyyMFazPVr2T2z9rGCHhuTsPVcdMXWHI0XvgCmSe3ZcoOfus+zO0jc6lQ56TIhkA3P+Pmeu7drmElObT51MkfeGlIJw8d30jLTSkLveQHu962qqOFX+93Kiwpji6njZq7w//YQgonJxAoh6s28qW0wAvdcJgNlXE/4eteWXvZ/rmXNPyze997HbTb2a6HoLItOgi9XLHWBvBfOCFrqXdaNk5ueGv64ljQeBBo9p08cDBKd/zJoQ/Azl8jCK/hXO9vmYLwQtKbmW2XqVO9ENRKcStF8JpzpF0jzuHWZiXtAjprCSw2kYrc0d3fjxdpAr7L0TzqcVfjlS0zDwekSrDvZZL4ZsFrLZPtPbZ66ebfNiW+Io57nbpc+4HD30lDg7YFkrAP002OqPDXFRyQ5Sc1Idb0sFauj3SqUY1v3/BPRHXp79e18kdfUhaW6uFwh7nixra3pM3qnsK62LCVXeM+QIY3jI/t0a5VTb4eeIAJo9LCnngEWzDqTR+3bxO/I1579vI+e5U7W/LioOuX+JPzmrSSTHqNrFhS62ZRm8/BT5u5qfR3p11T5FW8Ph2u2064lktHnH7+QGecmi0+K9qWIULQOF/tjog20mZy4CCF0qXixobNuEc9LUvuMqxm+NPyalUh2k43LLgg72wO90K0TRf4HLzGMPC+9rIzZgTTZpSXS/lBKwjWz7Q6jSL32CD4elXGwIqm3nBB3MIIabPMU20meUl8KXpZ2t6mu98Qb3LDYfIr79FUUHNziZKF9kKVs/y3XJX+AOWSSK8a6KeUYKqLCxKEsJn2RclCKNGg5QjNs+aH/ddANOF5m5JLnZXh6Dc97nR5Q3iNsFV4s78RygcE3pP835lde2UuuLcCWiuHk3OYOwn00EmDUVtKS02kQTvI0sltZ3nwx7eyTqiv2en70D2YlDIcfK2COh0BPXSy9fuDoL1ms4aYWIuG4bXnkto+qIUUCRY96xSPfPiaCrCjyY330xXGWPdSqfl6v1NlfXxpRVuflfdVFUSZE2hnzmuhqfSG9weuNMW2zeEIPEdatHujNkMzod3lDAvH77wZgw/CZWdIM7Xd9mBkI63e+Qmn6egRw1Yt3HJ6/BUHLuyUVAoz8undzVLiN9djUZtmzWCEuxheq5PezyKhGc7aELWVuNTT9tGmLdW1VLclhu8+/HavdQkfr+Ws6hRf6RTCqos9O0ilIoXWNEWcmwTes8HHEWXeTrIQji7Uxq7/XsNrp5UMi+3bkKMS7ksPuOJCixoJ1slfSlnFLeoNkwSEqCIA7Zw/4i6bsbAXfDCuFHv7cBayKnjD8LXqfcC29Wt/QhP0wx0XDq48QSt7rlVL0UqqAGbIxrtHTO85qps+uCuTncFdXfAwiR5PivWRa1WLzrwi6YvF6/pwbzEFZO1h+1fdLCgWJreZXTvjPjRsYUp4qKMhIegUbzoDns7woXVqOFq74Q8jtF4e+3zNxk/IKHnFjW0Dkxfe12L8FDdd9xSlGbTcEp5dZrTiEcLvD9nOWTCthXUnI/YqbrJFeG0LXLFl1NK5dwXChe9utNvXaBot56ZFBq/WYcL6IhUgTxwsrqNdyOC/Jmt2SLr1rsoR4RDG17oQufksRN3ya3rjthkSNeK57/RPduWGe3IyCO3aymg1r8OqDASktlqv026+6DtIgT88li0yQxJqtehSTbQhdvKaffZYM/+STG4NKqDYvJ7i63hvUu36vZihvZO07XTojvD2KUXNDzqh06hvmbzWqjYT1YMJoVu79JOofoxHukAhNVOMjFC7IzUF6qMAnrVrBOWrlqMDV2jMG6OEFOmEM14vFPyCv92O6sKf/IXO7td7BKEDdJM7uT/O6iy3W2Sgp3yb0mWIhiPeJdG8bTrc12JuWcKaAFRut1oek02Ae2GHXy+lvyFUov9UEbgrW2GxlV27L04m5xVpM0cLO55XhZmGtz0JiJSpklYL9jOkqXm6hruRYMWqAPiCJf66LLj5TvfoQ7PMo7sMgWg6ccfSZnYJ3dIsjtbPWhN6rfJRbeGinQazF8Lf5izR0P1deBgydyOb5Z8KrwG/93Zh4Yiv49PohkdypJvczarRFtWDK53qfiwwa/KcOrSrcindH+lW3osmsIeGc6GHYwGO5g72a9eeRGdaYa9pcbRBeX1YGI4WqoHrJY38j+wPTyFQD20atr0wsCosX+eG2xAmbE71jTpZwTq14AYmAeKcJ6JEHZ7HUEvroN3icMAmBVN5kIkTWz/1lhjDLeUnRAVvMSxjVjPuN23maTsuJJTr6GyFk+9OGjWrXEb9Bw2bEkHWn1xgAC3RmMZ3VPNneJWumF48I66TBa9DFoDgifKhuazBdHJh1XRtoIcaKjHWJ0kdm8No29lOMrXwDdLvdJYjwewuUJ8YvLNv3+F1dTTWcvJLZd/F1FBLFXKh2i0SYWg0ndpNtH+xKTPmafvUG2ppQogakcLEg/nM5OjBpQXXIYXLnIMis/DGvay2870anplY0mXCWiDU2vEjamWewbvlTiJaxVnzKNyzC9+h0qACICzeTzIjiaUvcpulmnYNu288UC49eOED/qgrJt4gKeqClkypH6/haTX+5O3SXYj1/dXXrVS4EdMPb+17tq2Vo0CySul1uAtEeenkHqrV97D3jLuvsN6Sqbc0WLdbX+Jaz2fPabNkt8Vi5fjy4tfAPvlYaV3WQ1Y1hwN6S8Of9z0DCNpz0OiXD3dzPG/Xztu+WIo2siVICGod8HSEpOqS8m4X2kySv20aRvQC3hXuLO5elNdZSn57Cybcgfs4TbPfhXvJUQVf0a+1ZrrYWAmaQ5dmLKiWzF3w8pcHwdcloP3AIc6EORWx14TXTmCKNd/XdS21bZnBNet+VnKfyizX1Ex1v7jVrbUFhzghj0bmFHDl8/x99glxgiEY2N2pG35ftAfhmixHhyu+AtEjS0t2iqVB8DoEdZ3HJ0Jaz3OLXHHhr+J1eoFxvWrlaaqyZrJcqydKEMqTAWsLfrZs6ktWVD8BWnU3NVIPpMUMrp91deLnexIE1mGQWfg9N6XoYuA6MfnVugW2lrbYHK7zuI2NAH5/O/7+OEwfu2xlsKdbGD+8xg03fgBWXfc2pQE4GYT7j65bt2D3R6/529UtjVaCPag7pd+fBuuacuV0kXNOpHqZJIyTAPtrftvCvde8lX/77i/88rTBT+x9a2z0AF/yu+Gp3WDP/e3v/5vTP/xtCSGEEEIIIYQQQgghhBBCCCGEEEIIIYQQQgghhBBCCCGEEEIIIYQQQgghhBBCCCGEEEIIIYQQQgghhBBCCCGEEEIIIYQQQgghhBBCCCGEEEIIIYQQQgghhBBCCCGEEEIIIYQQQgghhBBCCCGEEEIIIYQQQgghhBBCCCGEEEIIIYQQQgghhBBCCCGEEEIIIYQQQgghhBBCCCGEEEIIIYQQQgghhBBCCCGEEEIIIYQQQgghhBBCCCGEEEIIIYQQQgghhBBC/qf5f6WpHxqo/hUGAAAAAElFTkSuQmCC;" vertex="1" parent="1">
          <mxGeometry x="458.2" y="290" width="85.6" height="60" as="geometry" />
        </mxCell>
        <mxCell id="aSY7YGyr1cNNzH9c-0jM-66" style="rounded=0;orthogonalLoop=1;jettySize=auto;html=1;exitX=1;exitY=0.5;exitDx=0;exitDy=0;endArrow=none;startFill=0;strokeWidth=3;entryX=0;entryY=0.5;entryDx=0;entryDy=0;edgeStyle=orthogonalEdgeStyle;" edge="1" parent="1" source="aSY7YGyr1cNNzH9c-0jM-67" target="aSY7YGyr1cNNzH9c-0jM-53">
          <mxGeometry relative="1" as="geometry">
            <mxPoint x="781" y="440" as="targetPoint" />
          </mxGeometry>
        </mxCell>
        <mxCell id="aSY7YGyr1cNNzH9c-0jM-67" value="&lt;font face=&quot;Montserrat&quot;&gt;Red Hat&lt;br&gt;Enterprise Linux 8&lt;/font&gt;" style="rounded=1;whiteSpace=wrap;html=1;fillColor=#FFB3B3;strokeColor=#EE0000;fontStyle=1;labelPosition=center;verticalLabelPosition=bottom;align=center;verticalAlign=top;" vertex="1" parent="1">
          <mxGeometry x="441" y="520" width="120" height="80" as="geometry" />
        </mxCell>
        <mxCell id="aSY7YGyr1cNNzH9c-0jM-68" value="" style="shape=image;verticalLabelPosition=bottom;labelBackgroundColor=default;verticalAlign=top;aspect=fixed;imageAspect=0;editableCssRules=.*;image=data:image/svg+xml,PHN2ZyB4bWxucz0iaHR0cDovL3d3dy53My5vcmcvMjAwMC9zdmciIGhlaWdodD0iMTguMTU2MDI2MDg1NDcwODE3IiB3aWR0aD0iMjQiIHZlcnNpb249IjEuMSIgdmlld0JveD0iMCAyLjk1MDAwMDA0NzY4MzcxNiAyNCAxOC4xNTYwMjY4NDAyMDk5NiIgZGF0YS1uYW1lPSJMYXllciAxIiBpZD0iTGF5ZXJfMSI+JiN4YTsgIDxtZXRhZGF0YSBpZD0ibWV0YWRhdGE2OTgiPiYjeGE7ICAgICYjeGE7ICAgICAgJiN4YTsgICAgICAgIGltYWdlL3N2Zyt4bWwmI3hhOyAgICAgICAgJiN4YTsgICAgICAgIFJlZC1IYXQtTG9nby1BLVJHQi1Db2xvci1SZXZlcnNlJiN4YTsgICAgICAmI3hhOyAgICAmI3hhOyAgPC9tZXRhZGF0YT4mI3hhOyAgJiN4YTsgIDxkZWZzIGlkPSJkZWZzNjc1Ij4mI3hhOyAgICA8c3R5bGUgaWQ9InN0eWxlNjczIj4uY2xzLTF7ZmlsbDojZTAwO30uY2xzLTJ7ZmlsbDojZmZmO308L3N0eWxlPiYjeGE7ICA8L2RlZnM+JiN4YTsgIDx0aXRsZSBpZD0idGl0bGU2NzciPlJlZC1IYXQtTG9nby1BLVJHQi1Db2xvci1SZXZlcnNlPC90aXRsZT4mI3hhOyAgPHBhdGggc3R5bGU9InN0cm9rZS13aWR0aDowLjEyNjA4MzUyIiBpZD0icGF0aDY3OSIgZD0ibSAxOS44MjkxNiwxMC43ODEwNDggYSAxLjc2NTE2OTQsMS43NjUxNjk0IDAgMCAxIDAuMDM5MSwwLjQzMTIwNiBjIDAsMS44NzYxMjIgLTIuMjgyMTEsMi4yMDE0MTggLTMuODU5NDE0LDIuMjAxNDE4IC02LjEzMjcwMywwIC0xMC43MDk1MzUsLTMuODExNTA1IC0xMC43MDk1MzUsLTQuOTc5MDM5IEEgMC44MTA3MTcxLDAuODEwNzE3MSAwIDAgMSA1LjMyNzA1MSw4LjE5MDAzMSBMIDQuODY1NTg1LDkuMzMyMzQ4IEEgMi4zMjYyNDExLDIuMzI2MjQxMSAwIDAgMCA0LjY3NTE5OSwxMC4yNTY1NCBjIDAsMi4yODMzNzMgNS4xNjk0MjUsNS43MzQyNzkgMTEuMDYyNTY5LDUuNzM0Mjc5IDIuNjA4NjYyLDAgNC41OTMyMjIsLTAuOTc4NDA4IDQuNTkzMjIyLC0yLjc0NDgzOCAwLC0wLjEzNjE3IDAsLTAuMjQ0NjAyIC0wLjIxODEzLC0xLjI3NzIyNiB6Ii8+JiN4YTsgIDxwYXRoIHN0eWxlPSJmaWxsOiNlZTAwMDA7c3Ryb2tlLXdpZHRoOjAuMTI2MDgzNTIiIGlkPSJwYXRoNjgxIiBkPSJtIDE2LjAwODgyNiwxMy40MTM2NzIgYyAxLjU3NzMwNCwwIDMuODU5NDE0LC0wLjMyNTI5NiAzLjg1OTQxNCwtMi4yMDE0MTggYSAxLjc2NTE2OTQsMS43NjUxNjk0IDAgMCAwIC0wLjAzOTEsLTAuNDMxMjA2IEwgMTguODg5ODEsNi43MDA5ODUgQyAxOC42NzI5NSw1LjgwMzI3IDE4LjQ4MjU2LDUuMzk2MDIgMTYuOTA2NTIsNC42MDc5OTggMTUuNjgzNTEsMy45ODI2MjQgMTMuMDE5MzY1LDIuOTUgMTIuMjMxMzQzLDIuOTUgYyAtMC43MzM4MDYsMCAtMC45NDY4ODcsMC45NDU2MjYgLTEuODIxOTA3LDAuOTQ1NjI2IC0wLjg0MjIzOCwwIC0xLjQ2NzYxMiwtMC43MDYwNjcgLTIuMjU1NjM0LC0wLjcwNjA2NyAtMC43NTY1MDEsMCAtMS4yNDk0ODgsMC41MTU2ODEgLTEuNjMwMjYsMS41NzYwNDQgMCwwIC0xLjA2MDM2MywyLjk5MDcwMSAtMS4xOTY1MzMsMy40MjQ0MjggYSAwLjgxMDcxNzEsMC44MTA3MTcxIDAgMCAwIC0wLjAyNzc0LDAuMjQ0NjAyIGMgMCwxLjE2MjQ5MSA0LjU3NjgzMiw0Ljk3Mzk5NiAxMC43MDk1MzUsNC45NzM5OTYgTSAyMC4xMTAzLDExLjk3Mzc5OCBjIDAuMjE4MTMsMS4wMzI2MjQgMC4yMTgxMywxLjE0MTA1NiAwLjIxODEzLDEuMjc3MjI2IDAsMS43NjUxNyAtMS45ODQ1NiwyLjc0NDgzOSAtNC41OTMyMjcsMi43NDQ4MzkgQyA5LjgzOTUzNywxNS45OTk2NjMgNC42NzUxNTUsMTIuNTQ0OTU2IDQuNjc1MTU1LDEwLjI2MTU4NCBBIDIuMzI2MjQxMSwyLjMyNjI0MTEgMCAwIDEgNC44NjU1NDEsOS4zMzczOTEgQyAyLjc0NDgzOCw5LjQ0MzMwMiAwLDkuODIxNTUyIDAsMTIuMjQ0ODc4IGMgMCwzLjk2OTEwOSA5LjQwNDU3MSw4Ljg2MTE1IDE2Ljg1MTA2LDguODYxMTUgNS43MDkwNywwIDcuMTQ4OTQsLTIuNTgyMTkxIDcuMTQ4OTQsLTQuNjIwOTYxIDAsLTEuNjAzNzgzIC0xLjM4NjkyLC0zLjQyNDQyOSAtMy44ODcxNiwtNC41MTEyNjkiIGNsYXNzPSJjbHMtMSIvPiYjeGE7PC9zdmc+;" vertex="1" parent="1">
          <mxGeometry x="474.34000000000003" y="540" width="53.33" height="40" as="geometry" />
        </mxCell>
        <mxCell id="aSY7YGyr1cNNzH9c-0jM-69" style="rounded=0;orthogonalLoop=1;jettySize=auto;html=1;exitX=1;exitY=0.5;exitDx=0;exitDy=0;endArrow=none;startFill=0;strokeWidth=3;entryX=0;entryY=0.5;entryDx=0;entryDy=0;edgeStyle=orthogonalEdgeStyle;" edge="1" parent="1" source="aSY7YGyr1cNNzH9c-0jM-70" target="aSY7YGyr1cNNzH9c-0jM-53">
          <mxGeometry relative="1" as="geometry">
            <mxPoint x="781" y="440" as="targetPoint" />
            <Array as="points">
              <mxPoint x="611" y="800" />
              <mxPoint x="611" y="440" />
            </Array>
          </mxGeometry>
        </mxCell>
        <mxCell id="aSY7YGyr1cNNzH9c-0jM-70" value="&lt;font data-font-src=&quot;https://fonts.googleapis.com/css?family=Montserrat&quot; face=&quot;Montserrat&quot;&gt;Virtuozzo Linux&lt;br&gt;(VZLinux) 8&lt;/font&gt;" style="rounded=1;whiteSpace=wrap;html=1;fillColor=#FFD6D6;strokeColor=#E30016;fontStyle=1;labelPosition=center;verticalLabelPosition=bottom;align=center;verticalAlign=top;" vertex="1" parent="1">
          <mxGeometry x="440" y="760" width="120" height="80" as="geometry" />
        </mxCell>
        <mxCell id="aSY7YGyr1cNNzH9c-0jM-71" value="" style="shape=image;verticalLabelPosition=bottom;labelBackgroundColor=default;verticalAlign=top;aspect=fixed;imageAspect=0;image=data:image/png,iVBORw0KGgoAAAANSUhEUgAAAMgAAADICAYAAACtWK6eAAAY20lEQVR4nOzde3hTVd4v8LVKL0lJ0vTepBfaSClQLqVpK+/Ii5e2+p5XdPAyoiDqIElaH3WqR7T1MqiogOjAKApNqiODigw6gpczz0gr4wjlHGhSnBakLU1o0iZtacm1TVto13kKdl7EsullJ2sn+X2eJ3812fv7z7d77ctaOwgBAK4ICgIAAygIAAygIAAwgIIAwAAKAgADKAgADKAgADCAggDAAAoCAAMoCAAMgmkHAAitl2U8WCCOLkEIzUQYBxOEDmrMxhc1FtN3tLMFOkw7QCBTJqRMXy1N2owxXjLa3zEhe5WN9SU6l6PF++kAgoLQsSJOmnt7TPwzMj7/NoRw6FW+PlDncmg+7jBvqrR1Q1G8DAriRdnCCLFSkrRWLhQ/hhCaMs6fu7VO+3a1xfSyzmm3eSgiuAwUxAtkvPCgNclpv5WLIjZghGMmuTmLpq3lAXV7ayVL8QCD8f4XA+OULRAJ1qamf5ApED6LEQ5nYZNCuUh8r1woCm3v7z9sHug/z8I2wRXAEcRD8iOj5yolKQoZL3w5wijaQ7uxGtw9O9a1nNpc1+MyemgfAQ0KwjK5QBy8Jjn1tWvCp67x4m6tOoetTNV0vNyL+wwIUBAWKRKSFykTUzYhhBZSilCraWtRqNtbtZT273egICxI4/Gj9syW/5Fgcj/tLMMM7p4X7jlx7BXaOfwBFGQSCsQxCTdFRq0sjIp9DCGUTDvPpQghJ7+1dmnKLaadhj73Gdp5fBUUZALSePyQZ1KueVYuFJUihHm081yFu+rsGWWpofFD2kF8ERRknLIFokT1jLkfE4wW084yHpiQnarG+jVal6ODdhZfAgUZo2yBiKeUpvxOLowoRQiJaeeZILfOYSvbaNK/q+9zn6MdxhdAQa5ieDillKQ8UhAZXYowTqCdhw0dA/21+7o6Xquydu2DojCDgjDYnj53hVwofAVhnEo7i4e06hy2p1RNx3fTDsJV8KjJKArEMcm7Mxfsk4aFPYkw9tXh1FiIJGG8uwsjo6UGd28lPLbyS1CQy5Snz711ZYL0S4TxHNpZvCUyJFS+JCb+rgtHFJejgXYeLoEhFkIoLiQ0/Mkk2UM3RUYpMMZZtPPQhAk58lGHecPmttOf087CBQFfEGVCyhxFYvInCKFM2lm4BBPyD43ZWFLe3voD7Sw0BewQK1sYIV6bOn3zkph4NULIL65OsQrj1GyR+KFsoSjhxx5XtfX8+X7akWgIyCPI+tSMgoLomD0+fD/Dq4aHXWpz63J1u7GZdhZvC5iCyHjhQfmR0bcWRMaskvHDb4clj8ZtQO/u3V9l7Xp3X1fH3zvODQzSDuQNAVGQ/Mjo+RvSMj5FGE+nncUfNLt7v3jd1LxK53R0087iaX5dELlAHLxakvhgjkj8R4TQVNp5/IxF57C9pLa0vad12fz2/onfFkQhSb5eIUneEuiXbb2gtqz55H2Vtm6/vH/idwUZHk49kZj2bHxY2D20swSQHoO758Lckyprt452GDb5TUGUCSnXrJYmbbnSKoXAOzAhe39zolbpL5O0/OI+yPq0DMVv4hO+xBjPpp0l4GE88zdxkrsxIjVal8NEO85k+fQR5OLkpXkbuDIXHPwcJmSXqrH+CV+epOWTBVkeK53769j4F2T88NsQQlyf8hroBupcjq3rWk5t8MVhl08VJFsgEiilKc/IhaKnx7DoM+AWt9Zp31JhNr5c43L00Q4zVj5TkIuTl0QbEEZJtLOASbFozC13qS2th2kHGQvOn6QvEIh4W6bP0mQKhC8jjES084BJE8qF4pVygdDdPtBfy/VJWpw9guSLozOU0mkPy3i8lf4yFxxchpDOSlv3Bx93tL1Z1+PqpB1nNJwsyO5ZC9bKwsNfpJ0DeI1V57AVc3FuPKcKMnwSvn3GnF1wsy8wYUL+pmyqv0fndLhoZxnBmYLIBeLgbTNm/Q3joALaWQA9mJD995w49l/6vt4h2lkQl+ZErElOfQHKAQjGhbdHx99JO8cIzhTkmvCpj9POALghPiz0v2hnGMGJguSLo6Ng+isYUSCO5sxK+ZwoCEEoIKZvAt/DiYJ8a+u2E0IaaecA3LDf1l1PO8MIThRkWK3T+TLtDIAbvj3btYt2hhGcKYiqqe4jTPCntHMAujAheypt3TW0c4zg1LNYR522L6WhvARpGC+bdhbgfZhgTVFjnZJLz2dx5kbhpe6Lldy4NDahTMYPL6SdBXgYQYMdAwMfb27Vv1rFwYUfOFmQEasTkrJU0mkahFEO7SzAIw5q2lpKuPzaak4XZMSuWVlrp4dPhYcX/Ue3zuH43fB5J+0gV8Opc5Ar+ayr/TtCSKVcGJGN4dF330ZQTan+5JK3zKcP0I4yFj5xBLnUakly4dKY+OfjQ8N86i2zAW6g2d3712+tXZpKa/c/uPIg4lj4XEFGvJueuSxHJN6C4dUFXNeqMZvuU1uMB2kHmQifLQj6aTquSpKyTi4UPY4wLOLAKQS5tS77m2qzcaPOxZ35HePl0wUZsVqSVKCUTtsJRxOOIOSIxtK2Qm1pOUU7ymT5RUHQxfd/CPMjo+9USJIVGOPraOcJSAT/U21peX9fV8cnnecG/OKNVH5TkEu9ljpjVWFUzDsIY1hUzhsIalabjQ9q2k2HaEdhm18WBF18B2HqtvTMzUEYL6WdxZ/hIbK31NBYXGnraqedxRP8tiAjFJLkWxWS5K0Y41TaWfzMSbXZ+KjGYqqiHcST/L4gw+ZMFcQuj5OqCiNjHkZQlMkhqPmjzrbXvujq/MCX7mdMVEAU5FLb0jNVcpF4PUYoknYW30LO6Bz2MrWlbYc/v3LtcgFXEHRxznP2elnGewhezzYmenfvFxtN+gd0TruddhZv81hBcgTiYKVMdsuCkPBChIg4OCT41JFu91dqi+mY1mXx1G7HLFsg4ikkyaockXgdQkhIOw9HWbUO+0uvm/Rvc2U4pZAmZxWIY+6W8cMTtU57l9Zpr9RYTH/31P48UpD16bPuyBdFvo0RTvzFHwk5uqur/ZV9HV1fNPc7PLH7cUnj8cUKSfLjBVGxJTDs+gkhp6qsZ99QW4wf6/t6nbTjxIWEhj2ZlPbQTZHRD2OMcy//e8dAf/WXZ9ofKW9v/YHtfbNeEGVCyhxFYpL2qu/vIOQrnfP8C6qmI8fYzjARckFEjEKS9JxcGKFCGPNp56GCoHNal33rRqP+eUNfby/tOMNUCSkZD0uT9mCM517lq26N2bRAbTGyOumK9YIckf9qP0Z4rCsk9gWHTNn+1MmmsiqbhRMvVVmdkJSllKbswBjPo53FmwhBle+ZWx8tb2/hxKw+uTBCfPEflrgEIRQ8xp8dyNUeuonNHKzOB1mdkJSaIxK/NY6fBA8NkYUFkeJbgkOm7K+x22xs5pkIncvRXmnt+kTGDxdLw3j+P5ORoHMGt7v05rojxVqXvZt2nGHrUzMKH0ue9p00jF8wzoVF0jDB72lddtbG7qwWRC6MuEUujLh73D/EOHHBVNEjqgRZlowf4arrsep7hgYJm9nGw3b+fN9X3Z1f6929O4aPcmk8/gyM8VRaeTykrdLatUVjNio2tuq/ph1GxgsPujsm4X89k3LNq3KR6BWMsGAi26lx2Q/rXI4TbOUa66FrrCbz7FMoCTp/V36U8K7C2Gv3bjd2rNS0N1J9TLrK1n26ytZdlm+NLl8vy9BgPOahI6fp3b3vbDIaSmo4cj8jPzJ69npZxmcY4ZmT3RZGiNV/ZJxZF+tSQ4NDS5WJsU3l6ZmqvKgo2nEuFCVPV12oNhuXIoRO084zCU21DufSZSdqH+VCOS688iI98+H1sozDbJTDEzhZkJ8kZIvE299Jm1W7MTVbRjvMMI3FtE/VUDdL7+79M+0s4+TWOu3PFTfUzVM2/Wsf7TDDFAnJi7ZnZH6fIxJXYIQ5++5Jts9BsuTCCLafnk1ICw9ZXRAZHRsdFmq2DgR1Ws/Tu+BlGeg//+mZ9r2EkP2RISFTooJDMxBGIdQCMevRu3s/ft2of+CtttOf016QbVp4OMoRiGa/PT1z6/WR0W8ixP4bi7VO+16dy8Ha/RC2z0E8ZaqMP7Vk+KOII3ufNTYpv+k6Q/Wl9BXtrdXDn2yBqOyZFNkOGX/qzTTz/AxBgxjh91WNdWVcuTJVnr5w+gJh0CbsY9MPuDzEGhXBeOmr02Yc0VyzIEcukNCOc+GycKm+YYnWaX8eEeKmnQch5Ky0nlmRozuo5EI5cmNj0adzsldmi4LqfK0cyBcL8pPULHH40fIZabuKp6VRn4du6HOfK2qsf1XVWC8jQ0Of0MqBh/BOVWPdrDJDIyfeFquQpCVtS87YOS2M/2eEfHN2p68W5AKC8b2rYqQtX81Z+MbNMbGxtPMMH03yag/f9weT/ia9u/cbr+yUoMHO/oGdpc0nZ+bUHnxA53S0eWW/DEoS0+f939zrdiml0pMEk/tp55kMny7IT0Ljw6b871enzTBqs25cp0zIoP6falen5cCyE7W3lLe1LEAEeXIp/+815pZrb60/+gAXFn5WpU0XHMtb9OKKhNijU4bQvYjlexI0+ENBRvCGpgw8r0iMMbyePutXtMOgiyfyx3J1h3Kbe3vYXle4W+dw3J+rPbSYCws/y3gCtH3G3BWrI+N/PDdI1l71QVUf4k8FGZFwoyjqwNHsgqfkAhH1o8mwe3889lJ5W8siRMjkn1wm6Ghp88nruLLws0KSwft47vwKuVD0IcLsX7alzVcu845XKMLuTdtnzFlz+nz/jr2Ws29+dMbQQTNQRXvroYr21gUKSXLhr2Pin4sPDbt+HD8f0Lt7P6uydlVwYW3beD4f3REVO/PGiJgHZTzeQ2jIfxfs89eCXIRxXGoIb01JilSxWBxe9F63ZfeRs2epRtJYTPuHP9vSM5fJx7a2sEljNi3nytq2ckE0ejolZa2MHx4Qr6PwxyHWaMTZIvEnW1Mzvi9Pz+PEPPTipuO7VQ11aVqH/Q1EyMAvvkAuPB6yTtVQN5sL5ZALJGjrrDk52zNmHgiUcqAAKsgFGActyhaF1O6ZJ1+TG079qjCqdTn6iprq15TqGxYRRHYhRI4Of5r7et6qsLTOLWqs/z0XFn6+JTpmavkMmeba8IjDCKEbaOfxJv8eYl1Bagjv9Xdnpi8z9Ml2VnQadnzT1Ul1olaVrftonrZ6Oc0Mo8mPjIsqSkldMW1KyFMEoxTaeWgIqCPIz2AsT+MHb3l1Wrpl96y8O2nH4ZJ8sTTkcN6i5zfI0ptTg0PewgFaDhTQBfkfPFl4yGe1CxdvK4qf7rdXY8bqkeRp4g2ytK+DB8m64XM32nlog4L85Py5waJVSXF1NdmFJTIen6uPr3uMXCAO1v7qxpLfxiUZEEbw+u2fQEEugRGOIbh385658oPr0+beFghFGR5OVczKKtqWMfv0UP/AZjhq/FxAnqRfzdAQySuIEn1RELnA8EN/zxPrTxn2cWGROzZdKxajVXHJS7IFws0I4+m083AVHEGYYJw2nyfY+0mm/C2uPLbCBlWKTPq2LHN/tlD0JZSDGRRkLPDAY9sz5h7WzJ6Xz4VJWhM1XyxG6nnZNzwcm3AEY+QXK7R4Ggyxxi4riy+s3D5DcHRXF3/dvo6uL31l2DVfIAx7LjnzoVR+0Khr24Irg4KMF8a598VKvlgek/CVlkNrC1+JZp585vxg3l8wRldb2xaMAoZYE0QwXpItCjlcu3Dx5nyxlHPnJ6uSp4mPyhdvygrh1UE5Jg4KMjm88+cGSzbIUv9ZnJLKmVe77Z61sLAoLrEJocGnYJQwOVAQNmCcuyo2saFmwfWfbkib99/xIaGsrjc2FjJeeNCGGZn/rctd9BdZeND/wQjHeDuDP4L/Luz599rCN8deu3ebsXOlpr3BK0/ivjo9c3ZhRMSFtW0Hh0igvlnPI+AI4gGDF9YWjvH42sJygTj4SHbB6sKICM6ubevroCCe8++1hdN4fNYnn/xpgTx1e0bm9xi7NVxe29bXQUE8L+vt6Zmfsflc15PJ6fPm4LD/hxBayNY2weigIF4QHxb2n2uS055ma3v3JUqeRBjHsbU9cGVQEC+RC8V3sbGdorQ0RAYGb2RjW+DqoCBegjGeM3xSPdntDPYPBgfyDD9vg4J4T0iuQDCh9+5digwNTXobYOygIAAwgIIAwAAKAgADKAgADKAgADCAggDAAAoCAAMoCAAMoCAAMICCAMAACgIAAygIAAygIAAwgIIAwAAKAgADKAgADKAgADCAggDAAAoCAAMoCAAMoCAAMICCAMAACgIAAygIAAygIAAwgIIAwAAKAgADKAgADKAgADCAggDAAAoCAAMoCAAMoCAAMICCAMCA7YKcZ3l7AFDFbkEIrmV1ewCME0bkKJvbY7UgmnbjCYTQATa3CcBYYUI+V1taT7C5TdbPQTTm1mJEkJvt7QLAiCC3xtxWxvZmWS+I2tLS0Ox2rWN7uwAw6Kl12G8rb29pYHvDHrmKde+PP6xXt7Vc1+zu+YAg4vDEPgAYLobe3ftBWXNDjvJUfZUndhDsiY2iC+cjrdXDn2yBqOyZFNkOGX/qzZ7al68gtAP4C4IGMcLvK5vq1uicdrsnd+Xx+yA6l6O9VN+wpMZhfwoRAucmYLKsldYzK3J0B5WeLgfy1o1CQ5/7XHFT/ZuqxnoZGRra5Y19Av+Dh/BOVWPd3DJD425v7dOrd9KHjyZ5tYeX/8GkX6x3937jzX0DH0XQYOfAwI7S5pMzc2oPPqBzOtq8uXsqj5rs6rR8v+xE7S3lbS1ZiJCDNDIAn3BAY2659ta6ow9V2bpZv0I1FlSfxapob/0hV1f9n829PS/SzAE4p1vncNyfqz10k7q9VUszCCceVrz3x2Mvlbe15CBCjtHOAqg7XNp88jpVU91HtIMgrhQEXTyaaHN11QvUZuPNHf3939LOA7yqT+/u3aUxG/OXHa9dRGs4NRqP3QeZKI3FtH/4sy09c5lcJN6MEZLQzgQ8yqQxm5arLUZOnoty5ghyueKm47uLGupkNU7bK4iQAdp5AMsIcmud9rWqhrrZXC0H4nJB0MXLwn3FjcdfKLcYbyUIWWjnASwh5EiFpXVuUWP9yzqXw0U7DhPODbFGU2FprayydssKImOWKSTJCozxdbQzgfHDBP+z3NKi2dfVsafz3EA/7TxjwekjyKUMfe4+jcW0I09XvWj/2TMr4bEVn9KobjMuytEdvF5jMX3oK+VAvlSQSz1raPxQ1XR8NiFkL+0sgBkeIp+XNTcs1rSbDtHOMhE+WZBhOqf9dJ6u+g51m7EAEXKadh7wCz+qzcYbcmqr76y0dXXQDjNRPnEOwkTTbqo67LTmLY+TriqMjClCGKfSzhTgGj/qaNv4RVfnB/q+3iHaYSbLZ48gl6rvcZ151tC4MVdXnVbjsBURhKy0MwUeckbnsK0ubjieuaX19Pv+UA7kD0eQyxU3HS/PF0dXb5Bl/BlhnEU7TyDQu3s/32jS/9Yb8zO8zS+OIJersnXXqRrr/6PGYSshiJyhncePWbUOe0mZvuFufywH8scjyIgLNxmbjv8xjcffoZAkP14QFVuCEYqkncsvEHKqynr2jXKLcaehr7eXdhxP8ssjyKUMfW7bs4bGl4sa6lK0DtsWuH8yCQSd0zrtm+45cWx+qeFkub+XAwVCQUboXA5XUdPxJ8rNxv8ghFCdY+CLCEGVFeYLj4c8HQjFGBEwBRlR0d76w7ITtQVap3077Sw+gaBzBrf7yTzdoUJPrDvFdX57DsJkeNhV1FhfnC+O3lAQGfNwQWS0CmEcRzsXx7RVWrs0VWe7dlbauvW0w9ASkAUZUWXrbqmydf++0hr93npZxlaM8RLambhA7+59Z5PRUFLjsgX8av0BN8QazXBR8nTVt6nNxqUIoUB+bKVJ53AuWXai9lEox0VQkEtoLKZ9qoa6Wc29ve/RzuJlPVqn/bnihrp5qqZ/fU07DJcE9BBrNDqXo+/eH2tXKxKS3s+PilHI+OF3YoRFtHN5SI/e3btHYzZtrLR1naQdhougIFfg12sLe3FtW18HQ6yrYHNtYa3L0TfZPCHBQZPdhlfXtvV1UJAxYGlt4VM1LBQEBaE+QkjnRH5KY21bXwcFGYfJrC1cebZrKxsZthmNqHNg4O9j/gHltW19HaYdwJetTkiar5KmbEUYL2L6HibkSI6u+lq29qtMSUtXxEh+QBjzr/LVA5q2ljW0l+/0ZVNoB/BlOpejQ2Mx/SlfHI2iQkJvuMLXrBVm0x1al2NCw6LRaO22swumCmukPH4BRkgwyle6dQ6H8vb6mqe0LgcslzQJUBAWfNrV/h0hZK9cGDEVIxSHEOYTTBp0Tsc7L7WcWv7V2U4j2/v8+uyZZq3T/pE0jHdeEspLxBhFIkJMGAX9tVR/ctVb5tPwtmEAgGfBSToADKAgADCAggDAAAoCAAMoCAAMoCAAMICCAMAACgIAAygIAAygIAAw+P8BAAD//3ZSPosho0ekAAAAAElFTkSuQmCC;" vertex="1" parent="1">
          <mxGeometry x="467.67" y="770" width="60" height="60" as="geometry" />
        </mxCell>
      </root>
    </mxGraphModel>
  </diagram>
</mxfile>
